<?xml version="1.0" encoding="utf-8"?>
<!-- Generator: Adobe Illustrator 26.3.0, SVG Export Plug-In . SVG Version: 6.00 Build 0)  -->
<svg version="1.1" id="Layer_1" xmlns="http://www.w3.org/2000/svg" xmlns:xlink="http://www.w3.org/1999/xlink" x="0px" y="0px"
	 viewBox="0 0 590 590.5" style="enable-background:new 0 0 590 590.5;" xml:space="preserve">
<style type="text/css">
	.st0{opacity:0.22;}
	.st1{fill:none;stroke:#692E88;stroke-width:1.9683;stroke-linecap:round;stroke-linejoin:round;stroke-miterlimit:10;}
	.st2{fill-rule:evenodd;clip-rule:evenodd;fill:#5159A4;}
	.st3{fill:#404042;}
	.st4{fill:#FFFFFF;}
	.st5{fill:#F08124;}
	.st6{fill:#F8AE41;}
	.st7{fill:#25303F;}
	.st8{fill-rule:evenodd;clip-rule:evenodd;fill:#F4991A;}
	.st9{fill:#243746;}
	.st10{fill:#9FD7EC;}
	.st11{fill:#3A7BBF;}
	.st12{fill:#00B2E3;}
	.st13{fill:#059DD9;}
	.st14{fill:#372D59;}
</style>
<g>
	<g class="st0">
		<g>
			<path class="st1" d="M268.8,185.7c3.1-1.7,5.7-3.5,7.7-5.5"/>
			<path class="st1" d="M110.1,180.2c-3.3,3.6-4.6,7.9-4.6,13.9c0.5,29.6,0.3,59.3,0.3,88.9"/>
			<path class="st1" d="M200.2,224.7c-7.7,4.2-10.4,9.4-10.4,17.8c0.2,27.9-0.2,56.1,0.2,84c0.2,9.4-3.5,15.1-11.6,19.5
				c-19.5,10.4-38.8,21.7-58,32.9c-14.1,8.1-14.8,7.7-14.8-9.1"/>
			<path class="st1" d="M308.5,180.2c1.6,1.5,3.5,2.8,5.8,4c23.7,13.1,46.9,27.2,70.6,40.2c7.4,4.2,10.1,9.4,10.1,17.8
				c-0.2,27.7,0.3,55.1-0.2,82.7c-0.3,10.1,3.5,16,12.1,20.8c20.2,11.1,40,23,60,34.3c11.1,6.2,12.6,5.5,12.6-7.1
				c0-30.1,0-60,0-90.2"/>
			<path class="st1" d="M281.2,403.3c8.1,4.9,14.3,5.2,22.5,0.2c23.2-14.1,46.9-27.2,70.4-41c8.4-4.9,15.3-5.4,23.7-0.2
				c19.3,11.9,39,23,58.5,34.3c13.1,7.7,13.1,8.6,0.5,15.8"/>
			<path class="st1" d="M319.9,491.2c-8.9,4.9-17.8,10.1-26.7,15.1c-3.7-1.7-6.7-3-9.4-4.7c-52.4-29.9-104.7-60.3-157.3-90.1
				c-8.6-4.9-10.1-8.1-0.2-13.6c22-12.1,43.7-24.7,65.2-37.5c6.9-4.2,12.4-2,18.3,1.5"/>
		</g>
		<g>
			<path class="st1" d="M278.2,180.2c4.7-5.1,6.5-11.4,6.1-20c-0.7-21.5,0-42.7-0.3-64.2c0-13.3-1.7-14.3-13.1-7.9
				c-51.8,29.7-103.2,59.5-155.1,89.2c-1.6,1-3,1.9-4.1,3"/>
			<path class="st1" d="M450.5,166.1c-44.2-25.9-88.9-51.4-133.4-77c-14.1-7.9-15.3-7.2-15.3,9.4c0,21.5,0.5,43-0.3,64.2
				c-0.2,7.6,1.7,13.1,6.1,17.6"/>
		</g>
	</g>
	<path class="st2" d="M223.1,180.1c0-8.6-4.2-15.4-12.1-15.4c-8,0-12.8,6.8-12.8,15.3c0,10.1,5.7,15.2,13.9,15.2c4,0,7-0.9,9.3-2.2
		v-6.7c-2.3,1.1-4.9,1.9-8.2,1.9c-3.3,0-6.1-1.1-6.5-5.1H223C223,182.6,223.1,180.9,223.1,180.1z M206.5,176.9
		c0-3.8,2.3-5.4,4.4-5.4c2,0,4.2,1.6,4.2,5.4H206.5L206.5,176.9z M185.1,164.7c-3.3,0-5.4,1.6-6.6,2.6l-0.4-2.1h-7.4v39.2l8.4-1.8
		l0-9.5c1.2,0.9,3,2.1,5.9,2.1c6,0,11.5-4.8,11.5-15.5C196.6,170,191,164.7,185.1,164.7L185.1,164.7z M183.1,187.8
		c-2,0-3.2-0.7-4-1.6l0-12.5c0.9-1,2.1-1.6,4-1.6c3.1,0,5.2,3.4,5.2,7.8C188.3,184.5,186.2,187.8,183.1,187.8z M159.2,162.7l8.4-1.8
		v-6.8l-8.4,1.8L159.2,162.7L159.2,162.7z M159.2,165.3h8.4v29.4h-8.4L159.2,165.3L159.2,165.3z M150.1,167.8l-0.5-2.5h-7.2v29.4
		h8.4v-19.9c2-2.6,5.3-2.1,6.4-1.8v-7.7C156,164.9,152.1,164.1,150.1,167.8L150.1,167.8z M133.3,158l-8.2,1.8l0,26.9
		c0,5,3.7,8.6,8.7,8.6c2.8,0,4.8-0.5,5.9-1.1v-6.8c-1.1,0.4-6.4,2-6.4-3v-11.9h6.4v-7.1h-6.4C133.3,165.3,133.3,158,133.3,158z
		 M110.6,173.8c0-1.3,1.1-1.8,2.9-1.8c2.6,0,5.8,0.8,8.3,2.1v-7.9c-2.8-1.1-5.5-1.6-8.3-1.6c-6.8,0-11.4,3.6-11.4,9.5
		c0,9.3,12.8,7.8,12.8,11.8c0,1.6-1.3,2.1-3.2,2.1c-2.8,0-6.4-1.1-9.2-2.7v8c3.1,1.3,6.3,1.9,9.2,1.9c7,0,11.8-3.5,11.8-9.5
		C123.4,175.8,110.6,177.6,110.6,173.8L110.6,173.8z"/>
	<g>
		<path class="st3" d="M486.5,194.5c-0.7,0-1.3-0.6-1.4-1.3c0,0,0,0,0,0c0-0.7,0.6-1.4,1.4-1.4c0.7,0,1.4,0.6,1.4,1.4
			C487.9,193.9,487.3,194.5,486.5,194.5 M486.5,192.1c-0.6,0-1.1,0.5-1.1,1.1c0,0.6,0.5,1.1,1.1,1.1c0.6,0,1.1-0.5,1.1-1.1
			C487.6,192.6,487.1,192.1,486.5,192.1 M487.2,193.9h-0.3l-0.3-0.5h-0.4v0.5H486v-1.5h0.7c0.3,0,0.5,0.2,0.5,0.5
			c0,0.2-0.1,0.4-0.3,0.4L487.2,193.9L487.2,193.9z M486.7,193.1c0.1,0,0.2-0.1,0.2-0.2c0-0.2-0.1-0.2-0.2-0.2h-0.4v0.4
			C486.2,193.1,486.7,193.1,486.7,193.1z M354.7,204.1h-9.5v-12.5h3.5v9.4h6L354.7,204.1z M358.3,197.9L358.3,197.9
			c0-3.6,2.9-6.5,6.7-6.5c3.9,0,6.7,2.9,6.7,6.4v0c0,3.6-2.9,6.5-6.7,6.5C361.1,204.4,358.3,201.5,358.3,197.9 M368.2,197.9
			L368.2,197.9c0-1.8-1.3-3.4-3.2-3.4c-1.9,0-3.2,1.5-3.2,3.3v0c0,1.8,1.3,3.4,3.2,3.4C366.9,201.3,368.2,199.7,368.2,197.9
			 M376,198.7v-7h3.5v6.9c0,1.8,0.9,2.6,2.3,2.6s2.3-0.8,2.3-2.6v-7h3.5v6.9c0,4-2.3,5.8-5.9,5.8C378.2,204.4,376,202.6,376,198.7
			 M392.9,191.7h4.8c4.5,0,7,2.6,7,6.2v0c0,3.6-2.6,6.3-7.1,6.3h-4.7L392.9,191.7L392.9,191.7z M397.7,201.1c2.1,0,3.5-1.1,3.5-3.2
			v0c0-2-1.4-3.2-3.5-3.2h-1.4v6.3L397.7,201.1L397.7,201.1z M413.2,196.8h5.9v2.9h-5.9v4.4h-3.5v-12.5h10v3h-6.5L413.2,196.8z
			 M434,204.1h-9.5v-12.5h3.5v9.4h6L434,204.1z M443,191.6h3.3l5.3,12.6H448l-0.9-2.2h-4.8l-0.9,2.2h-3.6L443,191.6z M446.1,199.2
			l-1.4-3.5l-1.4,3.5L446.1,199.2L446.1,199.2z M456.1,191.7h5.9c1.9,0,3.2,0.5,4.1,1.4c0.7,0.7,1.1,1.7,1.1,2.9v0
			c0,1.9-1,3.2-2.6,3.8l3,4.4h-4l-2.5-3.8h-1.5v3.8h-3.5L456.1,191.7L456.1,191.7z M461.9,197.6c1.2,0,1.8-0.6,1.8-1.5v0
			c0-1-0.7-1.5-1.9-1.5h-2.3v3H461.9L461.9,197.6z M475.6,196.5h6v2.7h-6v2h6.7v2.9h-10.1v-12.5h10v2.9h-6.6L475.6,196.5
			L475.6,196.5z M337.6,199.4c-0.5,1.1-1.5,1.9-2.9,1.9c-1.9,0-3.2-1.6-3.2-3.4v0c0-1.8,1.3-3.3,3.2-3.3c1.4,0,2.5,0.9,3,2.1h3.6
			c-0.6-3-3.2-5.2-6.6-5.2c-3.9,0-6.7,2.9-6.7,6.5v0c0,3.6,2.9,6.4,6.7,6.4c3.3,0,5.9-2.1,6.5-5L337.6,199.4L337.6,199.4z"/>
		<path class="st4" d="M427.9,185.7h50.2v-13.9l-9.5-5.5l-1.7-0.7l-39,0.3L427.9,185.7z"/>
		<path class="st5" d="M460.8,183.8c0.5-1.6,0.3-3.1-0.5-4.2c-0.7-1-1.9-1.6-3.4-1.6l-27.4-0.4c-0.2,0-0.3-0.1-0.4-0.2
			c-0.1-0.1-0.1-0.3-0.1-0.5c0.1-0.3,0.4-0.5,0.6-0.5l27.6-0.4c3.3-0.2,6.8-2.8,8.1-6.1l1.6-4.1c0.1-0.2,0.1-0.4,0-0.5
			c-1.8-8-9-14.1-17.5-14.1c-7.9,0-14.6,5.1-17,12.2c-1.6-1.2-3.5-1.8-5.7-1.6c-3.8,0.4-6.9,3.4-7.2,7.2c-0.1,1,0,1.9,0.2,2.8
			c-6.2,0.2-11.2,5.2-11.2,11.5c0,0.6,0,1.1,0.1,1.7c0,0.3,0.3,0.5,0.5,0.5h50.5c0.3,0,0.6-0.2,0.6-0.5L460.8,183.8L460.8,183.8z"/>
		<path class="st6" d="M469.5,166.3l-0.8,0c-0.2,0-0.3,0.1-0.4,0.3l-1.1,3.7c-0.5,1.6-0.3,3.1,0.5,4.2c0.7,1,1.9,1.6,3.4,1.6
			l5.8,0.4c0.2,0,0.3,0.1,0.4,0.2c0.1,0.1,0.1,0.3,0.1,0.5c-0.1,0.3-0.4,0.5-0.6,0.5l-6.1,0.4c-3.3,0.2-6.8,2.8-8.1,6.1l-0.4,1.1
			c-0.1,0.2,0.1,0.4,0.3,0.4h20.9c0.2,0,0.5-0.2,0.5-0.4c0.4-1.3,0.6-2.6,0.6-4.1C484.5,173,477.8,166.3,469.5,166.3"/>
	</g>
	<g>
		<path class="st7" d="M264.3,282.7c0,1.6,0.2,2.9,0.5,3.8c0.3,0.9,0.8,2,1.4,3.1c0.2,0.3,0.3,0.7,0.3,1c0,0.4-0.3,0.9-0.8,1.3
			l-2.7,1.8c-0.4,0.3-0.8,0.4-1.1,0.4c-0.4,0-0.9-0.2-1.3-0.6c-0.6-0.6-1.1-1.3-1.5-2c-0.4-0.7-0.9-1.5-1.3-2.5
			c-3.3,4-7.5,5.9-12.6,5.9c-3.6,0-6.5-1-8.6-3.1c-2.1-2.1-3.2-4.8-3.2-8.2c0-3.6,1.3-6.6,3.9-8.8c2.6-2.2,6.1-3.4,10.5-3.4
			c1.5,0,3,0.1,4.5,0.3s3.2,0.6,4.9,0.9v-3.1c0-3.3-0.7-5.5-2-6.9c-1.4-1.3-3.7-2-7-2c-1.5,0-3,0.2-4.6,0.6
			c-1.6,0.4-3.1,0.9-4.6,1.5c-0.7,0.3-1.2,0.5-1.5,0.6s-0.5,0.1-0.7,0.1c-0.6,0-0.9-0.4-0.9-1.3V260c0-0.7,0.1-1.2,0.3-1.5
			s0.6-0.6,1.2-0.9c1.5-0.8,3.3-1.4,5.4-1.9c2.1-0.6,4.3-0.8,6.7-0.8c5.1,0,8.8,1.2,11.2,3.5c2.4,2.3,3.6,5.8,3.6,10.5L264.3,282.7
			L264.3,282.7L264.3,282.7z M246.8,289.2c1.4,0,2.9-0.3,4.4-0.8s2.9-1.5,4.1-2.7c0.7-0.8,1.2-1.7,1.5-2.7s0.4-2.3,0.4-3.7v-1.8
			c-1.2-0.3-2.6-0.6-3.9-0.7c-1.4-0.2-2.7-0.3-4-0.3c-2.9,0-5,0.6-6.4,1.7s-2.1,2.8-2.1,4.9c0,2,0.5,3.5,1.6,4.5
			C243.4,288.7,244.9,289.2,246.8,289.2L246.8,289.2z M281.3,293.9c-0.8,0-1.3-0.1-1.6-0.4c-0.3-0.3-0.6-0.9-0.9-1.7l-10.1-33.1
			c-0.3-0.9-0.4-1.4-0.4-1.7c0-0.7,0.3-1.1,1-1.1h4.2c0.8,0,1.4,0.1,1.7,0.4c0.3,0.3,0.6,0.9,0.9,1.7l7.2,28.4l6.7-28.4
			c0.2-0.9,0.5-1.4,0.8-1.7c0.3-0.3,0.9-0.4,1.7-0.4h3.4c0.8,0,1.4,0.1,1.7,0.4c0.3,0.3,0.6,0.9,0.8,1.7l6.8,28.7l7.4-28.7
			c0.3-0.9,0.6-1.4,0.9-1.7c0.3-0.3,0.9-0.4,1.7-0.4h4c0.7,0,1.1,0.3,1.1,1.1c0,0.2,0,0.4-0.1,0.7s-0.1,0.6-0.3,1.1l-10.3,33.1
			c-0.3,0.9-0.6,1.4-0.9,1.7s-0.9,0.4-1.6,0.4h-3.7c-0.8,0-1.4-0.1-1.7-0.4s-0.6-0.9-0.8-1.7l-6.6-27.7l-6.6,27.6
			c-0.2,0.9-0.5,1.4-0.8,1.7s-0.9,0.4-1.7,0.4H281.3z M336.4,295c-2.2,0-4.5-0.3-6.6-0.8c-2.1-0.5-3.8-1.1-4.9-1.7
			c-0.7-0.4-1.2-0.8-1.3-1.2c-0.2-0.4-0.3-0.8-0.3-1.2V288c0-0.9,0.3-1.3,1-1.3c0.3,0,0.5,0,0.8,0.1c0.3,0.1,0.6,0.3,1.1,0.4
			c1.5,0.6,3,1.2,4.7,1.5c1.7,0.3,3.4,0.5,5.1,0.5c2.7,0,4.8-0.5,6.3-1.4c1.5-0.9,2.2-2.3,2.2-4.1c0-1.2-0.4-2.2-1.2-3
			s-2.2-1.5-4.3-2.2l-6.2-1.9c-3.1-1-5.5-2.4-6.9-4.4c-1.4-1.9-2.1-4-2.1-6.2c0-1.8,0.4-3.4,1.2-4.8s1.8-2.6,3.1-3.5
			c1.3-1,2.7-1.7,4.5-2.2s3.5-0.7,5.4-0.7c0.9,0,1.9,0,2.9,0.2c1,0.1,1.9,0.3,2.8,0.5c0.9,0.2,1.7,0.4,2.4,0.7s1.4,0.5,1.8,0.8
			c0.6,0.3,1,0.7,1.3,1.1c0.3,0.3,0.4,0.8,0.4,1.4v2c0,0.9-0.3,1.4-1,1.4c-0.3,0-0.9-0.2-1.6-0.5c-2.4-1.1-5.2-1.7-8.2-1.7
			c-2.4,0-4.4,0.4-5.7,1.2c-1.3,0.8-2,2.1-2,3.8c0,1.2,0.4,2.2,1.3,3c0.9,0.8,2.4,1.6,4.7,2.4l6.1,1.9c3.1,1,5.3,2.4,6.6,4.1
			s2,3.8,2,6c0,1.8-0.4,3.5-1.1,5c-0.8,1.5-1.8,2.7-3.1,3.8c-1.3,1.1-2.9,1.8-4.8,2.4C340.6,294.7,338.6,295,336.4,295L336.4,295z"
			/>
		<g>
			<path class="st8" d="M344.5,315.9c-14.1,10.4-34.6,16-52.2,16c-24.7,0-47-9.1-63.8-24.3c-1.3-1.2-0.1-2.8,1.5-1.9
				c18.2,10.5,40.6,16.9,63.8,16.9c15.6,0,32.9-3.3,48.7-10C344.8,311.5,346.8,314.2,344.5,315.9z"/>
			<path class="st8" d="M350.4,309.2c-1.8-2.3-11.9-1.1-16.5-0.6c-1.4,0.2-1.6-1-0.3-1.9c8.1-5.7,21.3-4,22.9-2.1
				c1.5,1.9-0.4,15.2-8,21.5c-1.2,1-2.3,0.5-1.8-0.8C348.4,321,352.2,311.5,350.4,309.2z"/>
		</g>
	</g>
	<g>
		<path class="st9" d="M359.1,426.6l4.1-3.2c1.2,2,3,3.1,5.1,3.1c2.3,0,3.5-1.5,3.5-3.1c0-1.9-2.4-2.5-4.9-3.3
			c-3.1-1-6.6-2.2-6.6-6.7c0-3.8,3.3-6.8,7.8-6.8c3.8,0,6,1.5,7.9,3.4l-3.7,2.8c-1-1.5-2.3-2.2-4.2-2.2c-2.1,0-3.2,1.1-3.2,2.6
			c0,1.8,2.2,2.4,4.8,3.2c3.2,1,6.8,2.4,6.8,6.9c0,3.7-3,7.3-8.1,7.3C364.1,430.8,361.2,429,359.1,426.6 M395,414.4h4.4v1.8
			c1-1.3,2.6-2.1,4.4-2.1c3.8,0,6.1,2.4,6.1,6.6v9.8h-4.5v-9.2c0-2.1-1-3.4-3-3.4c-1.7,0-3,1.2-3,3.9v8.8H395L395,414.4L395,414.4z
			 M410.9,422.5c0-5.7,4.2-8.4,7.8-8.4c2.1,0,3.7,0.8,4.8,1.9v-9h4.4v23.5h-4.4v-1.8c-1.1,1.2-2.8,2.1-4.9,2.1
			C415.3,430.8,410.9,428.1,410.9,422.5 M423.7,422.4c0-2.4-1.7-4.3-4.1-4.3c-2.4,0-4.3,1.8-4.3,4.3s1.9,4.3,4.3,4.3
			C421.9,426.8,423.7,424.8,423.7,422.4 M429,418.8c0-6.7,5-12,12-12c3.5,0,6.4,1.2,8.5,3.2c0.9,0.8,1.6,1.7,2.2,2.8l-3.9,2.4
			c-1.5-2.7-3.7-4-6.7-4c-4.3,0-7.6,3.5-7.6,7.7c0,4.3,3.2,7.7,7.7,7.7c3.4,0,5.8-1.9,6.6-4.9h-7.4v-4.3h12.2v1.8
			c0,6.3-4.5,11.7-11.5,11.7C433.8,430.8,429,425.3,429,418.8 M453.7,414.4h4.4v2.6c0.8-1.7,2.2-2.6,4.4-2.6h1.8l-1.6,4.3h-1.2
			c-2.3,0-3.4,1.2-3.4,4.2v7.6h-4.4L453.7,414.4L453.7,414.4z M465.4,414.4h4.4v16.1h-4.4v-11.8h-1.6L465.4,414.4z M467.6,412
			c1.5,0,2.6-1.2,2.6-2.6s-1.2-2.6-2.6-2.6s-2.6,1.2-2.6,2.6S466.2,412,467.6,412 M470.9,422.5c0-5.7,4.2-8.4,7.8-8.4
			c2.1,0,3.7,0.8,4.8,1.9v-9h4.4v23.5h-4.4v-1.8c-1.1,1.2-2.8,2.1-4.8,2.1C475.2,430.8,470.9,428.1,470.9,422.5 M483.6,422.4
			c0-2.4-1.7-4.3-4.1-4.3c-2.4,0-4.3,1.8-4.3,4.3s1.9,4.3,4.3,4.3C481.9,426.8,483.6,424.8,483.6,422.4 M394,422.4
			c0-4.6-3.4-8.3-8.3-8.3c-4.6,0-8.4,3.7-8.4,8.4c0,4.6,3.5,8.4,8.5,8.4c3.5,0,6-1.7,7.4-4.1l-3.5-2.1c-0.7,1.4-2.2,2.3-3.9,2.3
			c-2.3,0-3.8-1.2-4.3-2.9H394V422.4z M381.8,420.5c0.7-1.5,2.1-2.5,4-2.5c1.9,0,3.2,0.9,3.8,2.5H381.8z"/>
		<rect x="335.1" y="421.1" class="st10" width="9.4" height="9.4"/>
		<polygon class="st10" points="335.1,411.7 335.1,411.7 325.7,411.7 325.7,421.1 335.1,421.1 		"/>
		<rect x="325.7" y="421.1" class="st11" width="9.4" height="9.4"/>
		<polygon class="st12" points="353.8,411.7 353.8,411.7 344.5,411.7 344.5,421.1 353.8,421.1 		"/>
		<rect x="335.1" y="402.4" class="st12" width="9.4" height="9.4"/>
		<rect x="335.1" y="411.7" class="st13" width="9.4" height="9.4"/>
		<rect x="344.5" y="402.4" class="st11" width="9.4" height="9.4"/>
		<polygon class="st9" points="363.5,396.7 363.5,402.2 362.3,402.2 362.3,396.7 360.3,396.7 360.3,395.6 365.5,395.6 365.5,396.7 
					"/>
		<polygon class="st9" points="374.7,402.2 373.5,402.2 372.1,397.4 370.6,402.2 369.4,402.2 367.6,395.6 368.9,395.6 370.1,400.2 
			371.5,395.6 372.8,395.6 374.1,400.2 375.3,395.6 376.6,395.6 		"/>
		<rect x="379.1" y="395.6" class="st9" width="1.3" height="6.6"/>
		<polygon class="st9" points="383.3,402.2 383.3,395.6 384.5,395.6 384.5,401 386.7,401 386.7,402.2 		"/>
		<rect x="389.4" y="395.6" class="st9" width="1.3" height="6.6"/>
		<path class="st9" d="M396.4,402.3c-1.9,0-3.1-1.4-3.1-3.4c0-2,1.2-3.4,3.1-3.4c1.9,0,3.1,1.4,3.1,3.4
			C399.5,400.9,398.3,402.3,396.4,402.3 M396.4,396.5c-1.1,0-1.8,0.9-1.8,2.4s0.7,2.4,1.8,2.4c1.1,0,1.8-0.9,1.8-2.4
			S397.5,396.5,396.4,396.5"/>
	</g>
	<path class="st14" d="M126.4,395.8c-1.1-1.9-3.5-2.5-5.4-1.3c-0.6,0.3-1,0.8-1.3,1.3l-5.5,9.5c8.6,4.3,14.3,12.8,14.9,22.4h-3.9
		c-0.6-8.2-5.6-15.5-13-19.1l-5.1,8.8c4.1,1.9,7.1,5.7,7.7,10.2H106c-0.4,0-0.6-0.3-0.6-0.7c0-0.1,0-0.2,0.1-0.2l2.5-4.2
		c-0.8-0.7-1.8-1.2-2.8-1.6l-2.4,4.2c-1.1,1.8-0.4,4.1,1.4,5.2c0,0,0,0,0.1,0c0.6,0.3,1.2,0.5,1.9,0.5h12.2
		c0.5-5.7-2.1-11.2-6.7-14.5l1.9-3.4c5.8,4,9.1,10.8,8.6,17.9h10.3c0.5-10.7-4.8-20.9-13.8-26.7l3.9-6.7c0.2-0.3,0.6-0.4,0.9-0.2
		c0.4,0.2,17,29.2,17.3,29.5c0.2,0.3,0.1,0.7-0.2,0.9c-0.1,0.1-0.2,0.1-0.3,0.1h-4c0.1,1.1,0.1,2.1,0,3.2h4c2.1,0,3.9-1.7,3.9-3.8
		c0,0,0,0,0,0c0-0.7-0.2-1.3-0.5-1.9L126.4,395.8z M206.4,417.6l-12.4-16h-3.1V423h3.1v-16.4l12.7,16.4h2.7v-21.4h-3.1L206.4,417.6
		L206.4,417.6z M175.2,413.6h11.1v-2.8h-11.1v-6.5h12.5v-2.8H172v21.4h15.9v-2.8h-12.7L175.2,413.6z M162.1,410.9L162.1,410.9
		c-4.3-1-5.5-1.9-5.5-3.9c0-1.8,1.6-3,3.9-3c2.1,0.1,4.2,0.8,5.9,2.1l1.7-2.4c-2.1-1.7-4.8-2.6-7.6-2.5c-4.2,0-7.2,2.5-7.2,6.1
		c0,3.9,2.5,5.2,7.1,6.3c4.1,0.9,5.3,1.8,5.3,3.8s-1.7,3.2-4.3,3.2c-2.6,0-5.1-1-7-2.7l-1.9,2.3c2.4,2.1,5.5,3.2,8.7,3.2
		c4.6,0,7.6-2.5,7.6-6.3C169,413.8,167.1,412.1,162.1,410.9z M266.2,401.6l-6.5,10.1l-6.4-10.1h-3.7l8.5,13v8.5h3.2v-8.6l8.5-12.9
		L266.2,401.6L266.2,401.6z M212,404.5h7v18.5h3.2v-18.5h7v-2.9H212L212,404.5z M244.2,414.7c3.2-0.9,5-3.2,5-6.4
		c0-4.1-3-6.7-7.9-6.7h-9.5V423h3.2v-7.7h5.4l5.4,7.7h3.7l-5.9-8.2L244.2,414.7z M235,412.6v-8.1h6c3.1,0,4.9,1.5,4.9,4.1
		s-1.9,4.1-4.9,4.1L235,412.6L235,412.6z"/>
</g>
</svg>
