<?xml version="1.0" encoding="UTF-8"?><svg id="Layer_1" xmlns="http://www.w3.org/2000/svg" width="292" height="87" viewBox="0 0 292 87"><defs><style>.cls-1{fill:#caa8f5;}</style></defs><path class="cls-1" d="M34.1324,183.7652c-.0735-.0735-.1195-.1671-.1907-.2426-.4039-.4319-.7713-.8911-1.0862-1.3831-.0681-.1043-.1367-.2082-.2008-.3146-.3534-.6036-.6527-1.2372-.8666-1.9018l-.0127-.0389c-.2275-.716-.3701-1.4612-.4243-2.2192-.0013-.0121,.0002-.0249-.001-.037-.0421-.5163-.0736-1.0348-.0283-1.5586l18.3341-105.1251c.3913-2.2748,3.053-3.2853,4.8021-1.8162l33.583,28.5619,.6583,.5529c2.8086,2.4226,4.1316,6.1696,3.5144,9.8295,.0031,.0347-.0127,.0537-.0096,.0884l-8.3941,48.1012c-.2443,1.5752-.1076,3.1644,.3234,4.6579,.6285,1.4617,1.5636,2.8003,2.7902,3.8706l37.266,31.2812c.0199,.0285,.0439,.033,.0643,.061,2.8188,2.3943,4.2121,6.1155,3.6211,9.7904l-.1477,.8497-7.3262,43.6319c-.3933,2.2582-3.0742,3.2158-4.8323,1.7327l-61.6377-51.7498-.0035,.0042-19.2383-16.1592-.0016-.0021-.5551-.4655Z"/><path class="cls-1" d="M163.5671,17.0034c.1002-.0273,.2039-.0207,.3046-.0449,.5745-.1361,1.1544-.2267,1.7362-.2552,.124-.0072,.2479-.0151,.3717-.0178,.6973-.0064,1.3932,.0492,2.0731,.1947l.0399,.0084c.7311,.1593,1.4447,.4069,2.125,.738,.011,.0049,.0213,.0126,.0324,.0175,.466,.221,.9286,.4523,1.3574,.753l81.4071,68.4074c1.7643,1.4756,1.3014,4.2962-.841,5.0854l-41.4409,14.9767-.8063,.297c-3.495,1.2356-7.3869,.5175-10.2317-1.8457-.0315-.0147-.0399-.0378-.0714-.0525l-37.2462-31.3051c-1.2351-.9985-2.6731-1.6725-4.1761-2.0426-1.5745-.1823-3.1966-.0364-4.7336,.4971l-45.6297,16.8253c-.0346,.0031-.0504,.0218-.0848,.0255-3.4758,1.2586-7.3807,.6145-10.2514-1.7334l-.6582-.5525-33.9298-28.1457c-1.749-1.469-1.2309-4.2799,.928-5.0701l75.4806-27.8235-.0018-.0051,23.565-8.6807,.0026-.0003,.6793-.2509Z"/></svg>