<?xml version="1.0" encoding="UTF-8"?><svg id="Layer_1" xmlns="http://www.w3.org/2000/svg" width="341.702" height="382.4897" viewBox="0 0 341.702 382.4897"><defs><style>.cls-1{fill:#caa8f5;}</style></defs><path class="cls-1" d="M177.4441,381.0632c-.15,.07-.3146,.088-.4661,.1534-.8652,.3695-1.7513,.6694-2.6572,.8728-.1927,.0451-.3852,.0912-.579,.1293-1.0935,.2003-2.2018,.3034-3.3095,.2618l-.0649-.0022c-1.1918-.0493-2.3805-.2415-3.5397-.573-.0187-.0047-.037-.0139-.0556-.0186-.7925-.2181-1.5824-.4532-2.3381-.8061L17.8505,296.4092c-3.1749-1.8241-3.2196-6.3582-.0704-8.1764l60.9943-34.718,1.1852-.6843c5.1516-2.885,11.4612-2.8255,16.5761,.0908,.0535,.0143,.073,.0482,.1265,.0625l67.0681,38.7502c2.2132,1.2232,4.6563,1.8837,7.1183,2.0517,2.523-.145,5.031-.8159,7.2991-2.0692l67.0679-38.7503c.0535-.0143,.0733-.0478,.1262-.063,5.1151-2.9157,11.4248-2.9753,16.5764-.0901l1.185,.6837,60.9946,34.7186c3.1491,1.8181,3.1044,6.352-.0705,8.1762l-110.9462,64.0868,.0043,.0074-34.639,19.9988-.004,.0012-.9983,.5775Z"/><path class="cls-1" d="M341.702,96.5426c-.0143-.1649-.0811-.3164-.1002-.4804-.1126-.934-.2959-1.8514-.5727-2.7377-.0573-.1895-.1136-.3792-.1775-.566-.3732-1.0471-.8381-2.0585-1.428-2.9971l-.0344-.0551c-.6386-1.0075-1.3994-1.9408-2.2661-2.7789-.0134-.0138-.0305-.0251-.0439-.0389-.5851-.5773-1.1836-1.1438-1.8671-1.6218L188.5926,.6575c-3.1672-1.8375-7.1162,.3909-7.1162,4.0273l.4305,70.1816v1.3686c.0773,5.9039,3.2837,11.3384,8.3667,14.3099,.0391,.0391,.0783,.0391,.1174,.0783l67.0927,38.7076c2.1659,1.3051,3.9595,3.0906,5.336,5.1388,1.1359,2.2575,1.8089,4.7649,1.8576,7.3558l-.0248,77.4577c.0143,.0535-.0048,.0873,.0086,.1408,.0325,5.8877,3.1357,11.3819,8.2101,14.4006l1.1846,.6844,60.5645,35.4636c3.1491,1.8182,7.0532-.4875,7.0456-4.1492l.0277-128.1256h.0086v-39.9977l-.001-.0041,.001-1.1533Z"/><path class="cls-1" d="M0,96.5426c.0143-.1649,.0811-.3164,.1002-.4804,.1126-.934,.2959-1.8514,.5727-2.7377,.0573-.1895,.1136-.3792,.1775-.566,.3732-1.0471,.8381-2.0585,1.428-2.9971l.0344-.0551c.6386-1.0075,1.3994-1.9408,2.2661-2.7789,.0134-.0138,.0305-.0251,.0439-.0389,.5851-.5773,1.1836-1.1438,1.8671-1.6218L153.1094,.6575c3.1672-1.8375,7.1162,.3909,7.1162,4.0273l-.4305,70.1816v1.3686c-.0773,5.9039-3.2837,11.3384-8.3667,14.3099-.0391,.0391-.0783,.0391-.1174,.0783l-67.0927,38.7076c-2.1659,1.3051-3.9595,3.0906-5.336,5.1388-1.1359,2.2575-1.8089,4.7649-1.8576,7.3558l.0248,77.4577c-.0143,.0535,.0048,.0873-.0086,.1408-.0325,5.8877-3.1357,11.3819-8.2101,14.4006l-1.1846,.6844L7.0818,269.9725c-3.1491,1.8182-7.0532-.4875-7.0456-4.1492L.0086,137.6977h-.0086v-39.9977l.001-.0041L0,96.5426Z"/></svg>