<?xml version="1.0" encoding="UTF-8"?><svg id="Layer_1" xmlns="http://www.w3.org/2000/svg" viewBox="0 0 400 175"><defs><style>.cls-1{fill:#ed1b2f;}.cls-2{fill:#231f20;}.cls-3{fill:#787661;}</style></defs><path class="cls-2" d="M144.0856,115.0281c-2.8322-.4936-5.2903-1.3273-7.3799-2.4725-2.0895-1.1599-3.7375-2.6548-4.931-4.4617-1.1982-1.8256-1.7972-4.0444-1.7972-6.6416v-7.1739c0-.9919,.019-1.9359,.067-2.8655,.043-.9203,.067-1.8692,.067-2.8561,0-2.9855-.024-5.3863-.067-7.2265-.048-1.8402-.1103-3.2108-.206-4.1307,1.035,.0767,2.0796,.1437,3.1628,.1966,1.0733,.0574,2.1276,.0813,3.1531,.0813,1.0303,0,2.0845-.024,3.1578-.0813,1.0535-.0519,2.1063-.1175,3.1581-.1966-.5176,3.5605-.8293,6.8815-.9249,9.9484-.0982,3.1139-.1477,6.2292-.1486,9.3447,0,3.3352,.326,6.0476,.9823,8.1032,.666,2.0608,1.6392,3.6421,2.9325,4.7634,1.2939,1.1309,2.8801,1.8689,4.7634,2.2332,1.8736,.364,4.0684,.5557,6.5509,.5557,3.0572,0,5.434-.5557,7.1689-1.6532,1.7299-1.1069,3.0288-2.5732,3.9198-4.4184,.8913-1.8306,1.4376-3.9294,1.6436-6.3063,.1966-2.3768,.2973-4.84,.2973-7.4135,0-2.5349-.053-5.0604-.1677-7.5809-.1053-2.5161-.278-5.051-.4889-7.5765,.7046,.0767,1.3946,.1437,2.0512,.1966,.6613,.0574,1.2746,.0813,1.8212,.0813,.666,0,1.3033-.024,1.9169-.0813,.6136-.053,1.2409-.12,1.9072-.1966-.1007,.805-.1917,1.8835-.2873,3.2588-.1093,1.5661-.205,3.133-.2873,4.7008-.1059,1.9653-.1873,3.9319-.2443,5.8993-.0748,2.2674-.1115,4.5359-.1103,6.8046,0,6.3973-1.9169,10.9789-5.7363,13.7485-3.8241,2.7745-9.4308,4.1641-16.8156,4.1641-3.2579,.0006-6.301-.2484-9.1285-.747h0Zm188.6209-30.7028c-.114-2.3786-.2802-4.7545-.4983-7.1259,.8626,.0767,1.7922,.1437,2.8128,.1966,1.0113,.0574,2.1518,.0813,3.4264,.0813,1.2649,0,2.4009-.024,3.4121-.0813,1.0159-.053,1.9596-.12,2.8225-.1966-.1742,2.3729-.3084,4.7485-.4026,7.1259-.091,2.3625-.129,5.0656-.129,8.1178v7.4802c0,3.0575,.0383,5.7553,.129,8.1275,.0913,2.3622,.2303,4.6867,.4026,6.9629-.8626-.067-1.8066-.1009-2.8225-.1009h-6.8385c-1.0206,0-1.9502,.0336-2.8128,.1009,.2206-2.2762,.3836-4.6007,.4983-6.9629,.1056-2.3722,.1633-5.07,.1633-8.1275v-7.4802c-.0003-3.0525-.0577-5.7553-.1633-8.1178Zm-230.0384,2.0892c-1.4232-2.2955-3.4314-4.1211-6.0236-5.4724-2.6022-1.3609-5.698-2.3195-9.2824-2.8948-3.5894-.57-7.5665-.848-11.9609-.848-3.3591,0-6.086,.048-8.1752,.1437-2.0845,.096-3.9681,.1343-5.6403,.1343-1.2843,0-2.4295-.024-3.4452-.0813-1.0113-.053-1.9649-.12-2.8225-.1966,.177,1.9552,.3113,3.9151,.4217,5.856,2.5015-1.6963,10.1927-2.2999,11.6493-2.3959v-.024c1.1742-.0767,2.3239-.139,3.4598-.1963,1.1403-.048,2.6308-.077,4.4664-.077,2.6212,0,5.0124,.3353,7.1449,1.0113,2.1325,.6803,3.9581,1.6532,5.482,2.9185,1.5189,1.2606,2.7075,2.7938,3.5414,4.6004,.8339,1.7922,1.2556,3.834,1.2556,6.1006,0,5.7217-1.6772,10.0011-5.022,12.8189-3.3545,2.8225-7.8928,4.2364-13.6285,4.2364-1.5719,0-2.8898-.024-3.9631-.0574-1.0639-.048-1.9695-.0863-2.7365-.1293,0-.2633-.019-.8196-.0574-1.7012-.0459-.9688-.0682-1.9386-.067-2.9085v-18.6459l-.072-3.2921c0-1.1069,.0337-2.0895,.1053-2.9758,.0146-.235,.0337-.441,.0383-.6326-1.6196,1.7156-9.1528,8.8654-11.357,10.945v7.2742c0,3.0575-.0623,5.7553-.163,8.1275-.1176,2.3242-.2838,4.6456-.4983,6.9629,.8579-.067,1.8112-.1009,2.8225-.1009h3.4452c1.9792,0,4.3224,.0097,7.0252,.053,2.6981,.024,5.9566,.048,9.7757,.048,3.6134,0,7.0159-.4649,10.188-1.3849,3.1961-.9103,5.99-2.2425,8.4098-3.9821,2.4155-1.7442,4.3274-3.8384,5.7266-6.311,1.4039-2.4488,2.1036-5.2043,2.1036-8.2518,0-3.4902-.714-6.3701-2.1466-8.6706h0Zm204.8273,20.7976c-1.7922-3.0768-13.1158-23.7975-16.365-30.2141-.7427-1.2986-2.8035-5.4343-2.9521-5.4343-.048,0-2.1995,4.404-2.8559,5.4343-4.5863,8.6161-18.3155,32.3753-19.3411,34.0525-.7991,1.3306-1.6139,2.6517-2.4442,3.9631,.714-.067,1.3752-.1009,1.9839-.1009h3.6374c.5797,0,1.1836,.0336,1.7922,.1009,.7186-1.7972,1.5093-3.6181,2.3768-5.4966,.8579-1.8496,9.4738-18.3872,11.9946-21.9093,3.6801,5.8656,10.4464,20.0597,11.314,21.9093,.8465,1.8293,1.6867,3.6615,2.5205,5.4966,1.0783-.067,2.1612-.1009,3.2585-.1009h6.4886c1.0879,0,2.2572,.0336,3.4791,.1009-1.4706-2.1325-3.0999-4.7297-4.8874-7.8015h0Zm-76.2372,.551c-.4553,.9203-1.0636,1.6965-1.8256,2.3435-.7934,.6464-1.7025,1.136-2.6788,1.4426-1.0253,.3353-2.0939,.4983-3.2152,.4983-.8626,0-7.1689-.005-7.7825-.024-.618-.019-1.2746-.0334-1.9889-.0767-.1484-7.4519-.2443-24.4061,.1343-31.4314,.5126-.0767,.9776-.1246,1.4186-.1437,.436-.0097,6.7759-.024,7.9022-.024,1.5333,0,2.8128,.1773,3.8337,.5273,1.0159,.34,1.8639,.8099,2.5255,1.3706,.6707,.5703,1.1263,1.2506,1.4086,2.0462,.2876,.7956,.4216,1.6292,.4216,2.5062,0,1.1836-.254,2.2185-.762,3.1005-.5015,.8623-1.1852,1.6049-2.0032,2.1758-.8143,.5656-1.7489,.9966-2.7935,1.2939-1.0351,.2942-2.106,.444-3.1821,.4453h-5.6783v3.1771c2.0415-.029,5.0364-.0334,5.5157-.0334,3.0718,0,5.4103,.6373,7.0349,1.9022,1.5956,1.2606,2.4102,3.1678,2.4102,5.7316-.0003,1.2026-.235,2.2712-.6952,3.1719h0Zm11.1609-7.7725c-1.0016-1.1596-2.2042-2.1036-3.6371-2.8272-1.4139-.738-2.9138-1.2746-4.4904-1.6292-1.5719-.3453-2.9472-.5416-4.0971-.575v-.1059c1.169-.1434,2.4819-.4167,3.9388-.824,1.4569-.4026,2.8178-.9583,4.083-1.6772,1.2459-.7187,2.2999-1.6196,3.1722-2.7075,.8676-1.0829,1.3132-2.3815,1.3132-3.8861,0-1.5096-.3737-2.8085-1.1026-3.8961-.7476-1.0876-1.8016-1.9693-3.1868-2.6452-1.3656-.6853-2.9948-1.193-4.883-1.5239-1.8739-.3306-3.9681-.4936-6.2539-.4936-2.1899,0-10.0584,.048-12.4449,.1437-2.3959,.096-4.6914,.1343-6.8815,.1343-1.2649,0-2.4152-.024-3.4358-.0813-1.011-.053-1.9599-.12-2.8225-.1966,.2303,2.3818,.3836,4.7587,.4983,7.1259,.1153,2.3625,.1727,5.0656,.1727,8.1178v7.4802c0,3.0575-.0573,5.7553-.1727,8.1275-.115,2.3622-.268,4.6867-.4983,6.9629,.8626-.067,2.0079-.1009,3.4648-.1009h4.2264c1.9315,0,3.7717,.0097,5.5253,.053,1.7445,.024,9.2107,.048,11.2426,.048,2.2905,0,4.4948-.1823,6.6176-.5273,2.1419-.3403,4.0254-.9536,5.674-1.8402,1.6529-.8769,2.9758-2.0175,3.9774-3.4024,.9726-1.3946,1.4666-3.0861,1.4666-5.0554,.0003-1.6486-.4936-3.0481-1.4663-4.1981h0Z"/><path class="cls-1" d="M288.1786,71.5161l-24.4155-40.8381,22.6812,21.6173L330.3873,1.9495l-42.2087,69.5667Z"/><path class="cls-3" d="M108.4184,160.9073c-.8913-.0287-1.7779-.0334-2.6692-.0334s-1.7779,0-2.6692,.024c-.8913,.019-1.7826,.0527-2.6741,.0957v1.9982c0,1.9505,.019,3.6757,.072,5.1803,.048,1.5189,.1246,2.9905,.2253,4.4424-.4324-.0534-.8676-.0806-1.3033-.0814h-3.1675c-.4326,.0007-.8647,.0279-1.2939,.0814,.0957-1.4519,.1674-2.9281,.2154-4.4471,.048-1.5093,.077-3.2248,.077-5.18v-4.773c0-1.9456-.029-3.6661-.077-5.1853-.0486-1.5185-.1203-3.0361-.2154-4.5524,.393,.0573,.824,.1053,1.2939,.153,.4743,.048,1.0013,.0577,1.5859,.0577s1.1069-.0097,1.5816-.0577c.4743-.0477,.9056-.0957,1.3033-.153-.1208,1.5023-.2023,3.0075-.2443,4.5141-.043,1.5049-.053,3.2204-.053,5.1563,.6036,.0287,1.3419,.0527,2.1998,.067,.8579,.019,1.9169,.0237,3.1768,.0237,1.2652,0,2.2955-.0047,3.0958-.0237,.7956-.0146,1.5333-.0386,2.2189-.067,0-1.9359-.029-3.6515-.072-5.1563-.0531-1.5056-.1266-3.0104-.2203-4.5141,.393,.0573,.824,.1053,1.2936,.153,.4746,.048,.9969,.0577,1.5912,.0577,.5753,0,1.1023-.0097,1.5769-.0577,.4793-.0477,.9056-.0957,1.3083-.153-.1103,1.5286-.182,3.0525-.235,4.5524-.048,1.5289-.0623,3.2538-.0623,5.209v4.7683c0,1.9409,.0143,3.6611,.0623,5.1657,.053,1.5239,.1246,2.9998,.235,4.4424-.434-.0534-.8709-.0806-1.3083-.0814h-3.1681c-.4693,0-.9007,.0334-1.2936,.0814,.0957-1.4519,.1677-2.9232,.2203-4.4424,.0487-1.7263,.0727-3.4533,.072-5.1803v-1.9982c-.8963-.024-1.7829-.0573-2.6788-.0863h0Zm41.0538-5.1607c-.3737-1.1982-.8866-2.2282-1.5529-3.0718-.6756-.8433-1.4709-1.4809-2.4199-1.9453-.9539-.4506-1.9745-.6856-3.1054-.6856-1.1886,0-2.2569,.2923-3.1962,.8579-.9442,.5799-1.7492,1.3516-2.4008,2.3385-.6519,.9726-1.1502,2.1325-1.4856,3.4504-.345,1.3129-.5077,2.7265-.5077,4.2168,0,1.8785,.1963,3.4408,.5893,4.725,.3977,1.2889,.9442,2.3289,1.6152,3.1101,.6756,.781,1.4569,1.3416,2.3385,1.6962,.8913,.3546,1.8209,.5273,2.8082,.5273,1.0496,0,2.0512-.2253,3.0048-.671,.9583-.4453,1.7972-1.1163,2.5062-2.0316,.7137-.9059,1.2843-2.0655,1.7153-3.4648,.4316-1.4042,.6616-3.0622,.6616-4.979-.0003-1.5099-.2019-2.8755-.5706-4.0734h0Zm-19.4751-.0143c.642-1.5239,1.5529-2.8515,2.7172-3.9967,1.1693-1.1503,2.5878-2.0462,4.2504-2.6932,1.6579-.6613,3.5031-.9966,5.5397-.9966,1.8689,0,3.6134,.2683,5.2377,.7763,1.6102,.5176,3.0048,1.2843,4.198,2.3195,1.1886,1.0206,2.1372,2.3195,2.8272,3.8958,.6949,1.5862,1.035,3.4215,1.035,5.5253,0,1.7539-.3306,3.3878-1.0016,4.9117-.6707,1.5189-1.5862,2.8368-2.7745,3.9821-1.169,1.1263-2.5875,2.0129-4.2264,2.6405-1.6339,.6373-3.4408,.9536-5.4056,.9536-1.8399,0-3.5795-.235-5.1944-.6803-1.6392-.465-3.0575-1.2076-4.2554-2.2188-1.2029-1.0206-2.1565-2.3145-2.8658-3.8958-.6996-1.5669-1.0446-3.4598-1.0446-5.6596,0-1.7299,.3213-3.3545,.9633-4.8637h0Zm38.509-2.7028c-.0502-1.5185-.1237-3.0362-.2203-4.5524,.3977,.0573,.829,.1053,1.2986,.153,.4746,.048,.9966,.0577,1.5912,.0577,.5796,0,1.1069-.0097,1.5813-.0577,.4649-.0477,.9009-.0957,1.2986-.153-.1,1.513-.1767,3.0274-.23,4.5427-.043,1.5286-.0623,3.2491-.0623,5.185v4.773c0,1.3322,0,2.6212,.019,3.8624,.0143,1.2459,.0334,2.3098,.0574,3.2348,1.3276,0,2.6642-.0383,4.0061-.1007,1.3322-.067,2.6642-.1823,4.0301-.3353-.048,.2493-.0913,.4837-.1053,.6996-.024,.2013-.0383,.508-.0383,.8819,0,.364,.0143,.6613,.0383,.872,.0143,.2156,.0573,.388,.1053,.5223-.6279-.024-1.4136-.0383-2.3338-.053-.9249-.019-2.1948-.0287-3.81-.0287h-5.5637c-.527,0-.9296,.0094-1.1979,.0287-.278,.0146-.4983,.029-.6853,.053,.0957-1.4519,.1723-2.9281,.2203-4.4471,.048-1.5093,.072-3.2248,.072-5.18v-4.773c.0009-1.9459-.0231-3.6664-.0711-5.1853h0Zm31.2157,12.5409v2.1085c0,.6756,.005,1.2889,.0143,1.8545,.0143,.5656,.029,.9296,.029,1.0973,.345,.019,.7666,.029,1.2556,.048,.4983,.024,1.0923,.0334,1.8209,.0334,2.6358,0,4.725-.9009,6.2729-2.7025,1.5476-1.8019,2.3192-4.5334,2.3192-8.1658,0-1.4519-.1963-2.7505-.5797-3.9054-.3977-1.1406-.9296-2.1135-1.6389-2.9232-.6949-.8099-1.5385-1.4233-2.5208-1.8545-.9773-.436-2.0796-.6566-3.2872-.6566-.8529,0-1.5289,.024-2.0556,.053-.5273,.043-1.0496,.091-1.5862,.1247,0,.163-.0146,.5366-.029,1.0879-.01,.6341-.0148,1.2683-.0143,1.9025v11.8983h-.0003Zm-5.252-12.5409c-.0471-1.5187-.1222-3.0364-.2253-4.5524,.4023,.0573,.829,.1053,1.2939,.153,.4743,.048,.9966,.0577,1.5766,.0577,.7716,0,1.6342-.029,2.6069-.1053,.9583-.067,2.2185-.1053,3.7521-.1053,2.0126,0,3.8434,.187,5.4963,.546,1.6488,.3643,3.0622,.9823,4.2604,1.8402,1.1886,.872,2.1135,2.0365,2.7698,3.4981,.6566,1.4762,.9873,3.3068,.9873,5.5399,0,1.9409-.326,3.6994-.9682,5.2614-.6467,1.5669-1.5189,2.9232-2.6355,4.0301-1.1119,1.1069-2.3962,1.9599-3.8624,2.5445-1.4569,.594-3.0144,.8769-4.677,.8769-1.7536,0-3.2585-.005-4.4997-.0383-1.0764-.0268-2.1531-.0412-3.2298-.043h-1.5766c-.465,0-.8916,.0334-1.2939,.0814,.105-1.4519,.177-2.9281,.2253-4.4471,.043-1.5093,.0623-3.2248,.0623-5.18v-4.773c0-1.9453-.0193-3.6658-.0623-5.1847h0Zm35.1305,0c-.0502-1.5185-.1237-3.0362-.2206-4.5524,.4026,.0573,.8386,.1053,1.3036,.153,.46,.048,.987,.0577,1.5812,.0577,.5846,0,1.1166-.0097,1.5769-.0577,.4743-.0477,.9056-.0957,1.3083-.153-.0969,1.5163-.1705,3.0339-.2206,4.5524-.0528,1.7279-.0784,3.4566-.0767,5.1853v4.773c0,1.9552,.0287,3.6708,.0767,5.18,.048,1.5189,.1247,2.9951,.2206,4.4471-.4341-.0532-.8709-.0804-1.3083-.0814h-3.1581c-.465,0-.9009,.0334-1.3036,.0814,.096-1.4519,.1727-2.9281,.2206-4.4471,.048-1.5093,.0767-3.2248,.0767-5.18v-4.773c0-1.9459-.0287-3.6664-.0767-5.1853h0Zm19.5564-1.6389c-.043-1.0926-.0717-2.0702-.1007-2.9135,.6519,.1437,1.1786,.211,1.5812,.211,.388,0,.9203-.067,1.5766-.211,2.5445,2.8225,5.0607,5.6353,7.5525,8.3668,2.4918,2.7411,5.0367,5.5253,7.6628,8.3528v-6.4552c0-1.1596-.0097-2.2809-.0193-3.3831-.0094-1.1309-.024-2.1422-.0383-3.0814-.0085-.8084-.0277-1.6166-.0573-2.4246-.0383-.6759-.0717-1.1406-.1247-1.3752,.6613,.1437,1.1886,.211,1.5912,.211,.3973,0,.9199-.067,1.5766-.211-.1293,2.1372-.2253,4.0538-.3017,5.779-.0816,1.7155-.1343,3.3451-.1823,4.8737-.0461,1.5027-.0779,3.0058-.0957,4.5091-.0146,1.4856-.019,3.0768-.019,4.7587v4.2171c-.4743-.048-.9486-.0814-1.4376-.0814-.508,0-.9633,.0334-1.3659,.0814-4.9587-5.7837-10.0623-11.4417-15.3057-16.9686-.029,.6756-.0577,1.3562-.0623,2.0316-.0146,.6856-.029,1.3802-.029,2.0798v4.0828c0,1.3946,.0094,2.5922,.029,3.5795,.0047,.9776,.0187,1.8162,.0477,2.4921,.019,.6853,.0383,1.2316,.0623,1.6723,.024,.4316,.048,.7862,.0814,1.0303-.2873-.048-.5606-.0814-.8433-.0814h-.8053c-.5366,0-1.0639,.0334-1.6053,.0814,.048-.187,.1009-.8579,.187-2.0032,.0573-1.1503,.1293-2.5398,.2206-4.1931,.0767-1.6532,.1533-3.4408,.2107-5.3767,.0577-1.9359,.0816-3.7954,.0816-5.5827-.0006-1.6146-.0202-2.9612-.0679-4.0681h0Zm52.732-.2016c-1.1213-.6516-2.4872-.9726-4.1024-.9726-1.0733,0-2.1466,.235-3.2108,.6759-1.0683,.46-2.0076,1.1453-2.8322,2.0556-.8433,.9106-1.5142,2.0559-2.0269,3.4168-.508,1.3753-.7716,2.9808-.7716,4.8257,0,1.4042,.1914,2.7025,.5797,3.8817,.3786,1.1979,.9343,2.2282,1.6629,3.1005,.7333,.8819,1.6152,1.5622,2.6692,2.0556,1.0496,.484,2.2572,.7379,3.6085,.7379,.302,0,.6519-.024,1.035-.0623,.3732-.0259,.7455-.0627,1.1166-.1103,.3737-.0527,.7093-.115,1.006-.1963,.302-.0863,.5223-.1727,.6663-.259,.0383-.2827,.0573-.6373,.067-1.0543,.0097-.4216,.0193-.8916,.0193-1.4042,0-1.8929-.0386-3.2828-.1056-4.174-.0525-.6147-.102-1.2297-.1486-1.8449,.2256,.0477,.5463,.0957,.9396,.1247,.3784,.0383,.9343,.0527,1.6723,.0527,.8386,0,1.4616-.0143,1.8785-.0527,.3251-.0207,.6485-.0624,.9683-.1247-.048,.1914-.0913,.4936-.1247,.9153-.0399,.4832-.0687,.9673-.0863,1.4519-.0251,.5844-.0443,1.1691-.0577,1.7539-.0094,.618-.0187,1.2126-.0187,1.7682v1.1599c0,.5843,.0094,1.1263,.0187,1.629,.0053,.5033,.0336,.8579,.077,1.0639-1.5416,.4437-3.1082,.7958-4.6914,1.0546-1.5669,.2586-3.1341,.393-4.677,.393-2.0029,0-3.8578-.278-5.5587-.805-1.6819-.5129-3.1531-1.2846-4.3751-2.3002-1.2316-1.0159-2.1852-2.2522-2.8755-3.6898-.6996-1.4376-1.0349-3.0528-1.0349-4.8544,0-2.2092,.3596-4.1597,1.1069-5.8323,.7379-1.6676,1.7442-3.0665,3.0428-4.1738,1.3036-1.1026,2.8468-1.9409,4.6244-2.5015,1.7779-.5656,3.6948-.8483,5.7556-.8483,1.7826,0,3.3208,.187,4.6147,.556,1.3082,.3546,2.5829,.872,3.8528,1.5429-.188,.5971-.3701,1.1961-.5463,1.7969-.1826,.5868-.3313,1.1837-.4453,1.7875h-.4889c-.7351-1.0434-1.6925-1.9107-2.8032-2.5396h0Z"/></svg>