<?xml version="1.0" encoding="UTF-8"?><svg id="Layer_1" xmlns="http://www.w3.org/2000/svg" viewBox="0 0 400 175"><defs><style>.cls-1{fill:none;}.cls-2{fill:#414042;}.cls-3{fill:#8b169c;}</style></defs><g id="Brandmark"><g><path class="cls-3" d="M133.9962,39.1959c-6.0037,0-10.8877,4.9674-10.8877,11.0739s4.8841,11.0743,10.8877,11.0743,10.8877-4.9678,10.8877-11.0743-4.8841-11.0739-10.8877-11.0739Zm0,14.8234c-2.0332,0-3.6866-1.6816-3.6866-3.7494s1.6534-3.7496,3.6866-3.7496,3.6875,1.6825,3.6875,3.7496-1.6551,3.7494-3.6875,3.7494Z"/><path class="cls-3" d="M152.1845,59.1235c-1.6093-1.187-3.8614-.8214-5.0285,.8153-3.0593,4.2924-7.9781,6.8545-13.1597,6.8545s-10.1004-2.562-13.1597-6.8545c-1.1671-1.6376-3.4184-2.0032-5.0286-.8153-1.6093,1.1871-1.9691,3.4763-.8021,5.1144,4.4091,6.1862,11.5081,9.8794,18.9904,9.8794s14.5813-3.6932,18.9904-9.8794c1.1671-1.6376,.8081-3.9272-.8021-5.1144h0Z"/><path class="cls-3" d="M143.5965,77.8931c-3.0862,1.111-6.316,1.6737-9.6002,1.6737-15.8833,0-28.8052-13.1421-28.8052-29.2969s12.9218-29.297,28.8051-29.297c3.2826,0,6.5124,.5627,9.6002,1.6737,1.8758,.674,3.9324-.3256,4.5951-2.232,.6627-1.9073-.3193-3.9993-2.1951-4.6739-3.8605-1.3881-7.8984-2.0917-12.0004-2.0917-19.8545,0-36.0062,16.4285-36.0062,36.6209s16.1516,36.6208,36.0062,36.6208c4.1036,0,8.1416-.704,12.0013-2.0921,1.8749-.6745,2.8569-2.7671,2.1942-4.6744-.6628-1.9064-2.7211-2.9052-4.5951-2.2312Z"/></g><g><path class="cls-2" d="M206.5555,13.4277s1.4916,0,1.4916,1.5171v22.1297c0,6.4352,1.8006,8.3706,5.7095,8.3706,3.498,0,5.6065-1.9355,5.6065-8.3706V14.9447c0-1.5171,1.4415-1.5171,1.4415-1.5171h2.0574s1.4916,0,1.4916,1.5171v21.8683c0,7.272-2.933,13.602-10.597,13.602-7.4581,0-10.6991-6.1734-10.6991-13.602V14.9447c0-1.5171,1.4397-1.5171,1.4397-1.5171h2.0583Z"/><path class="cls-2" d="M241.4345,13.4277c7.2522,0,10.4413,4.2375,10.4413,9.9924,0,3.4006-1.5426,5.7545-3.1891,7.0102,3.0351,1.6741,4.1149,4.8134,4.1149,8.5276,0,5.5979-3.1372,11.091-10.8531,11.091h-9.6193V13.4277h9.1054Zm-4.1158,14.9624h3.2921c3.909,0,6.2243-1.7788,6.2243-4.97,0-3.2959-1.6975-4.97-5.4006-4.97h-4.1158v9.94h0Zm0,16.7413h4.6297c3.498,0,5.8643-2.1449,5.8643-6.0686,0-4.8134-2.7782-5.8597-6.2762-5.8597h-4.2178v11.9283h0Z"/><path class="cls-2" d="M273.5872,13.4277s1.1828,0,1.5435,1.2553l9.2585,33.6919c.4629,1.6741-1.2865,1.6741-1.2865,1.6741h-2.3655c-.5658,0-1.1835-.4184-1.4405-1.2557l-2.4175-10.0971h-10.802l-2.5723,10.0971c-.2569,.8373-.8747,1.2557-1.3886,1.2557h-2.4175s-1.6975,0-1.2355-1.6741l9.3624-33.6919c.3599-1.2553,1.4916-1.2553,1.4916-1.2553h4.2698Zm-2.1604,4.9701l-4.0639,15.3284h8.1788l-4.0119-15.3284h-.103Z"/><path class="cls-2" d="M295.5036,13.4277s1.5426,0,1.5426,1.5171V48.5319c0,1.5171-1.4916,1.5171-1.4916,1.5171h-2.0055s-1.4916,0-1.4916-1.5171V14.9447c0-1.5171,1.4397-1.5171,1.4397-1.5171h2.0064Z"/><path class="cls-2" d="M179.0837,69.0068s1.0288,0,1.5945,1.1509l5.7615,13.7068,5.7095-13.7068c.5148-1.1509,1.5954-1.1509,1.5954-1.1509h2.9313s1.5435,0,1.5435,1.5171v33.5872s0,1.5171-1.5435,1.5171h-1.9035s-1.5426,0-1.5426-1.5171l.5148-25.8444-4.5787,11.7192c-.4118,.9936-.8738,1.0982-1.4397,1.0982h-2.3153c-.6177,0-1.1316-.1047-1.5435-1.0982l-4.8347-11.9806,.5139,26.1058s0,1.5171-1.4916,1.5171h-2.0056s-1.4916,0-1.4916-1.5171v-33.5872s0-1.5171,1.4916-1.5171h3.0343Z"/><path class="cls-2" d="M225.4335,69.0068c1.4924,0,1.4924,1.4647,1.4924,1.4647v2.0401s0,1.4651-1.4405,1.4651h-13.2203v10.725h9.7742c1.4916,0,1.4916,1.4647,1.4916,1.4647v2.0401s0,1.4651-1.4406,1.4651h-9.8252v10.9863h13.1684c1.4924,0,1.4924,1.4642,1.4924,1.4642v2.0415s0,1.4642-1.4405,1.4642h-18.2091v-36.6213h18.1572Z"/><path class="cls-2" d="M244.9844,69.0068c7.6649,0,10.5962,5.2314,10.5962,11.8231v12.975c0,6.5909-2.9313,11.8231-10.5962,11.8231h-10.2881v-36.6213h10.2881Zm-5.2984,31.7041h5.2984c3.498,0,5.6074-2.1454,5.6074-6.906v-12.975c0-4.7606-2.1093-6.9055-5.6074-6.9055h-5.2984v26.7864h0Z"/><path class="cls-2" d="M267.4148,69.0068s1.5435,0,1.5435,1.5171v33.5872c0,1.5171-1.4916,1.5171-1.4916,1.5171h-2.0064s-1.4916,0-1.4916-1.5171v-33.5872c0-1.5171,1.4406-1.5171,1.4406-1.5171h2.0055Z"/><path class="cls-2" d="M291.13,69.0068s1.1828,0,1.5435,1.2553l9.2585,33.6923c.4629,1.6737-1.2866,1.6737-1.2866,1.6737h-2.3654c-.5659,0-1.1835-.4189-1.4406-1.2557l-2.4174-10.0975h-10.8021l-2.5723,10.0975c-.2569,.8369-.8747,1.2557-1.3887,1.2557h-2.4174s-1.6975,0-1.2355-1.6737l9.3623-33.6923c.3599-1.2553,1.4916-1.2553,1.4916-1.2553h4.2698Zm-2.1604,4.97l-4.0639,15.3281h8.1788l-4.012-15.3281h-.1029Z"/><path class="cls-2" d="M195.1323,133.1128c.1038,.6282-.051,1.4651-1.0279,1.7793l-1.8013,.4698c-.9767,.2623-1.9535-.2604-2.1085-1.1509-.3088-3.086-2.1084-5.0219-5.4014-5.0219-3.9609,0-5.7606,2.0933-5.7606,6.9578v13.5505c0,4.8653,1.7997,6.9051,5.7606,6.9051,3.4989,0,5.5564-2.0926,5.5564-6.9051,0-1.5179,1.4397-1.5179,1.4397-1.5179h2.0574s1.4916,0,1.4916,1.5179c0,6.6447-2.8803,11.875-10.5451,11.875-7.0981,0-10.751-4.97-10.751-11.875v-13.5505c0-6.9058,3.6529-11.9278,10.751-11.9278,6.688,0,9.6193,4.0284,10.3392,8.8938h0Z"/><path class="cls-2" d="M206.4007,124.586s1.5435,0,1.5435,1.5171v33.5863c0,1.5171-1.4916,1.5171-1.4916,1.5171h-2.0055s-1.4916,0-1.4916-1.5171v-33.5863c0-1.5171,1.4397-1.5171,1.4397-1.5171h2.0055Z"/><path class="cls-2" d="M233.8199,124.586c1.4916,0,1.4916,1.4642,1.4916,1.4642v1.9877s0,1.5179-1.4916,1.5179h-6.7901v30.1333c0,1.5171-1.4406,1.5171-1.4406,1.5171h-2.0574s-1.4916,0-1.4916-1.5171v-30.1333h-6.7382c-1.4916,0-1.4916-1.466-1.4916-1.466v-1.9868s0-1.5171,1.4916-1.5171h18.5179Z"/><path class="cls-2" d="M244.6755,124.586c.5659,0,1.1837,.4179,1.4406,1.2548l7.099,18.1017h.5139l6.3272-18.1017c.2569-.8368,.8747-1.2548,1.4405-1.2548h2.4694c.6168,0,1.8515,0,1.2856,1.6737l-12.0367,33.6919c-.4638,1.2548-.8747,1.2548-1.4406,1.2548h-2.3663c-.6178,0-1.8515,0-1.2857-1.6737l3.3432-9.3117h-.4629c-.411,0-.7709-.3669-.9257-.7849l-9.1565-23.1764c-.6169-1.4132-.051-1.6737,.9259-1.6737h2.8292Z"/></g><path class="cls-2" d="M184.8451,13.4277c7.664,0,10.597,5.2314,10.597,11.8231v12.9746c0,6.5918-2.933,11.8235-10.597,11.8235h-10.2873V13.4277h10.2873Zm-5.2986,31.7037h5.2986c3.4971,0,5.6065-2.1449,5.6065-6.9058v-12.9746c0-4.7606-2.1094-6.9054-5.6065-6.9054h-5.2986v26.7858h0Z"/></g><g id="Clear_Space"><rect class="cls-1" x="279.3717" y="2.9017" width="28.0149" height="28.0153"/><rect class="cls-1" x="92.6134" y="144.0826" width="28.015" height="28.0157"/><rect class="cls-1" x="92.6134" y="2.9017" width="28.015" height="28.0153"/><rect class="cls-1" x="279.3717" y="144.0826" width="28.0149" height="28.0157"/></g></svg>