<?xml version="1.0" encoding="UTF-8"?><svg id="Layer_1" xmlns="http://www.w3.org/2000/svg" xmlns:xlink="http://www.w3.org/1999/xlink" viewBox="0 0 400 175"><defs><style>.cls-1{fill:none;}.cls-2{fill:url(#linear-gradient);}.cls-3{clip-path:url(#clippath);}.cls-4{fill:#b61f3e;}</style><clipPath id="clippath"><path class="cls-1" d="M349.2852,39.4012c-4.35,5.1804-83.4749,99.443-84.1821,100.3386-.715,.8983-.4949,2.0924,1.2284,2.0924h76.946c1.3435,0,1.9171-.4872,2.3414-.9088,.4243-.4243,47.98-48.2862,51.9895-52.3169,.4741-.4767,.4663-1.2573,0-1.7287-7.5137-7.65-38.528-39.2585-46.5262-47.4087-.0209-.0236-.0471-.0471-.076-.068-.2227-.2305-.5579-.3563-.8983-.3563-.3116,0-.6234,.1154-.8223,.3563"/></clipPath><linearGradient id="linear-gradient" x1="-204.8181" y1="-175.9876" x2="-202.1988" y2="-175.9876" gradientTransform="translate(4484.1128 9820.8453) rotate(107.7377) scale(39.3205 -39.3205)" gradientUnits="userSpaceOnUse"><stop offset="0" stop-color="#ffcc72"/><stop offset=".1722" stop-color="#fcc56c"/><stop offset=".4138" stop-color="#f6b35e"/><stop offset=".6965" stop-color="#eb9546"/><stop offset="1" stop-color="#de6d26"/></linearGradient></defs><path class="cls-4" d="M16.2497,133.5234c0,5.6151-4.2349,8.0823-8.9571,8.0823H2.0389v-16.1565H7.4185c5.1383,0,8.8312,1.8438,8.8312,8.0742m-3.8369,0c0-3.7844-1.7496-5.0337-4.9943-5.0337h-1.8438v10.0727h1.1052c3.8157,0,5.7331-.8956,5.7331-5.0391"/><g><path class="cls-4" d="M26.3555,78.5771c-.6941,.0915-1.3095,.2147-1.8306,.3458-1.938,.5736-3.4073,1.5215-4.4079,2.8444-1.0083,1.3253-1.5086,2.6896-1.5086,4.0987,0,.6494,.1884,1.2308,.5736,1.7415,.393,.5134,.8906,.8748,1.506,1.0921,.068,.0158,.1467,.0316,.2513,.0447,.1023,.0158,.1911,.0313,.2907,.0498,.0891,.0158,.1702,.0235,.2567,.0235l.0313,.0209h.0549c1.6893,0,3.0486,.5605,4.0882,1.6816,1.0346,1.1261,1.5871,2.4302,1.6446,3.9284,.0656,1.4928-.4976,2.8548-1.6708,4.0933-2.7185,2.7081-6.1362,4.0411-10.2612,3.994-3.5853-.215-6.6076-1.5346-9.054-3.96-2.4383-2.4252-3.8053-5.4266-4.0802-9.0173-.0656-4.7534,1.621-8.5432,5.0519-11.3795l.7254,.9323c1.2519,1.7785,1.3855,3.6509,.393,5.6178-.7701,1.3959-1.1184,2.9568-1.0215,4.6878,.1911,2.1371,1.0003,3.9392,2.4356,5.4108,1.4404,1.4717,3.2317,2.3175,5.3661,2.551,2.7212,.1598,4.9812-.6601,6.7806-2.4332,.1834-.2173,.2332-.4374,.1386-.6601-.0915-.2278-.2853-.3536-.5552-.3849-.2829,0-.5343-.0054-.7648-.0104-.2382-.0104-.4085-.0262-.5185-.034-1.9642-.3587-3.5826-1.2779-4.8712-2.763-1.2832-1.4902-1.9275-3.232-1.9275-5.2275,0-3.2818,1.2886-6.1703,3.85-8.661,2.5745-2.4908,6.3876-3.8682,11.4475-4.1303h2.8104v12.7704c0,.8169,.2958,1.5241,.8852,2.1133,.5868,.5814,1.294,.8798,2.1058,.8798h.7045v5.1306h-.7045c-2.234,0-4.1589-.791-5.7355-2.3807-1.5951-1.5847-2.3807-3.5042-2.3807-5.7433v-7.2913c-.034,.0158-.068,.0235-.0996,.0235m-10.9105,28.6491c0-.8223-.2907-1.5241-.8775-2.1133-.5891-.5868-1.2964-.8852-2.119-.8852-.8196,0-1.5191,.2987-2.1082,.8852-.5945,.5892-.8852,1.291-.8852,2.1133,0,.8172,.2907,1.5218,.8852,2.119,.5891,.5814,1.2886,.8774,2.1082,.8774,.8223,0,1.5295-.2961,2.119-.8774,.5868-.5969,.8775-1.3017,.8775-2.119m6.7099,0c0-.8223-.288-1.5241-.8721-2.1133-.5814-.5868-1.2859-.8852-2.124-.8852-.8172,0-1.5241,.2987-2.1163,.8852-.5868,.5892-.8748,1.291-.8748,2.1133,0,.8172,.288,1.5218,.8748,2.119,.5918,.5814,1.299,.8774,2.1163,.8774,.8381,0,1.5426-.2961,2.124-.8774,.5841-.5969,.8721-1.3017,.8721-2.119"/><rect class="cls-4" x="34.4175" y="88.8371" width="5.9872" height="5.1333"/><rect class="cls-4" x="39.4721" y="88.8371" width="5.9896" height="5.1333"/><rect class="cls-4" x="44.532" y="88.8371" width="5.9976" height="5.1333"/><path class="cls-4" d="M56.2398,78.2274c0-1.4219,.4949-2.6398,1.4928-3.6404,.9979-1.011,2.2078-1.5137,3.6377-1.5137v12.7704c0,2.2418-.7934,4.1589-2.3781,5.746-1.5871,1.5871-3.5042,2.3781-5.7487,2.3781h-3.6196v-5.1306h3.6196c.8223,0,1.5191-.2907,2.1109-.8798,.5945-.5868,.8852-1.294,.8852-2.1136v-7.6163Zm-.322,24.147c-.5945,.5868-1.299,.8828-2.119,.8828-.8169,0-1.5191-.2958-2.1136-.8828-.5918-.5918-.8798-1.291-.8798-2.116,0-.8172,.288-1.5241,.8798-2.1109,.5945-.5894,1.2964-.8828,2.1136-.8828,.8199,0,1.5241,.2934,2.119,.8828,.5868,.5868,.8748,1.2937,.8748,2.1109,0,.825-.288,1.5244-.8748,2.116"/><path class="cls-4" d="M77.9643,73.0971c2.8861,.1574,5.2931,1.2284,7.2284,3.2161,1.9302,1.9851,2.8942,4.3867,2.8942,7.2048,0,2.8363-.9639,5.246-2.8942,7.2361-1.9353,1.9851-4.3423,3.0617-7.2284,3.2188h-11.9061c0-1.4272,.5081-2.6398,1.511-3.6377,1.0083-.9979,2.2105-1.4955,3.6169-1.4955h6.5057c1.4848-.0811,2.7317-.6285,3.7346-1.65,1.0083-1.0241,1.5241-2.2761,1.5346-3.7609-.0656-1.4562-.5656-2.6688-1.5268-3.6324-.9481-.969-2.1476-1.4902-3.6088-1.5662h-.2042c-.1389,0-.2907,.0054-.4636,.0185h-.0733c-.8145,.0653-1.5844,.2355-2.2916,.5107-2.0298,.6705-3.8107,.2332-5.3453-1.294l-.7176-.8196c2.3885-2.1318,5.0337-3.2999,7.9615-3.5018,.3169-.0313,.6339-.0471,.9508-.0471h.3223Z"/><path class="cls-4" d="M112.1682,90.3248c1.003,1.0057,1.5086,2.2209,1.5086,3.6458h-5.1333c-2.446,0-4.5283-.8721-6.254-2.6058-1.7311-1.726-2.5903-3.808-2.5903-6.2439,0-2.4463,.6652-4.7299,1.9854-6.8566,1.3226-2.1291,3.3026-3.8447,5.9189-5.141,2.627-1.3041,5.8876-1.9538,9.7898-1.9538v14.6687c0,.8277,.2856,1.5268,.8721,2.1136,.5787,.5894,1.2886,.8852,2.1187,.8852h1.2597v5.1333h-1.2597c-2.2391,0-4.1643-.7964-5.7564-2.3807-1.5924-1.5871-2.3858-3.5042-2.3858-5.7513v-8.9359c-4.9422,1.4431-7.4144,4.1852-7.4144,8.2182,0,1.0268,.364,1.8962,1.0921,2.6243,.7254,.7281,1.6082,1.0921,2.6243,1.0921,1.4299,.0158,2.6321,.5134,3.6246,1.4875m-4.0385-22.7773c-.5918,.5918-1.2913,.8852-2.1109,.8852-.8277,0-1.5268-.2934-2.1163-.8852-.5868-.5892-.8798-1.2937-.8798-2.1109,0-.8196,.2934-1.5295,.8798-2.1109,.5892-.5918,1.2886-.8852,2.1163-.8852,.8196,0,1.5191,.2934,2.1109,.8852,.5868,.5814,.8775,1.2913,.8775,2.1109,0,.8172-.2907,1.5215-.8775,2.1109m6.7176,0c-.5763,.5918-1.2886,.8852-2.1267,.8852-.8172,0-1.5191-.2934-2.1109-.8852-.5918-.5892-.8798-1.2937-.8798-2.1109,0-.8196,.288-1.5295,.8798-2.1109,.5918-.5918,1.2937-.8852,2.1109-.8852,.8381,0,1.5504,.2934,2.1267,.8852,.5868,.5814,.8775,1.2913,.8775,2.1109,0,.8172-.2907,1.5215-.8775,2.1109"/><rect class="cls-4" x="120.7025" y="88.8371" width="5.9949" height="5.1333"/><rect class="cls-4" x="125.7678" y="88.8371" width="5.9976" height="5.1333"/><rect class="cls-4" x="130.8355" y="88.8371" width="5.9896" height="5.1333"/><rect class="cls-4" x="135.9005" y="88.8371" width="5.9896" height="5.1333"/><path class="cls-4" d="M144.2356,102.3743c-.5892,.5868-1.299,.8828-2.1163,.8828-.8196,0-1.5295-.2958-2.1109-.8828-.5841-.5918-.8879-1.291-.8879-2.116,0-.8172,.3038-1.5241,.8879-2.1109,.5814-.5894,1.2913-.8828,2.1109-.8828,.8172,0,1.5268,.2934,2.1163,.8828,.5814,.5868,.8721,1.2937,.8721,2.1109,0,.825-.2907,1.5244-.8721,2.116m6.1049-24.147c0-1.4219,.5003-2.6398,1.4979-3.6404,.9979-1.011,2.2001-1.5137,3.6273-1.5137v12.7704c0,2.2418-.7937,4.1589-2.3807,5.746-1.5844,1.5871-3.4964,2.3781-5.7436,2.3781h-6.6365v-5.1306h6.6365c.8199,0,1.5295-.2907,2.1163-.8798,.5814-.5868,.8825-1.294,.8825-2.1136v-7.616l.0003-.0003Zm.613,24.147c-.5814,.5868-1.2886,.8828-2.1318,.8828-.8092,0-1.5215-.2958-2.1082-.8828-.5868-.5918-.8852-1.291-.8852-2.116,0-.8172,.2985-1.5241,.8852-2.1109,.5868-.5894,1.299-.8828,2.1082-.8828,.8435,0,1.5504,.2934,2.1318,.8828,.5841,.5868,.8721,1.2937,.8721,2.1109,0,.825-.288,1.5244-.8721,2.116"/><path class="cls-4" d="M177.619,91.2053c-1.8465,1.7024-4.0963,2.6243-6.757,2.7633h-11.9162c0-1.4195,.508-2.6348,1.5137-3.6327,1.0057-.9979,2.2156-1.4955,3.6246-1.4955h6.5003c1.4797-.0811,2.7263-.6285,3.7293-1.6553,1.0083-1.0188,1.5241-2.2707,1.5399-3.7558-.0656-1.4562-.571-2.6688-1.5191-3.6351-.9559-.969-2.1607-1.4902-3.6142-1.5635h-.2096c-.1413,0-.2934,.0054-.4663,.0185h-.068c-.8196,.0629-1.5897,.2355-2.2993,.5107-2.0167,.6705-3.8026,.2332-5.3429-1.299l-.7176-.8146c2.3912-2.1318,5.0441-3.2999,7.9696-3.5018,.3065-.0313,.6261-.0471,.9481-.0471h.3274c2.8757,.1571,5.2824,1.223,7.2179,3.203,1.9171,1.98,2.8807,4.3581,2.9019,7.1288v2.4096c0,.8277,.2907,1.5268,.8879,2.1136,.5892,.5918,1.2832,.8879,2.1082,.8879h1.0265v5.1279h-1.4431c-2.1371,0-3.952-.7466-5.4553-2.2525-.1753-.1676-.33-.3432-.4872-.5107"/><rect class="cls-4" x="184.0692" y="88.8371" width="5.9896" height="5.1333"/><rect class="cls-4" x="189.1262" y="88.8371" width="5.9923" height="5.1333"/><path class="cls-4" d="M208.4484,93.97c-2.1058-.0182-3.9284-.7516-5.4764-2.2024-1.5531,1.4666-3.3968,2.2024-5.5549,2.2024h-3.2239v-5.133h3.2239c.8354,0,1.5426-.2856,2.1267-.8697,.5763-.5814,.8721-1.2886,.8721-2.124v-21.3342c0-1.4272,.4976-2.6374,1.506-3.6377,1.0057-.9952,2.2156-1.4955,3.6219-1.4955v26.4675c0,.8354,.2907,1.5426,.8798,2.124,.5918,.5841,1.299,.8697,2.1136,.8697h1.5164v5.133h-1.6052Z"/><rect class="cls-4" x="209.1222" y="88.8371" width="5.9872" height="5.1333"/><rect class="cls-4" x="214.1822" y="88.8371" width="5.9949" height="5.1333"/><rect class="cls-4" x="219.2421" y="88.8371" width="5.9949" height="5.1333"/><rect class="cls-4" x="224.3017" y="88.8371" width="5.9872" height="5.1333"/><path class="cls-4" d="M236.0036,78.2274c0-1.4219,.4976-2.6398,1.4928-3.6404,1.0003-1.011,2.2105-1.5137,3.6377-1.5137v12.7704c0,2.2418-.7934,4.1589-2.3781,5.746-1.5924,1.5871-3.5042,2.3781-5.7487,2.3781h-3.6142v-5.1306h3.6142c.8223,0,1.5218-.2907,2.1109-.8798,.5945-.5868,.8852-1.294,.8852-2.1136v-7.6163Zm-.322,24.147c-.5918,.5868-1.2964,.8828-2.119,.8828-.8169,0-1.5191-.2958-2.1082-.8828-.5868-.5918-.8825-1.291-.8825-2.116,0-.8172,.2961-1.5241,.8825-2.1109,.5892-.5894,1.2913-.8828,2.1082-.8828,.8223,0,1.5268,.2934,2.119,.8828,.5892,.5868,.8852,1.2937,.8852,2.1109,0,.825-.2961,1.5244-.8852,2.116"/><path class="cls-4" d="M18.6128,135.0219v-9.5724h3.5435v9.1509c0,2.5429,.7934,4.4156,3.6902,4.4156,2.8181,0,3.5435-2.0453,3.5435-4.167v-9.3995h3.5382v9.5018c0,5.1097-3.2212,7.003-7.3068,7.003-5.0912,0-7.0083-3.1428-7.0083-6.9326"/><path class="cls-4" d="M48.6039,136.8674c0,3.0197-2.1893,4.7376-6.1547,4.7376h-6.3378v-16.1565h5.9135c3.9126,0,5.9374,1.7415,5.9374,4.2898,0,1.3435-.757,2.6896-2.5012,3.3655,2.2024,.5763,3.1428,2.1947,3.1428,3.7636m-8.9463-8.6294v3.7659h1.9693c1.5689,0,2.7394-.4714,2.7394-1.9696,0-1.1443-.8223-1.7967-2.3939-1.7967h-2.3151l.0003,.0003Zm5.3086,8.4568c0-1.147-.8172-2.0191-2.7159-2.0191h-2.5927v4.0883h2.4854c2.1738,0,2.8232-.9481,2.8232-2.0692"/><path class="cls-4" d="M65.5091,141.4101v.1965h-3.7713l-1.2937-3.8655h-5.9845l-1.2677,3.8655h-3.7138v-.1965l5.8116-15.96h4.4129l5.8062,15.96h.0003Zm-6.0104-6.5107l-2.0692-6.1625-2.0218,6.1625h4.0909Z"/><rect class="cls-4" x="67.6" y="125.448" width="3.5358" height="16.1565"/><path class="cls-4" d="M97.7935,125.4488v16.1565h-3.491v-10.0516c-.2305,.6285-.5474,1.3488-1.0948,2.4252l-2.7996,5.6309h-2.7132l-2.8417-5.6309c-.5501-1.0999-.8775-1.8229-1.0921-2.4252v10.0516h-3.4493v-16.1565h3.6377l3.6929,7.0817c.542,1.0739,1.0948,2.3178,1.3986,3.1899,.2698-.8956,.8459-2.1163,1.3933-3.1899l3.7215-7.0817h3.6377Z"/><path class="cls-4" d="M100.9777,135.0219v-9.5724h3.5435v9.1509c0,2.5429,.7987,4.4156,3.6902,4.4156,2.8205,0,3.5382-2.0453,3.5382-4.167v-9.3995h3.5462v9.5018c0,5.1097-3.2188,7.003-7.3148,7.003-5.0835,0-7.003-3.1428-7.003-6.9326"/><path class="cls-4" d="M132.8146,125.4488v16.1565h-3.8396l-5.0653-7.5295c-.6443-.9717-1.3408-2.0218-1.9693-3.3915v10.921h-3.4571v-16.1565h3.8134l5.5104,8.2761c.5736,.8721,1.121,1.6762,1.5662,2.6217v-10.8977h3.4413Z"/><rect class="cls-4" x="136.351" y="125.448" width="3.5462" height="16.1565"/><path class="cls-4" d="M142.6104,133.651c0-6.4609,3.6586-8.5563,7.7287-8.5563,2.0951,0,3.6875,.5057,5.3321,1.477l-1.3122,2.6136c-.8563-.542-2.1476-1.147-3.85-1.147-2.9621,0-4.2114,2.0218-4.2114,5.4135,0,3.6404,1.6735,5.4896,4.4916,5.4896,1.6211,0,2.6398-.4976,3.6404-1.0975l1.367,2.4931c-1.6735,.9952-3.3181,1.6187-5.3611,1.6187-5.712,0-7.8256-3.588-7.8256-8.305"/><rect class="cls-4" x="157.8581" y="125.448" width="3.5462" height="16.1565"/><path class="cls-4" d="M177.0111,130.6361c0,3.1926-2.1449,5.5599-6.4559,5.5599h-2.048v5.4082h-3.5382v-16.1565h5.6622c4.4106,0,6.3798,2.2499,6.3798,5.1881m-3.6377,.0942c0-1.6682-1.0739-2.4434-2.7865-2.4434h-2.0793v5.0677h1.6998c1.8909,0,3.1664-.6023,3.1664-2.6243"/><path class="cls-4" d="M192.269,141.4101v.1965h-3.7609l-1.299-3.8655h-5.9845l-1.2674,3.8655h-3.7242v-.1965l5.8166-15.96h4.4129l5.8062,15.96h.0003Zm-6.0104-6.5107l-2.0611-6.1625-2.0244,6.1625h4.0856Z"/><polygon class="cls-4" points="205.2335 138.5618 205.2335 141.6077 194.3566 141.6077 194.3566 125.4459 197.9028 125.4459 197.9028 138.5618 205.2335 138.5618"/><rect class="cls-4" x="207.3492" y="125.448" width="3.5462" height="16.1565"/><polygon class="cls-4" points="226.7481 128.464 221.709 128.464 221.709 141.6062 218.1732 141.6062 218.1732 128.464 213.0036 128.464 213.0036 125.4497 226.7481 125.4497 226.7481 128.464"/><polygon class="cls-4" points="242.6306 125.6483 236.7457 134.8722 236.7457 141.6083 233.1997 141.6083 233.1997 134.9745 227.3646 125.6483 227.3646 125.4491 231.3557 125.4491 234.9937 131.6826 238.7859 125.4491 242.6306 125.4491 242.6306 125.6483"/><g><path class="cls-4" d="M336.1699,63.2044l17.6127-20.9884s-8.2761-8.3467-8.5197-8.593c-.2513-.2463-.6181-.5787-1.5426-.5787h-34.9007c-1.0686,0-1.6211,1.3304-.8667,2.0823,7.1106,7.0713,28.217,28.0781,28.217,28.0781"/><g class="cls-3"><polyline class="cls-2" points="276.7972 .2501 234.5614 132.2917 385.6728 180.6271 427.9086 48.5855 276.7972 .2501"/></g></g></g></svg>