<?xml version="1.0" encoding="UTF-8"?><svg id="Layer_1" xmlns="http://www.w3.org/2000/svg" viewBox="0 0 400 175"><defs><style>.cls-1{fill:#ac8e62;}</style></defs><g><path class="cls-1" d="M155.6762,150.8699c-1.2368,0-2.4381-.079-3.6027-.2358-1.1658-.1573-2.1607-.358-2.9849-.6026l.6499-2.5665c.8654,.1925,1.7825,.358,2.7522,.4979,.9686,.1398,1.9796,.2094,3.0308,.2094,1.7114,0,2.9276-.2314,3.6497-.6941,.721-.4627,1.0821-1.209,1.0821-2.2392,0-.3317-.0413-.6415-.1238-.9299-.0825-.2879-.2373-.5455-.4642-.7725-.227-.227-.541-.4189-.9434-.5762-.4012-.1568-.9227-.2703-1.5612-.3405l-2.4737-.2879c-1.7526-.2094-3.0881-.7506-4.0051-1.624-.9182-.8729-1.3767-2.0073-1.3767-3.4049v-.2616c0-1.8505,.69-3.2037,2.0725-4.0595,1.3801-.8553,3.4732-1.2835,6.2781-1.2835,1.0924,0,2.1126,.0658,3.0617,.1968,.948,.1305,1.8856,.3273,2.8141,.5889l-.619,2.5408c-.7015-.1919-1.4844-.3493-2.3499-.4715-.8666-.1217-1.8249-.1831-2.876-.1831-1.6506,0-2.8462,.2007-3.5878,.602-.7428,.4019-1.113,1.0999-1.113,2.0956,0,.7857,.2361,1.3576,.7107,1.715,.4746,.358,1.2678,.6157,2.382,.7725l2.4117,.3405c.8242,.1228,1.5819,.2928,2.2731,.511,.69,.2182,1.2838,.5198,1.7778,.9036,.4952,.3844,.8769,.8734,1.1451,1.4667,.2671,.5938,.4012,1.3181,.4012,2.1734v.2621c0,3.7712-2.8038,5.6573-8.4113,5.6573h0Z"/><path class="cls-1" d="M172.0977,143.6675v6.9403h-3.8664v-18.6474h8.6601c1.1749,0,2.1745,.1398,2.9998,.4189,.8242,.2796,1.4993,.6678,2.0255,1.1657,.5262,.4979,.9124,1.0785,1.16,1.7414,.2476,.664,.3714,1.3883,.3714,2.174v.6283c0,1.799-.6087,3.1785-1.8249,4.1385-1.2173,.9601-2.9998,1.4404-5.3508,1.4404h-4.1747Zm0-2.5665h3.8033c1.238,0,2.1596-.2358,2.7682-.7073,.6075-.4715,.9124-1.2134,.9124-2.2261v-.6026c0-.9951-.2831-1.7502-.8505-2.2656-.5674-.5148-1.4684-.7725-2.7064-.7725h-3.9271v6.574h0Z"/><path class="cls-1" d="M195.4781,131.5678c1.7939,0,3.2623,.2094,4.4074,.6283,1.144,.4189,2.0461,1.0083,2.7052,1.7677,.6603,.7594,1.1188,1.663,1.3767,2.7108,.2579,1.0478,.3863,2.2091,.3863,3.4833v2.2524c0,1.2748-.1341,2.4404-.4023,3.4965-.2671,1.0566-.7313,1.9601-1.3916,2.7108-.6591,.7506-1.567,1.3357-2.7212,1.7545-1.1543,.4189-2.6078,.6289-4.3604,.6289-1.7733,0-3.2314-.21-4.3765-.6289-1.144-.4189-2.0461-1.0083-2.7052-1.7677-.6603-.7594-1.1188-1.663-1.3767-2.7108-.2579-1.0478-.3863-2.2085-.3863-3.4833v-2.2524c0-1.2742,.1387-2.4399,.4173-3.4965,.2785-1.056,.752-1.964,1.4225-2.7239,.6694-.7594,1.5715-1.3439,2.7064-1.7545,1.1337-.4101,2.5665-.6152,4.2985-.6152h0Zm.0309,16.7092c.7829,0,1.4787-.079,2.0874-.2358,.6075-.1573,1.1188-.454,1.5314-.8904,.4115-.4364,.7268-1.0346,.9434-1.794,.2155-.7594,.3244-1.7326,.3244-2.9202v-2.305c0-1.2046-.0986-2.1866-.2946-2.946-.196-.7599-.494-1.3532-.8964-1.7814-.4023-.4277-.9124-.7199-1.5303-.8773-.619-.1568-1.3412-.2358-2.1653-.2358-.7841,0-1.4844,.079-2.1034,.2358-.6179,.1573-1.1337,.4496-1.5463,.8773-.4126,.4282-.7268,1.0215-.9434,1.7814-.2155,.7594-.3244,1.7414-.3244,2.946v2.305c0,1.2046,.1032,2.1828,.3095,2.9334s.5147,1.3444,.9274,1.7809c.4126,.4364,.9227,.7331,1.5314,.8904,.6075,.1568,1.3239,.2358,2.1493,.2358h-.0001Z"/><path class="cls-1" d="M224.3309,137.9582c0,1.3093-.3553,2.401-1.066,3.2733-.7118,.8734-1.7481,1.4848-3.1087,1.8335l4.9484,7.5428h-4.1747l-4.5151-7.1761h-3.7116v7.1761h-3.8045v-18.6474h8.8458c1.1749,0,2.1802,.1442,3.0147,.4321,.8356,.2884,1.5154,.6771,2.0415,1.1657,.5262,.4891,.9124,1.0604,1.16,1.7156,.2465,.6547,.3703,1.3576,.3703,2.1082v.5762h0Zm-11.6278,2.8023h4.1128c1.1956,0,2.1034-.227,2.7224-.681,.6179-.454,.9274-1.1788,.9274-2.174v-.3668c0-1.9377-1.1646-2.9071-3.495-2.9071h-4.2676v6.1288h0Z"/><path class="cls-1" d="M243.97,131.9604l-.4333,2.6976h-6.4008v15.9498h-3.8664v-15.9498h-6.8352l.4023-2.6976h17.1333Z"/><path class="cls-1" d="M252.5052,150.8699c-1.2368,0-2.4381-.079-3.6027-.2358-1.1658-.1573-2.1607-.358-2.9849-.6026l.6499-2.5665c.8654,.1925,1.7824,.358,2.7522,.4979,.9686,.1398,1.9796,.2094,3.0308,.2094,1.7114,0,2.9276-.2314,3.6497-.6941,.721-.4627,1.0821-1.209,1.0821-2.2392,0-.3317-.0413-.6415-.1238-.9299-.0825-.2879-.2373-.5455-.4642-.7725s-.541-.4189-.9434-.5762c-.4012-.1568-.9227-.2703-1.5612-.3405l-2.4737-.2879c-1.7526-.2094-3.0881-.7506-4.0051-1.624-.9182-.8729-1.3767-2.0073-1.3767-3.4049v-.2616c0-1.8505,.6901-3.2037,2.0725-4.0595,1.3801-.8553,3.4732-1.2835,6.2781-1.2835,1.0924,0,2.1126,.0658,3.0617,.1968,.948,.1305,1.8856,.3273,2.8141,.5889l-.619,2.5408c-.7015-.1919-1.4844-.3493-2.3499-.4715-.8666-.1217-1.8249-.1831-2.876-.1831-1.6506,0-2.8462,.2007-3.5878,.602-.7428,.4019-1.113,1.0999-1.113,2.0956,0,.7857,.2361,1.3576,.7107,1.715,.4746,.358,1.2678,.6157,2.382,.7725l2.4117,.3405c.8242,.1228,1.5818,.2928,2.2731,.511,.6901,.2182,1.2838,.5198,1.7779,.9036,.4952,.3844,.8769,.8734,1.1451,1.4667,.2671,.5938,.4012,1.3181,.4012,2.1734v.2621c0,3.7712-2.8038,5.6573-8.4113,5.6573h0Z"/><path class="cls-1" d="M281.6995,150.8699c-1.8146,0-3.3196-.1793-4.5151-.5373-1.1967-.3575-2.1447-.8904-2.845-1.5972-.7015-.7073-1.191-1.5933-1.4695-2.6587-.2785-1.0648-.4173-2.2957-.4173-3.6928v-1.964c0-1.3099,.149-2.5013,.4482-3.5749,.298-1.0741,.8093-1.9909,1.5303-2.7502,.7222-.7594,1.6965-1.3488,2.923-1.7677s2.7568-.6289,4.5931-.6289c.8861,0,1.7469,.0614,2.5814,.1837,.8356,.1223,1.583,.2796,2.2421,.4715l-.6488,2.5402c-.4746-.1217-1.0362-.2314-1.6862-.3273-.6488-.096-1.3343-.1442-2.0564-.1442-1.0717,0-1.9842,.0877-2.7361,.2621-.7531,.1744-1.3721,.4842-1.8558,.9299-.4849,.4452-.8356,1.0604-1.0523,1.8461-.2155,.7857-.3244,1.7902-.3244,3.0118v1.7809c0,1.2051,.0974,2.1915,.2934,2.9597,.196,.7687,.5307,1.3707,1.0053,1.8072s1.1027,.7331,1.8868,.8904c.7829,.1573,1.7526,.2358,2.907,.2358,.5984,0,1.2781-.0301,2.0415-.0916,.7623-.0609,1.4844-.1442,2.1642-.2489l-.6179,2.6192c-.6809,.1398-1.4122,.2484-2.1963,.3273-.7829,.0784-1.5154,.1179-2.1951,.1179h0Z"/><path class="cls-1" d="M298.3067,131.5678c1.7939,0,3.2623,.2094,4.4074,.6283,1.144,.4189,2.0461,1.0083,2.7052,1.7677,.6603,.7594,1.1188,1.663,1.3767,2.7108,.2579,1.0478,.3863,2.2091,.3863,3.4833v2.2524c0,1.2748-.1341,2.4404-.4023,3.4965-.2671,1.0566-.7313,1.9601-1.3916,2.7108-.6591,.7506-1.567,1.3357-2.7212,1.7545-1.1543,.4189-2.6078,.6289-4.3604,.6289-1.7733,0-3.2314-.21-4.3765-.6289-1.144-.4189-2.0461-1.0083-2.7052-1.7677-.6603-.7594-1.1188-1.663-1.3767-2.7108-.2579-1.0478-.3863-2.2085-.3863-3.4833v-2.2524c0-1.2742,.1387-2.4399,.4173-3.4965,.2785-1.056,.752-1.964,1.4225-2.7239,.6694-.7594,1.5715-1.3439,2.7064-1.7545,1.1337-.4101,2.5665-.6152,4.2985-.6152h0Zm.0309,16.7092c.7829,0,1.4787-.079,2.0874-.2358,.6075-.1573,1.1188-.454,1.5314-.8904,.4115-.4364,.7268-1.0346,.9434-1.794,.2155-.7594,.3244-1.7326,.3244-2.9202v-2.305c0-1.2046-.0986-2.1866-.2946-2.946-.196-.7599-.494-1.3532-.8964-1.7814-.4023-.4277-.9124-.7199-1.5303-.8773-.619-.1568-1.3412-.2358-2.1653-.2358-.7841,0-1.4844,.079-2.1034,.2358-.6179,.1573-1.1337,.4496-1.5463,.8773-.4126,.4282-.7268,1.0215-.9434,1.7814-.2155,.7594-.3244,1.7414-.3244,2.946v2.305c0,1.2046,.1032,2.1828,.3095,2.9334s.5147,1.3444,.9274,1.7809c.4126,.4364,.9227,.7331,1.5314,.8904,.6075,.1568,1.3239,.2358,2.1493,.2358h-.0001Z"/><path class="cls-1" d="M319.8623,151.001c-1.6701,0-3.0456-.1667-4.1289-.4979-1.0821-.3317-1.9383-.8334-2.5665-1.5062-.6293-.6716-1.0672-1.5056-1.3148-2.5008-.2476-.9957-.3703-2.1564-.3703-3.4833v-11.0525h3.8652v10.8688c0,1.0478,.078,1.9212,.2315,2.6192,.1547,.6985,.4126,1.2572,.7737,1.6761,.3599,.4189,.8345,.7161,1.4225,.8904,.588,.1749,1.3239,.2621,2.2111,.2621,.8861,0,1.6243-.0872,2.2111-.2621,.588-.1744,1.0569-.4715,1.4076-.8904,.3496-.4189,.5926-.9776,.7268-1.6761,.1341-.698,.2006-1.5626,.2006-2.5929v-10.8951h3.8664v11.0783c0,1.3099-.1295,2.458-.3874,3.4444-.2579,.9864-.7061,1.8159-1.3446,2.4882-.6396,.6722-1.5108,1.1783-2.6135,1.5188-1.1039,.3405-2.5,.511-4.1908,.511Z"/><path class="cls-1" d="M336.5933,131.9604l9.5255,13.3049v-13.3049h3.5568v18.6474h-3.4021l-9.5255-13.3049v13.3049h-3.5569v-18.6474h3.4022Z"/><path class="cls-1" d="M363.4688,150.8699c-1.8146,0-3.3196-.1793-4.5152-.5373-1.1967-.3575-2.1447-.8904-2.8451-1.5972-.7015-.7073-1.191-1.5933-1.4695-2.6587-.2785-1.0648-.4172-2.2957-.4172-3.6928v-1.964c0-1.3099,.149-2.5013,.4482-3.5749,.298-1.0741,.8093-1.9909,1.5303-2.7502,.7221-.7594,1.6965-1.3488,2.923-1.7677s2.7568-.6289,4.5931-.6289c.8861,0,1.7469,.0614,2.5814,.1837,.8356,.1223,1.583,.2796,2.2421,.4715l-.6488,2.5402c-.4746-.1217-1.0362-.2314-1.6861-.3273-.6488-.096-1.3343-.1442-2.0564-.1442-1.0717,0-1.9842,.0877-2.7362,.2621-.7531,.1744-1.3721,.4842-1.8558,.9299-.4849,.4452-.8356,1.0604-1.0523,1.8461-.2155,.7857-.3244,1.7902-.3244,3.0118v1.7809c0,1.2051,.0974,2.1915,.2935,2.9597,.196,.7687,.5307,1.3707,1.0053,1.8072s1.1027,.7331,1.8867,.8904c.7829,.1573,1.7526,.2358,2.9069,.2358,.5984,0,1.2781-.0301,2.0415-.0916,.7623-.0609,1.4844-.1442,2.1642-.2489l-.6178,2.6192c-.6809,.1398-1.4122,.2484-2.1962,.3273-.7829,.0784-1.5154,.1179-2.1951,.1179h-.0001Z"/><path class="cls-1" d="M376.3024,150.6078h-3.8664v-18.6474h3.8664v18.6474Z"/><path class="cls-1" d="M385.2089,131.9604v15.9235h9.804l-.4333,2.7239h-13.2371v-18.6474h3.8664Z"/></g><path class="cls-1" d="M149.6331,114.8728v-46.6721c2.9068,.8792,7.3973,2.818,9.7743,4.8427v34.0798c2.6404,.4411,7.3973,.7045,11.799,.7045,5.4614,0,10.2183-.8792,12.243-2.377,2.9068-2.1135,4.8427-9.7743,4.8427-18.6694,0-14.5282-3.5226-20.6053-16.8193-20.6053h-16.029l-8.2765-1.0568v-7.2227h24.3055c21.5733,0,26.7713,10.1295,26.7713,29.3258,0,13.5603-4.4047,23.1599-8.3653,25.7145-2.9068,1.8501-10.393,3.4337-18.4948,3.4337-8.4541,0-16.4671-.6157-21.7509-1.4978h0Z"/><path class="cls-1" d="M271.0418,114.9615v-46.9355c3.0815,.8792,7.8384,2.9927,9.7743,4.8427v10.39h14.1789c7.572,0,10.9199-2.7292,10.9199-8.6287,0-5.8137-2.0277-8.7175-10.1265-8.7175h-18.9358l-8.2765-.7933v-7.2227h28.2661c13.5632,0,18.7582,5.3726,18.7582,15.7656,0,5.636-2.0247,9.422-2.818,10.6534l-11.8878,6.5182h-20.0784v16.3783c2.6404,.4411,8.013,.7933,12.4177,.7933,4.4905,0,10.3041-.3523,11.8878-1.3202,1.7613-.9709,3.1703-4.2271,3.1703-8.5429,0-2.9956-.6157-6.2518-2.0247-8.7175,2.2882,.0858,7.8384,1.4949,9.6855,2.2882,1.2344,1.8501,1.9389,5.1979,1.9389,7.7496,0,7.3115-3.3479,12.9475-6.3405,14.5312-2.818,1.4978-10.393,2.377-18.7582,2.377-7.3085,0-17.8761-.7045-21.7509-1.409h0Z"/><path class="cls-1" d="M336.0886,73.1322c2.4687-2.4658,6.5181-4.4017,10.4818-4.6681l-6.8704,26.0668h20.2561l-5.7249-20.3419-9.5996-13.4744,7.0451-4.5793,11.0975,13.2998,12.9446,45.9676h-10.0407l-3.6084-12.6811h-24.3055l-3.4337,12.6811h-9.9519l11.7102-42.2704h0Z"/><path class="cls-1" d="M384.1507,57.8965h9.7743v57.5061h-9.7743V57.8965Z"/><path class="cls-1" d="M234.2544,116.7772c-4.7305,0-8.6762-.5089-11.728-1.5107-3.0068-.9893-5.4109-2.5023-7.1463-4.4958-1.7429-1.998-2.9765-4.5231-3.6668-7.5059-.7008-3.0249-1.0567-6.6156-1.0567-10.6719V57.8965h9.9652v32.9637c0,3.2708,.2287,6.0418,.6809,8.2345,.4645,2.2496,1.2552,4.0802,2.3492,5.4418,1.1093,1.3866,2.5867,2.3817,4.3903,2.9566,1.7476,.5567,3.958,.8391,6.5697,.8391s4.8221-.2823,6.5686-.8391c1.806-.576,3.27-1.5733,4.3524-2.9634,1.0637-1.3639,1.8077-3.1979,2.2115-5.4498,.3909-2.1904,.5887-4.9295,.5887-8.1399V57.8965h9.9664v34.7785c0,3.9937-.3705,7.5411-1.1005,10.5433-.7195,2.9554-1.9822,5.468-3.7537,7.4671-1.7669,1.9946-4.2182,3.5224-7.2851,4.5402-3.1072,1.0292-7.113,1.5517-11.9059,1.5517h.0001Z"/><path class="cls-1" d="M68.1511,24.1769c-34.8513,0-63.2114,28.3592-63.2114,63.2134s28.3601,63.2176,63.2114,63.2176,63.2132-28.3468,63.2132-63.2176-28.3539-63.2134-63.2132-63.2134Zm34.3732,106.8684c-7.2095-.4305-13.6609-3.6812-18.289-8.661,6.6398-6.2674,10.7669-15.1022,10.7669-24.9254,0-2.4376-.2905-4.8376-.8005-7.192-2.2792-1.1379-4.8977-1.7021-7.8004-1.7856,1.0205,2.8776,1.5532,5.906,1.5532,8.9776,0,7.4356-3.0195,14.1925-7.8713,19.1155-2.02-3.7951-3.1668-8.1126-3.1668-12.6682,0-7.4419,3.0136-14.1977,7.8593-19.127,0,0,1.3183-1.4182,3.4024-2.9706,4.4437-3.1606,10.1276-5.1543,15.9833-5.1543,.3413,0,1.2867,.0292,1.8372,.0644,1.477,.0796,2.8025,.2933,4.0768,.5915-.0871-1.925-.1813-3.49-.3444-4.5574-2.2788-16.9299-16.881-29.7005-33.9465-29.7005-5.2162,0-10.1529,1.1739-14.5748,3.2576,1.5806,1.8994,2.9715,3.8643,4.1409,5.9061,3.2174-1.3473,6.7429-2.1066,10.4339-2.1066,12.1701,0,22.7281,8.1714,26.094,19.5523-17.8458,1.1776-32.0305,16.0738-32.0305,34.2446,0,6.1886,1.6767,12.0047,4.5786,17.0304,1.0711,1.9249,2.5205,3.8461,4.1875,5.7652,4.0505,4.5713,9.347,8.0432,15.3284,9.9196-7.7058,4.0599-16.4879,6.3543-25.7914,6.3543-30.6516,0-55.607-24.9421-55.607-55.5852,0-17.6791,8.3165-33.4385,21.2071-43.6343,7.2852,.3892,13.8155,3.6511,18.4933,8.6683-6.6231,6.2725-10.7669,15.1291-10.7669,24.9306,0,2.4591,.2638,4.8333,.7589,7.168,2.5012,1.4213,5.1308,1.9731,7.8676,1.8009-1.0102-2.8802-1.5644-5.9051-1.5644-8.9689,0-7.4306,2.9886-14.1977,7.8632-19.1228,2.0056,3.7981,3.1646,8.1033,3.1646,12.6889,0,6.4912-2.2788,12.4472-6.0942,17.1411l.0018,.0023c-.0092,.0119-.0186,.021-.0283,.0331-.0164,.0203-.0344,.0397-.0508,.0601-1.6498,2.1124-3.3181,3.5312-5.3898,4.9773l-.7313,.4938c-4.2822,2.8459-9.4164,4.5338-14.94,4.5338-.3722,0-1.2913-.0445-1.8339-.09-1.4223-.1594-2.8117-.3751-4.1608-.6568-.0085,1.1912,.132,3.0298,.3232,4.6292,2.2665,16.9393,16.9482,29.7166,34.0299,29.7166,5.2247,0,10.1709-1.1687,14.6133-3.2687-1.5714-1.8249-2.9575-3.8004-4.1547-5.9289-3.2548,1.392-6.7004,2.1294-10.4586,2.1294-12.1537,0-22.7445-8.153-26.104-19.5451,17.8686-1.1622,32.0364-16.0813,32.0364-34.227,0-6.1959-1.6975-12.0316-4.5867-17.0509-.917-1.8267-2.4198-3.7708-4.1582-5.7622-4.1313-4.6021-9.4611-8.1001-15.4966-9.9609,7.7117-4.0423,16.4735-6.346,25.7669-6.346,30.6555,0,55.5882,24.94,55.5882,55.5895,0,17.6833-8.2959,33.4727-21.215,43.655h0Z"/><path class="cls-1" d="M272.2114,32.5062v9.7787h13.1594v-12.8414h-3.0911v9.7787h-6.9992v-9.7787h-6.0066c-4.2512,0-6.4985,2.198-6.4985,6.3565v3.4224h-6.2328c-3.227,0-4.863-1.446-4.863-4.2973v-3.921l-3.0693-.7266v4.8608c0,4.6754,2.5877,7.1467,7.4832,7.1467h9.7513v-6.549c0-2.1733,1.1357-3.2297,3.4719-3.2297h2.8947Z"/><path class="cls-1" d="M301.3401,36.0349c0-4.3737-2.2009-6.5915-6.5412-6.5915h-4.9105v3.0628h5.2099c2.2069,0,3.28,1.098,3.28,3.3581v3.3578h-8.9629v3.0628h11.9602l-.0353-6.2499h0Z"/><path class="cls-1" d="M155.5934,42.2848h9.7513v-6.549c0-2.1733,1.1357-3.2297,3.4719-3.2297h2.8945v9.7787h26.4958v-5.6945c0-4.542-2.7119-7.1469-7.4407-7.1469h-7.9557v-1.1527h-3.0693v10.9314h-4.9609l.0002-9.7787h-6.0066c-4.2512,0-6.4985,2.198-6.4985,6.3565v3.4221h-6.2328c-3.2268,0-4.863-1.4457-4.863-4.2973v-3.9207c-1.0091-.5183-2.0352-.7047-3.0693-.7266v4.8605c0,4.6757,2.5877,7.1469,7.4832,7.1469h0Zm27.217-9.7786h8.1277c1.9159,0,4.1993,.6489,4.1993,3.7426v2.9733h-12.3271v-6.7159h0Z"/><rect class="cls-1" x="237.9904" y="23.999" width="3.0693" height="18.2858"/><polygon class="cls-1" points="216.7997 29.4434 213.7304 29.4434 213.7304 39.222 205.191 39.222 205.191 23.9991 202.1217 23.9991 202.1217 42.2848 216.8329 42.2848 216.7997 29.4434"/><path class="cls-1" d="M225.878,42.2848h8.8308V23.9991h-3.0693v15.2229h-5.6406v-9.7787h-3.0691v11.1178c0,2.4882-.8787,3.5501-2.9372,3.5501-.5855,0-1.113-.0327-1.7478-.0942v2.7625c.7129,.1217,1.4327,.2025,2.1541,.2025,3.1802,0,5.0216-1.5797,5.4791-4.6972Z"/><rect class="cls-1" x="159.206" y="44.9535" width="3.0693" height="3.0628"/><rect class="cls-1" x="154.6017" y="44.9535" width="3.0696" height="3.0628"/><rect class="cls-1" x="210.2446" y="44.9535" width="3.0693" height="3.0628"/><rect class="cls-1" x="186.6662" y="23.9991" width="3.0696" height="3.0628"/><rect class="cls-1" x="205.6404" y="44.9535" width="3.0696" height="3.0628"/><rect class="cls-1" x="257.9949" y="44.9535" width="3.0693" height="3.0628"/><rect class="cls-1" x="277.255" y="44.9535" width="3.0693" height="3.0628"/><rect class="cls-1" x="363.2251" y="44.9535" width="3.0693" height="3.0628"/><rect class="cls-1" x="253.3906" y="44.9535" width="3.0696" height="3.0628"/><path class="cls-1" d="M387.6416,30.8951c-4.5398,0-7.5897,2.7862-7.5897,6.9542h-.0031c0,.4521,.0497,.881,.1223,1.2978,.0041,.024,.0021,.0508,.0067,.0748h-5.7526c0-1.3491-.0165-2.658-.0165-3.4733,0-4.2636-3.3491-7.0183-8.5315-7.0183-2.0614,0-4.1771,.3808-6.658,1.1992l-.4465,.1466,.8512,2.8904,.4733-.1502c2.3228-.7364,3.8892-1.0237,5.5868-1.0237,3.5541,0,5.7615,1.508,5.7615,3.9346,0,.9333,.0167,1.9443,.0167,3.4947h-17.1156v-15.2228h-3.0703v15.2229h-3.2505c-2.4117,0-3.6869-1.3159-3.6869-3.8063v-5.9724h-3.0691v6.0582c0,2.6329-1.2478,3.9126-3.8147,3.9126-2.3395,0-3.793-1.4257-3.793-3.7208v-6.25h-3.0691v6.3785c0,2.2881-1.1849,3.4002-3.6221,3.4002h-2.7872v-9.7787h-3.0916v12.8416h-4.7127c-3.1274,0-4.713-1.4312-4.713-4.2546v-6.7412h-3.0916v6.9759c0,4.5014,2.7272,7.0822,7.4834,7.0822h8.1254v-3.0623h2.8082c2.2714,0,4.007-.8937,4.9927-2.5428,1.0103,1.6843,3.1382,2.7566,5.6423,2.7566,2.6133,0,4.4808-.7974,5.5651-2.3732,.8342,1.1615,2.2213,1.9027,3.9136,2.1009l34.5791,.0585c1.3041,1.4554,3.3028,2.3272,5.7827,2.3272,.0583,.0029,.1159,0,.1741,0,4.437,0,7.4187-2.7177,7.4187-6.7626v-.0424c0-4.1343-2.9817-6.9118-7.4187-6.9118h0Zm0,10.6543c-.7454,0-1.5887-.1517-2.2834-.4072-1.3388-.5635-2.1527-1.694-2.2048-3.2064-.0017-.0503-.0103-.0999-.0103-.1504,0-2.3249,1.7657-3.8273,4.4984-3.8273,2.6296,0,4.3286,1.494,4.3286,3.8273,0,2.2865-1.699,3.7639-4.3286,3.7639Z"/></svg>