<?xml version="1.0" encoding="UTF-8"?><svg id="Layer_1" xmlns="http://www.w3.org/2000/svg" viewBox="0 0 400 175"><defs><style>.cls-1{fill:#3c3d3f;}</style></defs><g id="Page-1"><path id="Shape" class="cls-1" d="M64.014,117.8095l-1.1383,7.5409H8.4292c2.2528-5.217,2.1105-8.1575,2.1105-11.928V61.5845c0-3.6519,.1423-6.8532-2.1105-11.928H61.5478l.0949,7.6832c-.996-.4031-1.8022-.7588-2.5374-1.0908-1.9682-.7351-4.4582-1.4228-7.043-1.3991H22.942v29.6421H57.1134l-1.6837,5.8336H22.942v29.6658h30.804c5.1933,.0949,10.3629-2.8456,10.3629-2.8456l-.1423,.6403c0,.0237,.0237,.0237,.0474,.0237h0Zm81.9544,7.5409c.7351-3.723,.7351-8.9875,.1423-13.2796l-4.8376-35.6653-26.417,48.9213h-5.0273l-26.8439-51.1266-5.217,38.6533c-.5691,4.4582-.7351,10.102-.2609,12.4971h-9.438c1.826-3.8653,2.2765-5.549,3.1302-11.9043l8.5369-63.7897h4.3396l31.3257,59.5213,31.302-59.5213h3.2725l8.8215,63.6475c.8774,6.3315,1.5414,8.1575,3.2962,12.0465h-16.1253Zm79.5119,0l-12.5682-27.7213h-25.2788l-12.4022,27.7213h-9.8649c3.1302-3.889,4.1973-5.6913,6.4027-10.5289l29.3101-65.1651h3.2962l28.8358,63.3392c3.0828,6.1893,4.5293,8.1101,8.9401,12.3548h-16.6707Zm79.0851,0l-12.5682-27.7213h-25.2788l-12.4022,27.7213h-9.8649c3.1302-3.889,4.1973-5.6913,6.4027-10.5289l29.3101-65.1651h3.2962l28.8595,63.3392c3.0828,6.1893,4.5293,8.1101,8.94,12.3548h-16.6944Zm71.6627,.0474c-7.5647-6.9007-17.3584-16.0541-29.6184-30.5669-3.5096-4.1025-5.9758-4.6242-7.5647-4.719v23.3105c0,3.7468,0,6.711,2.1342,11.928h-16.647c2.2528-5.217,2.1105-8.1575,2.1105-11.928V61.537c0-3.6519,.1423-6.8532-2.1105-11.928h16.315c11.1454,0,37.4913-.996,37.4913,20.7732,0,11.5011-9.1298,17.6904-19.8483,19.2555l-3.1776,.3083s34.7642,33.9817,36.2582,35.4519h-15.3427Zm-19.706-40.0998l-.0237,.0237c7.0192-2.6559,9.3906-9.3195,9.1535-14.9633-.2608-5.4304-2.7034-17.2398-26.583-16.2913v32.2743s13.3745,.7351,17.1212-.9011c.2134-.0949,.332-.1423,.332-.1423h0Zm-87.3848,7.043h20.4175l-10.2917-22.5991-10.1257,22.5991Zm-79.0613,0h20.4175l-10.2917-22.5991-10.1257,22.5991h0Z"/></g></svg>