<?xml version="1.0" encoding="UTF-8"?><svg id="Layer_1" xmlns="http://www.w3.org/2000/svg" xmlns:xlink="http://www.w3.org/1999/xlink" viewBox="0 0 400 175"><defs><style>.cls-1{fill:none;}.cls-2{clip-path:url(#clippath);}.cls-3{fill:#3e1e00;}.cls-4{fill:url(#radial-gradient);}</style><clipPath id="clippath"><path class="cls-1" d="M118.3498,170.2522c-1.4851-1.0619-2.2337-2.608-2.2378-4.5935,0-2.5063,1.2125-4.8823,3.2386-6.3471,.0082-.0081,.0244-.0163,.0326-.0244l.2848-.2034c2.2337-1.6315,3.735-4.032,4.3046-6.7987,.5696,2.7667,2.0709,5.1672,4.3372,6.8231,.0529,.0366,.1099,.0773,.1587,.1139l.0773,.057c.0529,.0407,.1058,.0814,.1668,.1342,1.9692,1.5013,3.0962,3.7716,3.1003,6.2291,.0081,4.2639-3.381,5.5781-5.8507,5.9687-.8178,.1261-1.5298,.1587-1.9896,.1587h-.0122c-2.2784,0-4.2273-.5208-5.6106-1.5176m-20.4204-2.608c-2.1767-.7039-3.8611-1.8024-4.8783-3.1776-1.0782-1.4688-1.3182-3.1735-.7039-5.0614,.769-2.3842,2.6609-4.268,5.037-5.037l.0448-.0122,.3295-.1058c2.6243-.8585,4.801-2.6812,6.1965-5.1387-.3174,2.8114,.3743,5.5618,2.018,7.8362,.0407,.0529,.0732,.1017,.1139,.1546l.0529,.0732c.0407,.061,.0732,.118,.1221,.1872,1.4037,2.0343,1.778,4.5406,1.0212,6.876-.8422,2.608-2.6446,3.6211-4.4714,3.91-.4231,.0692-.8544,.0976-1.2694,.0976-1.5135,0-2.9009-.3702-3.6129-.6022m46.2684,.297c-1.7373-.5533-2.9335-1.7902-3.5438-3.678-.7812-2.3801-.3621-5.0166,1.1107-7.0387,.0081-.0122,.0203-.0203,.0285-.0325l.2075-.2807c1.6193-2.2377,2.3069-4.9881,1.9896-7.7996,1.3956,2.4575,3.5723,4.2802,6.2332,5.1549,.0651,.0163,.1302,.0366,.1912,.057l.0855,.0285c.0651,.0244,.1302,.0488,.2075,.0773,2.3313,.8178,4.1053,2.6283,4.8702,4.9678,1.7576,5.395-3.8164,7.6775-5.5659,8.2471-.6876,.2238-1.367,.3906-2.014,.4923-.5411,.0854-1.07,.1302-1.5786,.1302-.7974,0-1.5461-.1099-2.2214-.3255m-31.4586-9.4189c-2.3883-.3743-4.0971-.9032-5.2607-2.4046-.0529-.0651-.1099-.1505-.179-.2319-1.4362-2.018-2.0099-4.5162-1.6071-7.055,.7974-4.9922,5.1956-8.4628,9.8054-7.7426,4.5935,.7324,7.6897,5.395,6.9085,10.3913-.4028,2.547-1.7332,4.7644-3.7106,6.2087-.0122,.0122-.0203,.0203-.0326,.0244v-.0041l-.2726,.1953-.0122,.0081c-.6144,.4109-1.2735,.651-1.9936,.7608-.3662,.061-.7486,.0854-1.1514,.0854-.7609,0-1.5786-.0936-2.4941-.236m16.7465-.6673c-.0692-.0488-.1505-.1058-.236-.1668-1.9936-1.4688-3.3119-3.674-3.7106-6.2087-.7812-4.9963,2.3273-9.6589,6.937-10.3913,4.5894-.7242,8.9795,2.7504,9.7728,7.7467,.4069,2.547-.1709,5.0654-1.6031,7.0509-.0041,.0081-.0163,.0203-.0285,.0325l-.1994,.2685c-.0041,0-.0081,.0041-.0081,.0122-1.1229,1.424-2.8155,1.9489-5.1753,2.3151-.9155,.1465-1.7414,.2441-2.5022,.2441-1.2246,0-2.2744-.2441-3.2468-.9032m-49.4094-15.1027c2.1442-.3418,4.15-1.3223,5.8181-2.8399-1.1677,2.5714-1.3589,5.4031-.5004,8.0722,.0203,.061,.0407,.1261,.061,.1831l.0244,.0854c.0203,.0732,.0366,.1343,.061,.2156,.708,2.3679,.2889,4.8701-1.1555,6.8597-3.3322,4.5935-8.4546,1.4281-9.9437,.3458-1.8594-1.3426-3.1247-2.9091-3.6618-4.5284-.5737-1.7332-.2726-3.4258,.891-5.0329,1.4688-2.0262,3.853-3.2346,6.3552-3.2346h.0407l.3458,.0041c.5615,0,1.1148-.0447,1.6641-.1302m83.4801,12.6005c-1.481-2.0262-1.8879-4.6627-1.1189-7.0387,.0081-.0163,.0163-.0244,.0203-.0407l.1099-.3296c.8422-2.6324,.6469-5.4601-.5167-8.0315,2.0872,1.9041,4.7155,2.966,7.527,2.9701,.061-.0041,.1261-.0041,.1872-.0041h.0936c.0733,.0041,.1383,.0081,.2197,.0122,2.4737,.061,4.7237,1.2328,6.168,3.2183,3.3403,4.5853-1.2531,8.4831-2.7463,9.5694-1.4932,1.0863-3.0067,1.7658-4.4348,1.9936-.3377,.0529-.6713,.0814-1.0009,.0854h-.0244c-1.8146,0-3.3241-.8056-4.4836-2.4046m-72.2181-3.7797c-2.1523-1.0985-3.6129-2.1238-4.2599-3.914-.0285-.0814-.057-.1749-.0936-.2726-.7446-2.3598-.5167-4.9149,.651-7.2015,2.3029-4.508,7.5595-6.4488,11.7136-4.3372,4.1459,2.1157,5.6472,7.5066,3.3607,12.0147-1.1677,2.3028-3.1166,3.9954-5.4479,4.7603l-.0366,.0122v-.0041l-.3214,.1017-.0122,.0041c-.1831,.0529-.3662,.0936-.5452,.1221-.2522,.0407-.4963,.057-.7446,.057-1.3142,0-2.6609-.5248-4.2639-1.3426m59.6176,1.1351c-.0814-.0244-.1749-.0529-.2685-.0854-2.3517-.7812-4.2883-2.4697-5.456-4.7603-2.2906-4.508-.769-9.903,3.381-12.0269,4.15-2.1075,9.3945-.1587,11.6973,4.3453,1.1758,2.2947,1.3996,4.8742,.651,7.2055-.0041,.0081-.0122,.0244-.0122,.0366h-.0041l-.1099,.3214v.0081c-.6307,1.7047-2.0791,2.7219-4.207,3.8082-1.2613,.6469-2.3639,1.1107-3.4299,1.2775-.2848,.0447-.5696,.0692-.8585,.0692-.4597,0-.9195-.0651-1.3833-.1994m-35.2099-13.4061c-.3703-.061-.7242-.2441-1.0172-.5493l-1.8472-1.8797c-.6673-.6876-.9643-1.8309-.7852-2.9986,.1953-1.1718,.8381-2.1686,1.6926-2.608l2.3476-1.2084c.7527-.3947,1.5664-.2604,2.1726,.3499l1.839,1.8879c.6103,.6225,.9114,1.6437,.8137,2.7016l-.0448,.2848c-.1871,1.1718-.8381,2.1726-1.6885,2.6121l-2.3476,1.2084c-.1994,.1017-.3987,.1668-.5981,.1994-.0895,.0163-.1871,.0244-.2767,.0244s-.179-.0081-.2604-.0244m15.2736-.1994l-2.3395-1.2247c-.8422-.4435-1.481-1.4403-1.6682-2.608-.1831-1.1718,.1302-2.315,.8015-3.0027l1.8553-1.8675c.6022-.6103,1.4159-.7364,2.1727-.3377l2.3354,1.2206c.7771,.4069,1.3711,1.2776,1.6071,2.3191l.0448,.2889c.1831,1.1718-.1221,2.3232-.7974,3.0027l-1.8553,1.8716c-.3011,.3051-.651,.4882-1.0212,.5452-.0854,.0122-.1709,.0163-.2563,.0163-.293,0-.594-.0692-.8788-.2238m-12.7348,1.0822l1.6844-.8666c1.2898-.6672,2.2622-2.1075,2.5348-3.7635,.0163-.0936,.0204-.1912,.0326-.2889l1.424-8.8411c.0163-.0692,.0163-.1342,.0285-.2034,.0041,.0529,.0041,.1058,.0122,.1587l1.4159,9.1219c.2604,1.6681,1.2165,3.1166,2.5103,3.7919l1.717,.9032c-2.8928,1.363-4.98,4.1215-5.6717,7.3805-.6876-3.2712-2.787-6.0338-5.6879-7.3927m-46.7282-14.6064c-1.9041,2.0872-2.962,4.7196-2.9701,7.5229,.0041,.0651,.0041,.1302,0,.1953l.0041,.0936c-.0041,.0651-.0041,.1383-.0122,.2197-.057,2.4697-1.2328,4.7196-3.2142,6.164-.8951,.651-1.7576,1.0009-2.5836,1.1311-3.4176,.5411-6.1111-2.6771-6.9818-3.8733-1.3508-1.8471-2.0709-3.735-2.0791-5.4398-.0122-1.8227,.7974-3.3403,2.4005-4.508,2.0221-1.481,4.6667-1.8919,7.0428-1.1189,.0081,.0081,.0244,.0163,.0366,.0203l.3296,.1099c1.0823,.3458,2.2011,.5208,3.32,.5208,1.5949,0,3.1979-.3499,4.7074-1.0375m111.0287,14.2198c-2.0302-1.4688-3.2386-3.8489-3.2305-6.3511v-.0407l.0041-.3499c-.0122-2.7626-1.07-5.3909-2.9741-7.4781,2.5714,1.1636,5.399,1.363,8.0722,.5045,.061-.0244,.1221-.0448,.1831-.0651l.0895-.0244c.0651-.0244,.1302-.0366,.2116-.0651,2.3639-.7039,4.8661-.2848,6.8597,1.1555,4.5935,3.3322,1.4281,8.4587,.3458,9.9478-1.3426,1.8553-2.9091,3.1247-4.5325,3.6577-.297,.1017-.5981,.1749-.8951,.2197-.2645,.0407-.5289,.0651-.7934,.0651-1.1433,0-2.2581-.3947-3.3404-1.1758m-82.4466-5.574c-.3336-.1709-.6062-.4557-.7974-.8341l-1.1677-2.3679c-.4272-.8503-.3581-2.0343,.179-3.084,.5452-1.0578,1.4647-1.8065,2.4086-1.9611l2.608-.4231c.8422-.1424,1.5746,.236,1.9489,1.0009l1.1758,2.3639c.3906,.7852,.358,1.839-.061,2.8236l-.1343,.2604c-.5411,1.0537-1.4647,1.8024-2.4127,1.9611l-2.5999,.4191h-.0163c-.1098,.0203-.2237,.0285-.3295,.0285-.2889,0-.5655-.0651-.8015-.1872m46.48,.1749l-2.5999-.4394c-.9439-.1627-1.8594-.9114-2.3964-1.9651-.5289-1.0538-.594-2.25-.1668-3.1044l1.188-2.3517c.3865-.7649,1.1229-1.1392,1.9651-.9968l2.5999,.4435c.8585,.1465,1.7007,.7934,2.2459,1.7088l.1302,.2604c.533,1.0578,.6022,2.25,.1709,3.1044l-1.1921,2.3557c-.1831,.3784-.4638,.6591-.8015,.83-.1505,.0814-.3255,.1342-.5045,.1627-.0936,.0163-.1953,.0244-.2929,.0244-.1139,0-.2319-.0081-.3458-.0325m-44.3358,1.4484l1.8716-.3011c1.4322-.236,2.8033-1.306,3.5722-2.7951,.0407-.0895,.0814-.179,.118-.2685l4.0971-7.9664c.0285-.061,.0488-.1261,.0773-.1871-.0041,.0529-.0244,.1017-.0326,.1546l-1.4728,9.1178c-.2685,1.6641,.1953,3.3403,1.2125,4.3778l1.3589,1.3915c-3.1736,.3987-6.0134,2.3801-7.6775,5.2689,.354-3.3281-.7852-6.6034-3.1247-8.7923m32.5612,3.5153l1.3345-1.3508c1.0212-1.0253,1.5013-2.6975,1.2491-4.3534-.0163-.0976-.0447-.1912-.0651-.2848l-1.367-8.8493c-.0122-.0732-.0285-.1383-.0448-.2034,.0204,.0488,.0407,.0976,.0651,.1424l4.1622,8.243c.7608,1.5013,2.1198,2.5917,3.556,2.8318l1.9204,.3255c-2.3313,2.1889-3.4624,5.4601-3.1166,8.776-1.6641-2.8969-4.5162-4.8823-7.6938-5.277m-61.7088-1.009c-1.7088-1.7088-2.783-3.141-2.844-5.037,.0041-.0448,0-.1017,0-.1465v-.1424c.0163-2.4778,1.0253-4.8376,2.8399-6.6522,3.5844-3.5722,9.1829-3.796,12.4866-.5004,3.2834,3.2915,3.0474,8.8818-.5208,12.4622-1.481,1.481-3.3241,2.4249-5.2729,2.7382-.4557,.0692-.9154,.1058-1.3752,.1099-.0081,.0041-.0122,.0041-.0163,0h-.0244v-.0041l-.3336-.0041h-.0163c-1.8146-.0732-3.2346-1.1311-4.923-2.8236m89.7091-.0163c-3.5682-3.5845-3.7919-9.1788-.5004-12.4866,3.2956-3.2793,8.8859-3.0474,12.4663,.5248,1.8268,1.8227,2.8358,4.1988,2.844,6.6482,.0041,.0122,.0041,.0285,0,.0407h-.0041v.3377s-.0041,.0041,0,.0081c-.0732,1.8187-1.1351,3.2346-2.8236,4.9271-1.5176,1.5135-2.8155,2.5266-4.4104,2.7829-.2034,.0325-.415,.0488-.6306,.061-.0407-.0041-.0977,0-.1465,0h-.1383c-2.4778-.0203-4.8376-1.0253-6.6563-2.844m-49.2833-13.5974c.1912-1.1718,.8381-2.1686,1.6885-2.608l2.3476-1.2084c.7609-.3947,1.5705-.2604,2.1686,.3499l1.8471,1.8838c.6673,.6876,.9643,1.839,.7771,3.0108l-.8544,5.2933c-.0814-.0936-.1587-.1912-.2482-.2848l-1.839-1.8838c-.5533-.5655-1.2206-.9114-1.9245-1.0212-.6957-.1099-1.4322,.0081-2.1197,.3662l-2.3476,1.2084c-.1221,.0651-.236,.1383-.354,.2156l.8585-5.3218h0Zm12.0187,1.3956c-.1831-1.1718,.1261-2.3273,.7974-3.0027l1.8634-1.8716c.5981-.6144,1.4078-.7364,2.1686-.3418l2.3354,1.2246c.8463,.4475,1.4932,1.4484,1.6722,2.6202l.8219,5.3014c-.1099-.0692-.2116-.1424-.3214-.1993l-2.3354-1.2206c-.6998-.3662-1.4403-.4882-2.1442-.3784-.6917,.1099-1.3548,.4516-1.9041,1.0049l-1.8594,1.8757c-.0936,.0936-.1831,.2034-.2685,.3133l-.8259-5.3258h0Zm-34.0056,.9236c1.0578-.1668,2.1157-.7079,2.9619-1.542,.0692-.0692,.1302-.1424,.1994-.2156l6.3511-6.3145c.0488-.0529,.0936-.1017,.1383-.1546-.0244,.0488-.0529,.0936-.0814,.1383l-4.2191,8.2145c-.7649,1.4973-.8422,3.2387-.1994,4.5365l.8666,1.7454c-3.145-.5981-6.4569,.4069-8.9347,2.6405,1.363-3.0556,1.2979-6.522-.2522-9.3294l1.8716,.2889c.1993,.0326,.3987,.0488,.6062,.0488,.2238,0,.4598-.0203,.6917-.057m59.6216,4.7115c.651-1.2938,.5899-3.0271-.1627-4.5284-.0448-.0854-.0977-.1709-.1464-.2522l-4.0442-7.9989c-.0285-.061-.0692-.1139-.1017-.1709,.0407,.0366,.0692,.0773,.1058,.1139l6.5098,6.5545c1.184,1.1921,2.8196,1.7983,4.2558,1.5909l1.9245-.2807c-1.542,2.7992-1.6071,6.2657-.2482,9.309-2.4859-2.2418-5.8059-3.2508-8.9469-2.6405l.8544-1.6966h0Zm-28.4438-9.7281l-1.8268-1.8634c1.2898-.354,2.3761-1.2124,3.0474-2.372,.6754,1.1677,1.778,2.0343,3.0718,2.3842l-1.7983,1.8187c-.6876,.6917-1.1229,1.6804-1.2572,2.7545-.1383-1.0578-.5615-2.0302-1.2369-2.7219m-20.1885-2.3395c.5452-1.0578,1.4688-1.8065,2.4127-1.9611l2.6039-.4231c.8463-.1424,1.5786,.236,1.9529,1.005l1.1717,2.3639c.4272,.8544,.3581,2.0465-.1871,3.0962l-2.4534,4.7766c-.0407-.118-.0814-.24-.1424-.3499l-1.1677-2.3639c-.3499-.7039-.8788-1.2409-1.5135-1.5624-.6266-.3214-1.3589-.4353-2.132-.3092l-2.6039,.4231c-.1342,.0244-.2726,.061-.4028,.0977l2.4615-4.7928h0Zm34.8763,4.0442c-.533-1.0578-.5981-2.25-.1668-3.1044l1.184-2.3557c.3906-.7649,1.1229-1.1311,1.9651-.9928l2.5999,.4435c.9439,.1627,1.8634,.9154,2.3964,1.9733l2.4249,4.7888c-.1261-.0366-.2441-.0692-.3703-.0855l-2.5999-.4435c-.7771-.1302-1.5135-.0204-2.1482,.3051-.6306,.3214-1.1555,.8463-1.5054,1.542l-1.188,2.3557c-.0651,.1221-.1099,.2522-.1627,.3865l-2.429-4.8132h0Zm17.072,.6144c-.8381-.8422-1.2654-1.9489-1.1189-2.9009l.4028-2.6039c.1302-.8463,.712-1.4281,1.5583-1.5501l2.608-.3865c.8625-.1261,1.8634,.2278,2.669,.9317l.2034,.2075c.8381,.8422,1.2653,1.9529,1.1188,2.8968l-.4028,2.608c-.0651,.4191-.2441,.7771-.5045,1.0416-.2604,.2604-.6103,.4313-1.0172,.4964-.0081,0-.0163,0-.0285,.0041l-2.608,.3824c-.118,.0163-.2319,.0244-.3581,.0244-.8544,0-1.7942-.4231-2.5225-1.1514m-63.9995,1.1189l-2.6039-.3987c-.4231-.0692-.7771-.2441-1.0456-.5126-.2604-.2645-.4394-.6184-.4964-1.0416l-.3824-2.608c-.1383-.9439,.2889-2.0465,1.127-2.8765,.8422-.8381,1.9489-1.2694,2.8968-1.1229l2.608,.3987c.8463,.1342,1.4241,.7202,1.5502,1.5664l.3865,2.608c.1221,.8625-.2319,1.8634-.9317,2.6649l-.2075,.2034c-.6103,.6062-1.3589,.9968-2.0872,1.1107-.1465,.0244-.293,.0366-.4394,.0366-.1261,0-.2523-.0122-.3743-.0285m21.4661-7.8972c.9683-.1546,1.8878-.59,2.6283-1.2572,.2807,1.3183,1.07,2.4819,2.1889,3.2142l-2.2744,1.1718c-.8707,.4475-1.5908,1.2531-2.0506,2.2336,.1993-1.0497,.0936-2.1075-.3336-2.9701l-1.1596-2.3313c.0692,0,.1343,.0041,.2034,.0041,.2685,0,.5371-.0244,.7974-.0651m21.5027,3.145l-2.3069-1.2084c1.1107-.7364,1.8878-1.8879,2.1645-3.1939,1.0009,.8992,2.3191,1.3793,3.6577,1.3183l-1.1474,2.2784c-.4435,.8747-.5492,1.9448-.3499,3.0108-.4516-.9602-1.1596-1.7576-2.018-2.2052m9.8054-4.565l-2.5673-.4353c.8259-1.0416,1.2084-2.3761,1.07-3.7065,1.2287,.5452,2.6324,.594,3.8814,.118l-.3865,2.5266c-.1505,.9683,.0814,2.0221,.6062,2.9742-.7364-.7771-1.6478-1.3142-2.6039-1.4769m-37.1262-4.1459c-.1424,1.3426,.2441,2.6934,1.0863,3.735l-2.5225,.415c-.9684,.1587-1.896,.6998-2.6446,1.4891,.5126-.9399,.7405-1.9733,.6021-2.9294l-.3824-2.5755c.5655,.2116,1.1636,.3133,1.7658,.3133,.712,0,1.4281-.1505,2.0953-.4475m12.8324,6.9289c-2.0221-.3174-3.4014-2.2215-3.0881-4.2436,.3214-2.0221,2.2256-3.4055,4.2477-3.084,2.018,.3174,3.4014,2.2255,3.084,4.2436-.2604,1.6275-1.5461,2.844-3.0881,3.084-.1831,.0285-.3784,.0447-.5737,.0447s-.3865-.0163-.5818-.0447m5.7164-3.084c-.3214-2.018,1.0619-3.9262,3.084-4.2436,2.018-.3214,3.9222,1.0619,4.2436,3.084,.3174,2.0221-1.0619,3.9262-3.084,4.2476-.1953,.0325-.3865,.0488-.5777,.0488-1.7943,0-3.377-1.3142-3.6658-3.1369m-28.5821,5.3991l-.3824-2.6121c-.1139-.7812-.4516-1.4484-.9521-1.9529-.5004-.5004-1.1636-.8341-1.9326-.9521l-2.608-.4028c-.1343-.0204-.2767-.0285-.4191-.0326l3.8286-3.796c.8422-.8381,1.9529-1.2653,2.9009-1.1189l2.5999,.3987c.8503,.1302,1.4322,.712,1.5542,1.5583l.3824,2.608c.1424,.9521-.2929,2.0587-1.1351,2.8928l-3.8041,3.7838c-.0081-.1302-.0122-.2522-.0326-.3743m51.8546-3.4502c-.8381-.8422-1.2613-1.9529-1.1189-2.9009l.4028-2.608c.1261-.8422,.712-1.424,1.5583-1.5461l2.608-.3865c.948-.1383,2.0587,.297,2.8928,1.1392l3.7838,3.8041c-.1302,.0041-.2522,.0081-.3784,.0285l-2.608,.3825c-.7771,.118-1.4484,.4557-1.9529,.9561-.5004,.4964-.8341,1.1596-.9521,1.9326l-.4028,2.608c-.0244,.1342-.0285,.2726-.0326,.415l-3.8001-3.8245h0Zm-65.4357-2.7097c.5737-.0895,1.1392-.2726,1.6804-.5411,.0895-.0448,.1749-.0977,.2563-.1465l7.9949-4.0442c.057-.0285,.118-.0651,.1749-.0977-.0366,.0326-.0814,.0692-.118,.1058l-6.5505,6.5057c-1.1921,1.184-1.7983,2.8196-1.5949,4.2599l.2848,1.9204c-2.7992-1.5379-6.2657-1.6071-9.309-.2482,2.2418-2.4819,3.2509-5.8019,2.6446-8.9469l1.6885,.8544c.6021,.297,1.2898,.4475,2.0058,.4475,.2807,0,.5574-.0244,.8422-.0692m80.9941,6.0948c.2197-1.4362-.3702-3.0677-1.5501-4.2639-.0692-.0651-.1465-.1261-.2197-.1953l-6.3145-6.3511c-.0488-.0488-.0976-.0936-.1505-.1383,.0488,.0244,.0936,.057,.1383,.0814l8.2105,4.2151c1.4973,.769,3.2387,.8463,4.5406,.2034l1.7454-.8666c-.5981,3.1451,.4069,6.4569,2.6405,8.9347-3.0555-1.367-6.5261-1.2979-9.3294,.2523l.2889-1.8716h0Zm-54.0232-5.3299c-1.8227-.9236-2.551-3.1613-1.6234-4.9881,.9358-1.8227,3.1695-2.551,4.9922-1.6193,1.8227,.9277,2.547,3.1654,1.6234,4.9881-.5655,1.0985-1.599,1.8024-2.7341,1.9773-.1871,.0326-.3784,.0488-.5737,.0488-.5696,0-1.1433-.1302-1.6844-.4069m23.9195-1.6193c-.9277-1.8227-.2034-4.0645,1.6234-4.9881,1.8187-.9317,4.0564-.2034,4.9882,1.6193,.9317,1.8268,.1993,4.0646-1.6234,4.9881-.354,.1831-.7242,.3011-1.1026,.358-.1871,.0326-.3824,.0488-.5696,.0488-1.3548,0-2.6568-.7405-3.3159-2.0262m-69.3497,10.2408l-.0407-.0122v-.0041l-.3174-.1058c0-.0041-.0041-.0041-.0081-.0041-1.7088-.6306-2.726-2.075-3.8123-4.2069-1.0985-2.1523-1.6722-3.8449-1.1474-5.6676,.0285-.0814,.057-.179,.0855-.2807,.7852-2.3476,2.4737-4.2802,4.7644-5.4438,4.504-2.2906,9.899-.773,12.0269,3.381,2.1035,4.15,.1546,9.3904-4.3494,11.6932-.948,.4842-1.9448,.8097-2.9538,.9683-.4883,.0773-.9846,.118-1.4688,.118-.948,0-1.8797-.1464-2.7789-.4353m112.5667-.651c-4.504-2.3029-6.4447-7.5595-4.3331-11.7176,2.1197-4.1419,7.5066-5.6472,12.0187-3.3566,2.2988,1.1677,3.9913,3.1166,4.7562,5.4438l.0122,.0407h-.0041l.1017,.3174c0,.0081,.0041,.0081,.0041,.0122,.4964,1.7536-.0733,3.4258-1.1636,5.5578-1.0985,2.1523-2.1238,3.6129-3.9181,4.2558-.0733,.0326-.1709,.061-.2685,.0936-.4394,.1424-.891,.2482-1.3426,.3173-.4842,.0773-.9643,.118-1.4484,.118-1.5013,0-3.0108-.3662-4.4145-1.0822m-53.1241-12.3361c-.5655-.0895-1.0822-.3499-1.4972-.7649-.5167-.5167-.8015-1.2002-.8015-1.9326,0-1.5054,1.2246-2.73,2.73-2.73,.7283,0,1.42,.2848,1.9367,.8015,.5126,.5167,.7974,1.2002,.7974,1.9285,0,1.363-1.0009,2.4941-2.3028,2.6975-.1383,.0285-.2848,.0366-.4313,.0366h-.0407c-.1302,0-.2604-.0122-.3906-.0366m5.7775-1.2979c-.651-.3336-1.1351-.8992-1.3589-1.5949-.4679-1.4281,.3214-2.9701,1.7576-3.4421,.6917-.2238,1.4281-.1668,2.0831,.1627,.6469,.3336,1.1311,.8951,1.3548,1.5908,.4679,1.4322-.3214,2.9783-1.7536,3.4461-.1383,.0407-.2807,.0773-.4231,.1017-.1424,.0203-.2807,.0325-.4231,.0325-.4272,0-.8463-.1017-1.2369-.297m-12.7714,.1546c-.1383-.0448-.2767-.1017-.4028-.1709-.5127-.2563-.9236-.6673-1.1881-1.184-.3295-.651-.3906-1.3915-.1668-2.0831,.4679-1.4363,2.014-2.2256,3.4461-1.7576,.6957,.2197,1.2572,.7039,1.5908,1.3548,.3336,.655,.3865,1.3914,.1627,2.0872-.3296,1.009-1.1921,1.7007-2.1767,1.8553-.1424,.0204-.2848,.0326-.4272,.0326-.2766,0-.5574-.0448-.8381-.1342m47.8755,2.7626c-1.0578-.5411-1.8065-1.4647-1.9651-2.4127l-.4191-2.6039c-.1424-.8463,.236-1.5746,1.0009-1.9529l2.3639-1.1718c.7812-.3865,1.8431-.358,2.8236,.0611l.2563,.1342c1.0578,.5411,1.8065,1.4647,1.961,2.4086l.4272,2.6039c.0692,.4231,.0041,.8096-.1627,1.1474-.1709,.3336-.4557,.6103-.8381,.7974l-2.3598,1.1718c-.2319,.1139-.4883,.1912-.7609,.236-.1627,.0244-.3336,.0366-.5045,.0366-.594,0-1.2287-.1546-1.8227-.4557m-83.9968,.1627l-2.3557-1.188c-.3784-.1912-.6632-.4679-.83-.8056-.1749-.3336-.2238-.7242-.1546-1.1433l.4394-2.6039c.1587-.9358,.9114-1.8512,1.9651-2.3883,1.0538-.5371,2.2459-.5981,3.1003-.1709l2.3557,1.1921c.7649,.3824,1.1352,1.1148,.9968,1.961l-.4476,2.5958c-.1424,.8666-.7893,1.7047-1.7047,2.25l-.2604,.1302c-.4028,.2075-.83,.3418-1.2409,.4028-.1993,.0325-.3946,.0488-.5859,.0488-.4638,0-.9073-.0895-1.2776-.2807m14.8952-6.4691l.4354-2.5673c1.0416,.83,2.3761,1.2084,3.7106,1.066-.5533,1.2328-.5981,2.6365-.1221,3.8896l-2.5266-.3865c-.9724-.1505-2.0221,.0814-2.9742,.5981,.7771-.7324,1.3142-1.6478,1.4769-2.5999m54.5318-1.5339c.8707-.1383,1.6926-.4964,2.3842-1.0538l.4109,2.5226c.1587,.9683,.7039,1.896,1.4891,2.6405-.9317-.5086-1.9692-.7365-2.9294-.6022l-2.5714,.3865c.4638-1.2491,.4109-2.6365-.1343-3.8611,.1831,.0204,.3703,.0326,.5533,.0326,.2685,0,.537-.0244,.7974-.0651m38.8472,2.1767c1.6926-.2726,3.3037-.9276,4.7318-1.957,.0488-.0407,.1017-.0814,.1546-.118l.0692-.0488c.0651-.0407,.118-.0733,.1871-.1221,2.0384-1.4037,4.5447-1.7739,6.8841-1.0213,5.395,1.7454,3.971,7.6002,3.4014,9.3538-.7039,2.1767-1.8024,3.8652-3.1776,4.8783-1.4728,1.0782-3.1695,1.3142-5.0573,.7039-2.3883-.7731-4.2721-2.6609-5.041-5.037-.0041-.0163-.0082-.0326-.0122-.0407l-.1017-.3336c-.8666-2.6242-2.6894-4.801-5.1427-6.1965,.4435,.0488,.8869,.0733,1.3264,.0733,.6022,0,1.1962-.0448,1.778-.1343m-144.8593,6.0826c-.712-2.1767-.8178-4.1907-.297-5.8141,.5533-1.7373,1.7902-2.9294,3.674-3.5478,2.3842-.7771,5.0207-.354,7.0387,1.1148,.0163,.0081,.0244,.0203,.0366,.0285l.2807,.2115c2.2377,1.6112,4.9881,2.3029,7.7996,1.9855-2.4575,1.3996-4.2802,3.5763-5.155,6.2372-.0163,.061-.0366,.1261-.057,.1912l-.0285,.0773c-.0285,.0732-.0488,.1342-.0773,.2115-.8219,2.3313-2.6283,4.1093-4.9678,4.8701-.3743,.1221-.7405,.2075-1.0904,.2645-.3133,.0488-.6184,.0732-.9073,.0732h-.0041c-3.9751,0-5.753-4.39-6.2453-5.9036m57.6321-3.5234c-1.4484-1.4484-1.4484-3.8001,0-5.2485,1.4444-1.4484,3.796-1.4444,5.2445-.0041,1.4444,1.4484,1.4444,3.8041,0,5.2485-.5778,.5737-1.2938,.9236-2.0424,1.0416-.1912,.0285-.3865,.0448-.5859,.0448-.948,0-1.896-.3662-2.6161-1.0822m39.7749,0c-1.4444-1.4484-1.4444-3.8042,0-5.2526,1.4484-1.4403,3.8041-1.4444,5.2526,.0041,1.4444,1.4444,1.4444,3.8001,0,5.2485-.5778,.5696-1.2979,.9195-2.0384,1.0375-.1953,.0285-.3906,.0448-.5859,.0448-.9521,0-1.9-.3662-2.6283-1.0822m-5.1753-2.5755c-.7202-.1139-1.3508-.5004-1.782-1.0904-.887-1.2206-.6184-2.9335,.6021-3.8205,.59-.4272,1.3101-.5981,2.0343-.4842,.7202,.1139,1.3548,.5004,1.7861,1.0944,.8829,1.2165,.6103,2.9294-.6103,3.8163-.118,.0814-.24,.1587-.3702,.2238-.2563,.1302-.5249,.2197-.8015,.2645-.1424,.0203-.2848,.0285-.4272,.0285s-.2889-.0082-.4313-.0326m-26.2263-.5004c-.1221-.0895-.2319-.179-.3296-.2807-.4068-.4069-.6713-.9276-.7649-1.4972-.1139-.7242,.057-1.4444,.4923-2.0384,.8829-1.2206,2.5999-1.4891,3.8123-.6022,.5899,.4231,.9805,1.0619,1.0944,1.7821,.1139,.7201-.057,1.4444-.4882,2.0343-.4435,.6103-1.0904,.9805-1.7821,1.0904-.1424,.0203-.2889,.0325-.4354,.0325-.5533,0-1.1148-.1709-1.599-.5208m-22.7762,4.0646l.4435-2.6039c.1302-.7771,.0163-1.5176-.3092-2.1482-.3173-.6306-.8422-1.1555-1.542-1.5054l-2.3517-1.188c-.1221-.061-.2563-.1099-.3865-.1586l4.8132-2.4331c1.0578-.533,2.25-.5981,3.1003-.1668l2.3557,1.188c.769,.3824,1.1392,1.1188,.9968,1.9651l-.4435,2.5958c-.1627,.9439-.9195,1.8675-1.9733,2.3964l-4.7888,2.4208c.0326-.1221,.0692-.24,.0855-.3621m69.1178-2.0953c-1.0578-.5452-1.8065-1.4688-1.9651-2.4127l-.4191-2.608c-.1383-.8422,.236-1.5746,1.0009-1.9489l2.3639-1.1718c.8585-.4313,2.0465-.358,3.1003,.1871l4.7766,2.4493c-.118,.0447-.236,.0854-.354,.1464l-2.3598,1.1718c-.708,.3458-1.2369,.8747-1.5624,1.5054-.3214,.6306-.4394,1.363-.3092,2.136l.4231,2.5999c.0244,.1383,.061,.2767,.0977,.4069l-4.7928-2.4615h0Zm18.2763-9.1625l1.3914-1.3589c.4028,3.1735,2.3801,6.0093,5.2689,7.6775-3.3281-.354-6.6075,.7812-8.7882,3.1247l-.3092-1.8716c-.236-1.4322-1.3019-2.8033-2.7911-3.5722-.0895-.0448-.179-.0814-.2685-.1221l-7.9664-4.089c-.061-.0325-.1221-.0529-.1871-.0854,.0529,.0081,.1017,.0285,.1546,.0366l9.1178,1.4728c.3092,.0529,.6184,.0733,.9277,.0733,1.3345,0,2.6039-.4598,3.4502-1.2857m-102.3422-1.3752l1.3467,1.3386c1.0294,1.0212,2.6975,1.4973,4.3575,1.245,.0936-.0122,.1872-.0407,.2848-.061l8.8493-1.3711c.0692-.0122,.1342-.0326,.2034-.0407-.0488,.0204-.1017,.0407-.1465,.061l-8.239,4.1663c-1.5013,.7608-2.5917,2.1198-2.8318,3.556l-.3255,1.9163c-2.1889-2.3354-5.4641-3.4665-8.776-3.1166,2.8968-1.6682,4.8823-4.5121,5.277-7.6938m67.4863,3.8692c-1.2165-.8829-1.4932-2.5999-.6022-3.8164,.4231-.5899,1.0619-.9765,1.7821-1.0944,.7201-.1099,1.4444,.061,2.0343,.4923,1.2165,.887,1.4891,2.5958,.6021,3.8163-.0895,.118-.1831,.2278-.2807,.3296-.4069,.4028-.9276,.6713-1.5013,.7609-.1424,.0244-.2889,.0366-.4353,.0366-.5737,0-1.127-.179-1.599-.5248m-35.0797-.6225c-.0814-.118-.1587-.24-.2238-.3743-.2604-.5045-.354-1.0822-.2604-1.6559,.1139-.7202,.5004-1.3508,1.0904-1.782,1.2206-.8829,2.9335-.6144,3.8164,.6021,.4313,.59,.6062,1.3101,.4883,2.0343-.1139,.7202-.5004,1.3548-1.0904,1.7861-.3581,.2604-.7649,.4191-1.1758,.4842-.1424,.0204-.2848,.0326-.4272,.0326-.8463,0-1.6804-.3906-2.2174-1.127m-8.9144,.3336c-.9276-1.8187-.2034-4.0564,1.6234-4.9881,1.8187-.9277,4.0605-.1994,4.9881,1.6193,.9277,1.8228,.2034,4.0646-1.6193,4.9922-.3621,.179-.7283,.3011-1.1026,.358-.1912,.0326-.3865,.0488-.5818,.0488-1.3508,0-2.6527-.7405-3.3078-2.0302m51.7489,1.6234c-1.8227-.9277-2.551-3.1695-1.6193-4.9922,.9236-1.8187,3.1613-2.547,4.9922-1.6193,1.8187,.9317,2.547,3.1695,1.6152,4.9922-.5574,1.0944-1.5949,1.7983-2.726,1.9773-.1912,.0326-.3865,.0488-.5777,.0488-.5696,0-1.1433-.1343-1.6844-.4069m-56.6068-6.5627l1.2043-2.3069c.7364,1.1066,1.8878,1.8838,3.1979,2.1564-.9032,1.005-1.3793,2.3232-1.3182,3.6658l-2.2785-1.1514c-.8788-.4394-1.9489-.5492-3.0148-.3499,.9643-.4557,1.7617-1.1555,2.2093-2.014m62.0506-.1505c1.3223-.2726,2.4819-1.0619,3.2183-2.1849l1.1718,2.2744c.4475,.8707,1.2531,1.5827,2.2296,2.0506-1.0456-.1994-2.0994-.0977-2.966,.3336l-2.3354,1.1555c.0529-1.3305-.4231-2.6324-1.3183-3.6292m-9.4066-.1709c-1.4322-.4638-2.2214-2.0099-1.7536-3.4421,.2238-.6957,.7039-1.2613,1.3589-1.5908,.6469-.3336,1.3874-.3906,2.0831-.1627,1.4362,.4638,2.2214,2.0099,1.7536,3.4421-.0448,.1424-.0977,.2726-.1668,.4028-.2604,.5126-.6713,.9236-1.188,1.184-.2645,.1383-.5371,.2278-.8219,.2726-.1342,.0203-.2726,.0285-.4109,.0285-.2889,0-.5737-.0448-.8544-.1342m-42.2812-1.7739c-.0448-.1383-.0773-.2807-.1017-.4231-.0895-.5655,0-1.1433,.2644-1.66,.3336-.651,.8951-1.1311,1.5949-1.359,1.4281-.4638,2.9701,.3255,3.438,1.7536,.2238,.6957,.1668,1.4322-.1627,2.0872-.3296,.651-.8992,1.1311-1.5908,1.3548-.1383,.0448-.2767,.0814-.4191,.1017-.1424,.0244-.2807,.0366-.4231,.0366-1.1514,0-2.2256-.7364-2.5999-1.8919m69.2399,4.4551c-1.1677-.1871-2.1686-.8381-2.608-1.6885l-1.2084-2.3435c-.3947-.7609-.2604-1.5746,.3499-2.1767l1.8838-1.8431c.6266-.6103,1.6437-.9032,2.7016-.8097l.2929,.0448c1.1677,.1912,2.1686,.8422,2.608,1.6885l1.2043,2.3435c.1953,.3824,.2604,.769,.2034,1.1392-.061,.3702-.2482,.7201-.5493,1.0172l-1.8838,1.8431c-.4231,.4109-1.0131,.6835-1.6804,.7893-.2116,.0326-.4231,.0448-.6428,.0448s-.4475-.0122-.6713-.0488m-95.7714-.8096l-1.8675-1.8594c-.3051-.297-.4883-.651-.5493-1.0212-.0529-.3703,.0163-.7609,.2116-1.1351l1.2247-2.3395c.4394-.8422,1.4362-1.481,2.608-1.6641,1.1677-.1831,2.3151,.1221,2.9986,.7974l1.8716,1.8553c.6103,.6022,.7364,1.4159,.3377,2.1767l-1.2206,2.3273c-.4068,.7812-1.2816,1.3752-2.3191,1.6152l-.2889,.0407c-.2278,.0366-.4476,.057-.6672,.057-.9277,0-1.7861-.3092-2.3395-.8503m7.0265-.118l1.2247-2.3354c.3662-.6998,.4842-1.4362,.3743-2.1401-.1099-.6958-.4476-1.3589-1.0009-1.9082l-1.8756-1.8553c-.0977-.0936-.2034-.1831-.3133-.2726l5.3259-.8259c1.1717-.1831,2.3273,.1261,3.0027,.8015l1.8756,1.8553c.6062,.6021,.7324,1.4159,.3336,2.1726l-1.2206,2.3354c-.4476,.8463-1.4403,1.4851-2.608,1.6722h-.0122l-5.3014,.8219c.0692-.1058,.1383-.2116,.1953-.3214m79.6108-.533c-1.1718-.1912-2.1726-.8422-2.6121-1.6885l-1.2043-2.3476c-.3947-.7608-.2604-1.5705,.354-2.1686l1.8797-1.8472c.6876-.6673,1.839-.9683,3.0108-.7771l5.2933,.8544c-.0936,.0814-.1953,.1587-.2848,.2441l-1.8838,1.8431c-.5655,.5533-.9073,1.2165-1.0212,1.9204-.1099,.6998,.0041,1.4322,.3662,2.1238l1.2084,2.3476c.061,.118,.1383,.236,.2156,.354l-5.3218-.8585h0Zm-105.6256,6.2617c-.0122-.0081-.0244-.0203-.0325-.0244v-.0041l-.2685-.1994c-.0041,0-.0041-.0041-.0081-.0081-1.4322-1.1229-1.9489-2.8155-2.3232-5.1753-.3784-2.3842-.4069-4.1744,.6551-5.749,.057-.0692,.1139-.1505,.1749-.236,1.4688-1.9896,3.674-3.3119,6.2087-3.7106,4.9922-.7812,9.6548,2.3313,10.3913,6.937,.7242,4.5894-2.7504,8.9754-7.7426,9.7769h-.0163c-.5249,.0814-1.0538,.1221-1.5786,.1221-1.9855,0-3.8855-.594-5.4601-1.7292m129.7159,1.6071c-4.9963-.8015-8.4668-5.1956-7.7385-9.8054,.7283-4.5935,5.3909-7.6897,10.3872-6.9085,2.547,.4028,4.7644,1.7332,6.2087,3.7106,.0081,.0081,.0204,.0163,.0285,.0325h-.0041l.1912,.2726c0,.0041,.0041,.0081,.0081,.0081,1.0131,1.5135,.9806,3.2834,.6103,5.6432-.3784,2.3883-.9032,4.0971-2.4086,5.2607-.0651,.0529-.1464,.1099-.2278,.1749-1.1799,.8463-2.5266,1.3915-3.9547,1.6193-.5004,.0732-1.0049,.1139-1.5135,.1139-.5249,0-1.0538-.0448-1.5868-.1221m-92.7769-13.3003c-.3214-2.018,1.0578-3.9222,3.084-4.2395,2.018-.3255,3.9222,1.0619,4.2436,3.08,.3214,2.018-1.0659,3.9222-3.0881,4.2436-.1953,.0325-.3865,.0448-.5818,.0448-1.7902,0-3.3688-1.306-3.6577-3.1288m58.6492,3.084c-2.018-.3214-3.4055-2.2256-3.0881-4.2436,.3255-2.0221,2.2296-3.4055,4.2476-3.084,2.018,.3174,3.4054,2.2256,3.084,4.2436-.2563,1.6275-1.542,2.8399-3.084,3.0881-.1871,.0285-.3784,.0407-.5696,.0407-.1953,0-.3906-.0122-.5899-.0448m-8.6296-8.0559c0-.7242,.2807-1.4159,.8015-1.9326,.5167-.5167,1.2002-.7974,1.9285-.8015,1.5095,.0041,2.7382,1.2287,2.7382,2.7382-.0041,.1465-.0163,.2889-.0366,.4353-.0936,.5615-.358,1.0822-.769,1.4932-.4109,.415-.9317,.6754-1.5013,.7649-.1383,.0203-.2807,.0366-.4313,.0366-1.5054,0-2.73-1.2287-2.73-2.7341m-42.6107-.0203c0-.1465,.0122-.2929,.0325-.4353,.0936-.5615,.354-1.0822,.769-1.4972,.5126-.5126,1.2002-.7934,1.9285-.7934,1.5095,0,2.7301,1.2206,2.7301,2.726,.0041,.7283-.2807,1.42-.7975,1.9326-.415,.415-.9276,.6795-1.4972,.7649-.1424,.0244-.2848,.0366-.4354,.0366h-.0041c-1.5054,0-2.726-1.2287-2.726-2.7341m-10.4726,1.2857c-.6958-.6876-1.6804-1.1229-2.7545-1.2613,.0529-.0041,.1099-.0122,.1627-.0244,.9968-.1587,1.9041-.5696,2.5551-1.2084l1.8634-1.8268c.358,1.2857,1.2165,2.3801,2.3761,3.0474-1.1677,.6713-2.0343,1.778-2.3842,3.0759l-1.8187-1.8024Zm64.8173-1.2735c1.1677-.6754,2.0302-1.782,2.3801-3.0759l1.8187,1.8024c.6998,.6876,1.6844,1.1188,2.7585,1.2572-1.0619,.1383-2.0343,.5615-2.7219,1.2369l-1.8634,1.8268c-.354-1.2857-1.2125-2.3801-2.372-3.0474m21.5067,3.9995c-.6632-1.2898-2.1035-2.2581-3.7553-2.5307-.1017-.0163-.1953-.0244-.2929-.0325l-8.8411-1.4281c-.0692-.0122-.1383-.0122-.2034-.0244,.0529-.0041,.1058-.0041,.1546-.0163l9.1259-1.4159c.0081,0,.0163,0,.0203-.0041,1.6559-.2563,3.0962-1.2165,3.7716-2.4981l.9032-1.7251c1.3589,2.8968,4.1215,4.9841,7.3845,5.6757-3.2712,.6876-6.0419,2.7829-7.4008,5.6879l-.8666-1.6885h0Zm-111.8913-3.9995c3.2671-.6917,6.0378-2.7829,7.3927-5.6839l.8707,1.6803c.6591,1.2938,2.1035,2.2622,3.7554,2.5348,.0977,.0163,.1912,.0204,.2929,.0326l8.8411,1.4281c.0651,.0122,.1343,.0163,.1994,.0203-.0488,.0082-.1017,.0122-.1546,.0204l-9.1259,1.4118c-1.6641,.2563-3.1125,1.2206-3.7919,2.5103l-.8992,1.721c-1.363-2.8928-4.1256-4.9841-7.3805-5.6758m131.8845,4.622c-.0081-.0122-.0122-.0244-.0203-.0326l-.2034-.2889c-1.6315-2.2296-4.0361-3.735-6.8027-4.3005,2.7667-.5696,5.1793-2.075,6.8271-4.3453,.0366-.0488,.0733-.1017,.1139-.1546l.0529-.0733c.0448-.057,.0895-.1099,.1383-.1709,1.5013-1.9651,3.7716-3.0962,6.2291-3.1003,5.6758-.0041,6.1233,6.0012,6.1274,7.8443,.0041,2.2866-.5208,4.2314-1.5176,5.6228-.8585,1.2002-2.0343,1.9204-3.5031,2.1523-.3499,.0529-.712,.0814-1.0863,.0814h-.0081c-2.5063,0-4.8823-1.2124-6.3471-3.2346m-156.0806-4.622c0-2.2906,.5249-4.2354,1.5176-5.6228,1.0619-1.481,2.608-2.2378,4.5975-2.2378,2.5063,0,4.8783,1.2124,6.3471,3.2386,.0122,.0122,.0163,.0244,.0203,.0366l.2034,.2807c1.6274,2.2296,4.0361,3.735,6.8027,4.3046-2.7667,.5696-5.1753,2.075-6.8272,4.3372-.0366,.057-.0732,.1058-.1139,.1627l-.0529,.0692c-.0448,.057-.0854,.1139-.1343,.1749-1.2491,1.6315-3.027,2.6853-5.0003,2.9986-.4028,.0692-.8137,.0977-1.2328,.1017h-.0081c-5.6635,0-6.1151-6.0053-6.1192-7.8443m55.911-.7364c-2.0221-.3174-3.4054-2.2214-3.0881-4.2436,.3255-2.018,2.2255-3.4054,4.2436-3.084,2.0262,.3174,3.4095,2.2256,3.0881,4.2436-.2563,1.6274-1.542,2.844-3.0881,3.084-.1872,.0285-.3824,.0448-.5737,.0448s-.3906-.0163-.5818-.0448m52.4812-3.084c-.3214-2.0221,1.0619-3.9262,3.084-4.2436,2.0221-.3214,3.9262,1.066,4.2436,3.084,.3214,2.0221-1.066,3.9222-3.084,4.2436-.1953,.0285-.3906,.0448-.5859,.0448-1.7902,0-3.3688-1.306-3.6577-3.1288m-6.4528-1.9123c-.2238-.6917-.1709-1.4322,.1668-2.0831,.3296-.651,.8951-1.1311,1.5908-1.3589,1.4322-.4638,2.9742,.3255,3.4421,1.7536,.0448,.1464,.0773,.2889,.1017,.4272,.0895,.5615,0,1.1433-.2645,1.66-.3336,.651-.8992,1.1351-1.5908,1.3589-.1424,.0448-.2807,.0773-.4191,.1017-.1424,.0203-.2807,.0325-.4231,.0325-1.1514,0-2.2296-.7364-2.6039-1.8919m-38.7699,1.7373c-1.4322-.4638-2.2215-2.0099-1.7576-3.442,.0488-.1424,.1058-.2767,.1668-.4028,.2644-.5086,.6713-.9236,1.1962-1.188,.6469-.3336,1.3874-.3906,2.0791-.1627,1.4362,.4639,2.2215,2.0099,1.7576,3.4421-.2238,.6958-.708,1.2572-1.3589,1.5868-.2604,.1383-.533,.2238-.8137,.2685-.1424,.0244-.2848,.0326-.4231,.0326-.2848,0-.5696-.0448-.8463-.1343m56.7329,1.5868l-1.8716-1.8594c-.6103-.5981-.7324-1.4118-.3377-2.1686l1.2246-2.3354c.4475-.8503,1.4484-1.4891,2.6202-1.6722l5.3014-.8178c-.0692,.1017-.1424,.2034-.1953,.3173l-1.2287,2.3313c-.3662,.7039-.4842,1.4403-.3743,2.1442,.1099,.6957,.4475,1.3548,1.0009,1.9041l1.8757,1.8594c.0976,.0977,.2075,.1872,.3173,.2685l-5.3299,.83c-.2238,.0325-.4435,.0488-.6632,.0488-.9317,0-1.7861-.3011-2.3395-.8503m-74.3012,.8259l-5.2933-.8585c.0977-.0773,.1953-.1546,.2889-.24l1.8838-1.8431c.5655-.5493,.9114-1.2206,1.0172-1.9245,.1139-.6957-.0041-1.4281-.3621-2.1197l-1.2084-2.3435c-.0651-.1261-.1383-.2441-.2156-.354l5.3218,.8544c1.1677,.1912,2.1727,.8381,2.608,1.6885l1.2084,2.3476c.3946,.7609,.2604,1.5705-.354,2.1686l-1.8838,1.8431c-.4191,.4109-1.009,.6835-1.6763,.7893-.2116,.0326-.4272,.0529-.6429,.0529-.2278,0-.4557-.0244-.6917-.061m83.4393-2.254l-1.8675-1.8594c-.6143-.6021-.7364-1.4159-.3418-2.1726l1.2206-2.3354c.4069-.7731,1.2816-1.3712,2.3232-1.6112l.2889-.0407c1.1677-.1831,2.3232,.1221,3.0027,.7934l1.8716,1.8594c.3052,.3011,.4883,.651,.5452,1.0212,.057,.3703-.0122,.7609-.2075,1.1351l-1.2246,2.3354c-.4435,.8463-1.4403,1.485-2.608,1.6681-.2197,.0366-.4435,.0529-.6632,.0529-.9277,0-1.7861-.3051-2.3395-.8463m-92.2642,.8259l-.2889-.0488c-1.1718-.1871-2.1727-.8381-2.608-1.6844l-1.2084-2.3476c-.1953-.3743-.2604-.769-.1993-1.1351,.057-.3703,.2441-.7242,.5492-1.0213l1.8838-1.839c.6835-.6673,1.8268-.9683,2.9905-.7852,1.1717,.1912,2.1726,.8381,2.6121,1.6885l1.2084,2.3435c.3946,.7609,.2604,1.5746-.3499,2.1727l-1.8878,1.8431c-.415,.4069-1.009,.6754-1.6682,.7812-.2075,.0326-.4231,.0529-.6428,.0529-.1302,0-.2563-.0081-.3906-.0203m13.8333-8.4546c.4191-.061,.8218-.1871,1.1839-.3702l2.3354-1.1555c-.0529,1.3264,.4272,2.6324,1.3182,3.6292-1.3182,.2767-2.4819,1.0619-3.2142,2.1849l-1.1717-2.2744c-.4516-.8707-1.2532-1.5868-2.2337-2.0506,.3418,.0651,.6754,.0936,1.0131,.0936,.2604,0,.5167-.0163,.769-.057m62.4859,2.1035c.9073-1.0049,1.3834-2.3232,1.3183-3.6617l2.2825,1.1473c.8748,.4394,1.9448,.5493,3.0108,.3499-.9643,.4516-1.7576,1.1596-2.2052,2.014l-1.2084,2.3069c-.7324-1.1067-1.8879-1.8797-3.1979-2.1564m-13.7886-1.5461c-.4313-.5899-.6062-1.3101-.4882-2.0384,.1099-.7161,.4964-1.3508,1.0904-1.782,1.2206-.8829,2.9335-.6103,3.8163,.6062,.0855,.118,.1627,.2441,.2279,.3703,.2563,.5086,.3499,1.0904,.2563,1.6641-.1058,.7202-.4964,1.3508-1.0904,1.7821-.3581,.2604-.7609,.4231-1.1718,.4842-.1465,.0244-.2889,.0366-.4313,.0366-.8463,0-1.6763-.3865-2.2092-1.1229m-33.8713,.5859c-1.2165-.8829-1.4891-2.5958-.6022-3.8123,.0855-.1221,.179-.236,.2807-.3336,.4028-.4068,.9236-.6713,1.5013-.7608,.7202-.118,1.4403,.0529,2.0302,.4841,1.2206,.887,1.4891,2.6039,.6062,3.8164-.4272,.594-1.0619,.9805-1.782,1.0944h-.0041c-.1424,.0244-.2889,.0326-.4313,.0326-.5737,0-1.127-.179-1.599-.5208m-7.9094,.8544c-1.8268-.9236-2.551-3.1654-1.6234-4.9841,.9277-1.8268,3.1654-2.5551,4.9922-1.6234,1.8227,.9276,2.547,3.1654,1.6193,4.9881-.5574,1.1026-1.5949,1.7983-2.73,1.9814-.1912,.0326-.3824,.0448-.5777,.0448-.5655,0-1.1433-.1302-1.6804-.4069m48.5061-1.6193c-.9317-1.8227-.2034-4.0605,1.6193-4.9881,1.8227-.9317,4.0646-.2034,4.9881,1.6193,.9317,1.8228,.2034,4.0646-1.6152,4.9881-.3621,.179-.7324,.3011-1.1067,.3621-.1912,.0285-.3865,.0407-.5777,.0407-1.3508,0-2.6568-.7364-3.3078-2.0221m-85.7381,9.5206c-2.547-.4028-4.7644-1.7332-6.2087-3.7106-.0081-.0081-.0203-.0163-.0244-.0285v-.0041l-.1912-.2726-.0081-.0081c-1.009-1.5135-.9846-3.2874-.6103-5.6432,.3784-2.3883,.9032-4.0971,2.4046-5.2648,.0692-.0448,.1465-.1099,.2319-.1709,2.014-1.4444,4.5162-2.0139,7.0509-1.6071,4.9963,.7934,8.4709,5.1956,7.7467,9.8013-.5818,3.6251-3.6089,6.3227-7.3154,6.9085-.4964,.0814-1.005,.118-1.5257,.118-.5086,0-1.0294-.0366-1.5502-.118m117.567-6.937c-.7242-4.5935,2.7463-8.9795,7.7426-9.7728,2.551-.4109,5.0654,.1709,7.055,1.603,.0082,.0041,.0244,.0203,.0326,.0244h-.0041l.2685,.2034,.0122,.0081c1.424,1.1229,1.9489,2.8155,2.3232,5.1753,.3784,2.3842,.4069,4.1704-.6591,5.7449-.0529,.0732-.1099,.1505-.1709,.24-1.4688,1.9855-3.6699,3.3037-6.1965,3.7024-.0041,.0041-.0081,.0041-.0122,.0041-.5248,.0814-1.0416,.118-1.5501,.118-4.3738,0-8.182-2.9253-8.8411-7.0509m-59.5565-7.8809c.2034-.0325,.4109-.0773,.6062-.1464,1.1351-.3703,1.9733-1.2125,2.4005-2.2378,.0651,.0814,.1221,.1709,.1953,.24,.59,.5981,1.3386,.9765,2.1564,1.1067,.1994,.0285,.4069,.0448,.6225,.0448,1.188-.0041,2.2418-.5452,2.9661-1.3874,.0407,.0977,.0651,.1953,.1139,.2848,.3784,.7486,.9765,1.3467,1.7088,1.721,.1872,.0895,.3784,.1709,.5737,.236,1.1351,.3662,2.311,.1749,3.2549-.4028,.0081,.1017,.0041,.2075,.0203,.3092,.1343,.83,.5126,1.5746,1.0945,2.1604,.1464,.1424,.3092,.2807,.476,.4028,.9643,.7039,2.1401,.8829,3.2183,.6266-.0244,.0976-.061,.1912-.0773,.297-.1302,.83,0,1.6559,.3743,2.3923,.0936,.1831,.1994,.3621,.3255,.533,.7039,.9602,1.7617,1.4972,2.8724,1.5827-.057,.0936-.1221,.1709-.1709,.2644-.3825,.7487-.5086,1.5746-.3825,2.3883,.0326,.2034,.0814,.4109,.1505,.6062,.3662,1.1351,1.2124,1.9733,2.2336,2.3964-.0773,.0692-.1668,.1221-.24,.1993-.594,.59-.9683,1.3386-1.1026,2.1564-.0326,.1994-.0448,.4069-.0448,.6184,0,1.1921,.5411,2.2459,1.3874,2.9701-.0976,.0407-.1953,.0692-.2929,.1139-.7405,.3784-1.3386,.9765-1.7088,1.7088-.0936,.1831-.1749,.3784-.24,.5777-.3662,1.1351-.1749,2.3069,.4028,3.2549-.1058,.0041-.2075,0-.3092,.0163-.8259,.1343-1.5786,.5167-2.1564,1.0945-.1505,.1505-.2848,.3092-.4109,.4801-.6998,.9602-.8788,2.136-.6225,3.2183-.0977-.0285-.1953-.0651-.3011-.0814-.8259-.1302-1.6519,.0041-2.3883,.3784-.1831,.0895-.3621,.1994-.533,.3255-.9602,.6998-1.4973,1.7617-1.5868,2.8643-.0895-.0529-.1668-.1139-.2563-.1668-.7527-.3784-1.5786-.5086-2.3923-.3784-.2034,.0326-.4109,.0773-.6062,.1424-1.1351,.3662-1.9733,1.2124-2.4005,2.2377-.0651-.0732-.1221-.1627-.1953-.236-.5899-.5981-1.3426-.9765-2.1564-1.1026-.1993-.0326-.4109-.0529-.6225-.0529-1.188,0-2.2459,.5452-2.9701,1.3914-.0366-.0977-.0651-.1953-.1098-.2889-.3784-.7486-.9806-1.3426-1.7129-1.7129-.1831-.0936-.3784-.1749-.5737-.24-1.1311-.3662-2.3069-.175-3.2549,.3987-.0081-.0977-.0041-.2034-.0203-.3052-.1261-.8259-.5126-1.5786-1.0944-2.1604-.1465-.1465-.3011-.2807-.4761-.4028-.9602-.7039-2.136-.8829-3.2142-.6266,.0204-.0977,.057-.1953,.0773-.297,.1302-.8259,0-1.6559-.3784-2.3883-.0895-.1871-.2034-.3662-.3255-.5411-.6998-.9602-1.7658-1.4932-2.8684-1.5827,.057-.0895,.118-.1668,.1709-.2563,.3784-.7486,.5086-1.5786,.3784-2.3923-.0325-.2034-.0814-.4109-.1464-.6062-.3703-1.1351-1.2125-1.9733-2.2378-2.4005,.0773-.0611,.1668-.1221,.24-.1953,.594-.594,.9724-1.3426,1.1026-2.1564,.0325-.1994,.0488-.4109,.0488-.6225,0-1.188-.5493-2.2459-1.3874-2.9701,.0977-.0407,.1912-.0651,.2889-.1099,.7446-.3784,1.3386-.9765,1.7129-1.7088,.0936-.1871,.1749-.3784,.24-.5777,.3662-1.1351,.1749-2.3069-.3987-3.2509,.0977-.0081,.2034-.0041,.3011-.0203,.83-.1302,1.5786-.5126,2.1604-1.0944,.1505-.1505,.2807-.3092,.4069-.4801,.6998-.9643,.8788-2.136,.6266-3.2142,.0976,.0204,.1912,.061,.297,.0773,.8259,.1302,1.6519,0,2.3883-.3784,.1871-.0895,.3621-.1994,.533-.3214,.9643-.7039,1.5013-1.7658,1.5868-2.8684,.0895,.0529,.1709,.118,.2604,.1668,.5655,.2848,1.1718,.4272,1.7861,.4272,.2034,0,.4069-.0163,.6062-.0488m16.8929,1.363c-.5859-.4231-.9765-1.0619-1.0904-1.778-.1139-.7242,.057-1.4484,.4842-2.0384,.887-1.2165,2.5999-1.4891,3.8163-.6022,.1221,.0814,.236,.179,.3377,.2807,.4028,.4068,.6673,.9277,.7568,1.5013,.1139,.7201-.057,1.4403-.4883,2.0343-.4394,.6062-1.0944,.9805-1.7861,1.0904-.1424,.0203-.2848,.0326-.4272,.0326-.5574,0-1.1189-.1709-1.603-.5208m-23.8707,.4801c-.7161-.1139-1.3508-.5004-1.778-1.0945-.891-1.2206-.6184-2.9334,.6021-3.8164,.1221-.0895,.2441-.1627,.3703-.2319,.5126-.2604,1.0863-.3499,1.6641-.2604,.7202,.1139,1.3508,.5045,1.7821,1.0945,.8829,1.2165,.6144,2.9334-.6062,3.8164-.3499,.2563-.7527,.4231-1.1718,.4923-.1383,.0203-.2807,.0325-.4272,.0325-.1424,0-.2848-.0122-.4354-.0325m49.9139,2.4981l8.239-4.1663c1.5013-.7608,2.5877-2.1197,2.8318-3.5519l.3255-1.9204c2.1849,2.3314,5.4601,3.4624,8.776,3.1166-2.8968,1.6641-4.8864,4.5121-5.277,7.6897l-1.3508-1.3345c-1.0253-1.0212-2.6975-1.4972-4.3575-1.245-.0936,.0163-.1871,.0407-.2848,.061l-8.8493,1.3711c-.0692,.0122-.1302,.0285-.2034,.0448,.0529-.0244,.1058-.0448,.1505-.0651m-91.1779-6.5912c2.25-.358,4.3209-1.4078,5.8588-3.0555l.3051,1.8716c.236,1.4322,1.306,2.8033,2.7951,3.5723,.0855,.0407,.179,.0773,.2645,.118l7.9704,4.093c.057,.0326,.1261,.0529,.1831,.0814-.0529-.0082-.0976-.0204-.1546-.0326l-9.1137-1.4769c-1.66-.2645-3.3363,.1993-4.3778,1.2165l-1.3874,1.3589c-.4068-3.1735-2.3883-6.0134-5.2729-7.6775,.3987,.0447,.7974,.0651,1.188,.0651,.5859,0,1.1677-.0488,1.7414-.1343m25.5428-.6143c-.1546-.9684-.6998-1.9041-1.4891-2.6446,.9358,.5167,1.9733,.7405,2.9253,.6021l2.5795-.3824c-.4638,1.2491-.4109,2.6405,.1342,3.857-1.3426-.1424-2.6934,.2522-3.735,1.0904l-.415-2.5225h0Zm58.8039-2.669c-.7771,.7364-1.3142,1.6478-1.4729,2.5999l-.4353,2.5714c-1.0416-.8259-2.3801-1.2084-3.7106-1.07,.5493-1.2287,.5981-2.6324,.1221-3.8855l2.5266,.3906c.1953,.0285,.3906,.0448,.5859,.0448,.7974,0,1.6234-.2319,2.3842-.651m-24.3874,4.2558c-.6957-.2238-1.2613-.7039-1.5908-1.3589-.3296-.6469-.3906-1.3915-.1627-2.0872,.4638-1.4281,2.0099-2.2174,3.4421-1.7495,.1383,.0447,.2726,.0976,.3987,.1668,.5126,.2563,.9276,.6713,1.1921,1.1881,.3296,.6469,.3865,1.3915,.1627,2.0831-.3296,1.0172-1.1921,1.7048-2.1767,1.8594-.1424,.0204-.2848,.0326-.4272,.0326-.2767,0-.5615-.0448-.8381-.1342m-13.5648-.1709c-.651-.3296-1.1351-.8951-1.3589-1.5909-.4638-1.4322,.3214-2.9742,1.7576-3.442,.1383-.0448,.2807-.0773,.4231-.1017,.5655-.0895,1.1433,0,1.66,.2685,.651,.3296,1.1311,.891,1.3589,1.5868,.4638,1.4322-.3255,2.9782-1.7536,3.442-.1424,.0448-.2848,.0814-.4272,.1058-.1383,.0204-.2807,.0326-.4231,.0326-.4272,0-.8463-.1017-1.2369-.3011m-14.6959,.5655c-1.4484-1.4444-1.4525-3.8001-.0041-5.2445,1.4484-1.4484,3.8001-1.4484,5.2485,0,1.4444,1.4444,1.4444,3.8001,0,5.2445-.5778,.5737-1.2938,.9195-2.0384,1.0375-.1912,.0285-.3865,.0488-.5859,.0488-.948,0-1.9-.3621-2.6202-1.0863m39.7749,0c-1.4444-1.4444-1.4444-3.8001,0-5.2445,1.4525-1.4484,3.8041-1.4484,5.2526,0,1.4444,1.4403,1.4444,3.796,0,5.2404-.5778,.5777-1.2979,.9236-2.0424,1.0416-.1953,.0285-.3865,.0488-.5818,.0488-.9521,0-1.9-.3621-2.6283-1.0863m15.8799,3.9669l-2.3557-1.1881c-.7649-.3865-1.1351-1.1189-.9927-1.9611l.4435-2.5999c.1627-.9439,.9155-1.8634,1.9733-2.3964l4.7888-2.4208c-.0326,.118-.0692,.24-.0854,.3621l-.4435,2.6039c-.1343,.7731-.0163,1.5135,.3011,2.1482,.3214,.6306,.8503,1.1514,1.5501,1.5013l2.3476,1.1921c.1261,.061,.2563,.1058,.3906,.1587l-4.8132,2.433c-.4069,.2034-.8219,.3377-1.2409,.4068-.1994,.0285-.3865,.0448-.5777,.0448-.4639,0-.9073-.0936-1.2857-.2848m-69.4311-.1546l-4.7725-2.4534c.118-.0448,.24-.0855,.3499-.1424l2.3598-1.1718c.7079-.3458,1.2409-.8747,1.5664-1.5094,.3214-.6266,.4313-1.3589,.3052-2.1279l-.4191-2.608c-.0285-.1343-.0651-.2685-.1017-.4028l4.7969,2.4615c1.0578,.5452,1.8065,1.4647,1.9611,2.4127l.4231,2.6039c.1383,.8422-.236,1.5786-1.005,1.957l-2.3598,1.1677c-.2319,.118-.4883,.1953-.7568,.2401-.1668,.0244-.3377,.0366-.5086,.0366-.6022,0-1.2409-.1546-1.839-.4638m34.3636-5.9199c-.5126-.5126-.7974-1.2002-.7974-1.9285,0-1.5095,1.2247-2.7382,2.7341-2.7341,.1465-.0041,.2889,.0081,.4313,.0325,.5615,.0895,1.0822,.3581,1.4973,.7649,.5167,.5167,.8015,1.2043,.8015,1.9367,0,1.3589-1.0009,2.49-2.3029,2.6934-.1383,.0244-.2807,.0366-.4313,.0366-.7283,0-1.4159-.2807-1.9326-.8015m43.3146,1.8879l-2.3517-1.1881c-.7649-.3865-1.1392-1.1189-.9968-1.9611l.4435-2.5999c.1465-.8625,.7934-1.7007,1.7088-2.2459l.2563-.1342c1.0619-.533,2.254-.5981,3.1084-.1668l2.3517,1.188c.3824,.1871,.6632,.4679,.834,.8056,.1709,.3296,.2238,.7242,.1546,1.1433l-.4435,2.5958c-.1586,.948-.9114,1.8634-1.961,2.3964-.4028,.2034-.8259,.3377-1.2369,.4028-.1994,.0325-.3947,.0488-.5818,.0488-.4679,0-.9073-.0977-1.2857-.2848m-85.6324-.0529l-.2604-.1343c-1.0538-.5411-1.8024-1.4647-1.957-2.4127l-.4272-2.6039c-.0692-.415-.0082-.8056,.1627-1.1433,.1668-.3336,.4557-.6103,.8341-.7974l2.3639-1.1717c.8544-.4231,2.0384-.354,3.0881,.1831,1.0578,.5411,1.8065,1.4647,1.961,2.4127l.4231,2.5999c.1383,.8463-.236,1.5786-1.005,1.957l-2.3598,1.1677c-.2319,.118-.4882,.1953-.7527,.24-.1627,.0244-.3296,.0366-.5004,.0366-.5126,0-1.0538-.1139-1.5705-.3336m55.3292-4.2192c-1.8268-.9317-2.551-3.1654-1.6234-4.9922,.9276-1.8187,3.1654-2.547,4.9881-1.6153,1.8268,.9236,2.551,3.1654,1.6234,4.9841-.5615,1.0985-1.599,1.8024-2.7301,1.9814-.1912,.0285-.3865,.0448-.5818,.0448-.5655,0-1.1392-.1261-1.6763-.4028m-27.1662-1.6234c-.9277-1.8187-.1994-4.0605,1.6234-4.9841,1.8228-.9317,4.0605-.2075,4.9922,1.6153,.9276,1.8268,.1993,4.0605-1.6234,4.9922-.358,.1831-.7242,.3011-1.0985,.358-.1953,.0285-.3906,.0448-.5778,.0448-1.3508,0-2.6568-.7405-3.3159-2.0262m-5.2363-3.7838c.1465-.9683-.0773-2.018-.5981-2.9742,.7324,.7771,1.6478,1.3142,2.5958,1.4769l2.5673,.4354c-.8259,1.0416-1.2043,2.3801-1.0619,3.7065-1.2328-.5493-2.6365-.594-3.8896-.118l.3865-2.5266h0Zm38.0416-1.0904l2.5266-.4068c.9643-.1587,1.896-.7039,2.6365-1.4973-.5126,.9399-.7405,1.9773-.5981,2.9294l.3825,2.5795c-1.2531-.4598-2.6405-.415-3.857,.1302,.1383-1.3385-.2523-2.6853-1.0904-3.735m-24.7942,1.0538c-.3173-2.0221,1.066-3.9262,3.0881-4.2436,2.018-.3214,3.9222,1.0619,4.2395,3.084,.3214,2.018-1.0619,3.9222-3.084,4.2436-.1912,.0326-.3865,.0448-.5818,.0448-1.7861,0-3.3729-1.306-3.6618-3.1288m11.8885,3.084c-2.0221-.3214-3.4054-2.2296-3.084-4.2436,.3214-2.0221,2.2215-3.4054,4.2436-3.084,2.0221,.3173,3.4014,2.2215,3.084,4.2436-.2563,1.6234-1.542,2.8399-3.0881,3.084-.1912,.0326-.3824,.0448-.5777,.0448-.1912,0-.3825-.0122-.5777-.0448m62.9416-2.136c.0163-.0611,.0407-.1261,.061-.1872l.0244-.0854c.0285-.0692,.0488-.1302,.0773-.2075,.8259-2.3313,2.6324-4.1093,4.9718-4.8701,5.3909-1.7617,7.6775,3.8164,8.2471,5.5659,.712,2.1767,.8137,4.1907,.297,5.8141-.5533,1.7373-1.7943,2.9294-3.674,3.5438-.3947,.1302-.7974,.2278-1.2002,.2889-2.0384,.3255-4.1541-.1749-5.8426-1.3996-.0122-.0122-.0244-.0203-.0325-.0285l-.2807-.2075c-2.2418-1.6193-4.9922-2.3069-7.7996-1.9895,2.4534-1.3956,4.2802-3.5763,5.1509-6.2372m-143.5045,9.5653c-5.3991-1.7495-3.971-7.6043-3.4014-9.3538,.7039-2.1767,1.8024-3.8652,3.1776-4.8783,1.4688-1.0782,3.1695-1.3182,5.0573-.7039,2.3883,.7731,4.2721,2.6609,5.041,5.037,.0041,.0163,.0041,.0285,.0122,.0447l.1017,.3296c.8625,2.6243,2.6853,4.801,5.1387,6.1965-2.8074-.3174-5.5577,.3743-7.8321,2.014-.0488,.0407-.1058,.0814-.1587,.118l-.0692,.0529c-.0651,.0407-.118,.0773-.1872,.1221-.9927,.6876-2.1075,1.127-3.2508,1.3101-.3987,.061-.8015,.0936-1.2084,.0936-.8097,0-1.6234-.1261-2.4208-.3824m46.3905-7.3195l-3.7838-3.8082c.1261-.0041,.2482-.0081,.3784-.0244l2.608-.3824c.0081-.0041,.0285-.0041,.0407-.0081,.7649-.1221,1.42-.4557,1.9082-.948,.5045-.5004,.8381-1.1636,.9561-1.9326l.3987-2.6039c.0244-.1424,.0326-.2807,.0366-.4191l3.796,3.8286c.8381,.8381,1.2654,1.9489,1.1229,2.8928l-.4028,2.608c-.1302,.8503-.712,1.424-1.5624,1.5542l-2.6039,.3784c-.118,.0204-.24,.0285-.358,.0285-.8625,0-1.8024-.4272-2.5348-1.1636m57.7623,1.1189l-2.608-.4028c-.8463-.1302-1.424-.712-1.5501-1.5583l-.3825-2.6121c-.1383-.948,.297-2.0546,1.1392-2.8887l3.8041-3.7838c.0041,.1261,.0122,.2523,.0326,.3784l.3784,2.608c.118,.7771,.4557,1.4484,.9561,1.9489,.5004,.5004,1.1555,.8381,1.9285,.9561l2.6121,.4028c.1342,.0204,.2767,.0244,.4109,.0326l-3.8204,3.8001c-.6103,.6022-1.3589,.9928-2.0872,1.1107-.1465,.0244-.2929,.0326-.4353,.0326-.1261,0-.2563-.0082-.3784-.0244m-39.2866-9.5369c.4353-.8707,.5452-1.9407,.3458-3.0067,.4557,.9602,1.1596,1.7576,2.018,2.2011l2.311,1.2084c-1.1148,.7364-1.8879,1.8919-2.1645,3.198-1.005-.8992-2.3232-1.3793-3.6618-1.3142l1.1514-2.2866h0Zm19.0534,.3865l2.2744-1.1718c.8666-.4476,1.5868-1.2531,2.0506-2.2337-.2034,1.0497-.0977,2.1035,.3336,2.9701l1.1555,2.3354c-1.3304-.057-2.6324,.4191-3.6292,1.3142-.2767-1.3182-1.066-2.4778-2.1849-3.2142m-46.4556-3.5275l-.2889,1.8756c-.2197,1.4362,.3703,3.0637,1.5501,4.2558,.0692,.0692,.1424,.1302,.2116,.1953l6.3186,6.3552c.0488,.0488,.1017,.0895,.1546,.1383-.0488-.0244-.0936-.057-.1383-.0814l-8.2145-4.2192c-1.4973-.769-3.2386-.8422-4.5406-.1993l-1.7454,.8625c.6021-3.141-.4068-6.4528-2.6365-8.9306,1.4403,.6469,2.9742,.9724,4.4918,.9724,1.6926,0,3.3566-.4068,4.8376-1.2246m70.7127,12.6941l6.5505-6.5139c1.1962-1.184,1.8024-2.8155,1.5909-4.2517l-.2807-1.9285c2.8033,1.542,6.2657,1.6071,9.309,.2522-2.2377,2.4819-3.2508,5.8019-2.6405,8.9469l-1.6926-.8544c-1.2979-.651-3.0311-.594-4.5284,.1627-.0895,.0488-.1709,.0977-.2523,.1465l-7.9989,4.0401c-.057,.0326-.118,.0692-.175,.1058,.0407-.0366,.0814-.0692,.118-.1058m-34.5101-9.8176l1.8024-1.8146c.6835-.6998,1.1148-1.6844,1.2531-2.7585,.1383,1.0619,.5655,2.0302,1.2409,2.7219l1.8227,1.8594c-1.2816,.358-2.3761,1.2165-3.0433,2.3761-.6754-1.1677-1.782-2.0343-3.0759-2.3842m-57.2862,11.4288c-2.3028-1.1718-3.9954-3.1166-4.7643-5.4438,0-.0122-.0041-.0285-.0081-.0407l.0041-.0041-.1017-.3133c0-.0081-.0041-.0122-.0041-.0163-.4964-1.7454,.0732-3.4217,1.1596-5.5496,1.1026-2.1564,2.1279-3.617,3.914-4.2639,.0854-.0285,.1749-.057,.2726-.0895,2.3639-.7527,4.919-.5208,7.2055,.6469,4.504,2.2988,6.4447,7.5595,4.3372,11.7176-1.2206,2.3883-3.5356,3.9018-6.1355,4.3128-.476,.0773-.9643,.1139-1.4566,.1139-1.4728,0-2.9945-.3418-4.4226-1.07m108.6974-3.381c-2.1035-4.15-.1587-9.3945,4.3453-11.6932,2.3028-1.1718,4.8701-1.3996,7.2055-.655,.0081,.0081,.0244,.0122,.0366,.0163v.0041l.3173,.1058,.0122,.0041c1.7047,.6266,2.7219,2.075,3.8082,4.2069,1.1026,2.1523,1.6763,3.8449,1.1474,5.6717-.0285,.0773-.0529,.1749-.0854,.2685-.7812,2.3557-2.4737,4.2883-4.7562,5.456-.9521,.476-1.9367,.7893-2.9213,.948-.4964,.0773-.9968,.1139-1.4932,.1139-3.1817,0-6.164-1.6071-7.6164-4.447m-14.3745-4.7807l-2.6039-.3987c-.8463-.1302-1.4281-.7161-1.5542-1.5583l-.3784-2.608c-.1302-.8666,.2238-1.8634,.9276-2.669l.2034-.2034c.8463-.8381,1.9529-1.2654,2.9009-1.1189l2.608,.3987c.4191,.0651,.7771,.2441,1.0416,.5086,.2645,.2685,.4394,.6184,.5004,1.0416l.3825,2.6121c.1383,.9439-.2889,2.0465-1.127,2.8806-.6062,.6021-1.3589,.9968-2.0872,1.1107-.1505,.0244-.297,.0366-.4435,.0366-.1221,0-.2482-.0081-.3703-.0326m-70.6191-.9276l-.2034-.2075c-.8381-.8422-1.2653-1.9529-1.1229-2.8968l.4028-2.608c.0692-.4231,.2441-.7771,.5045-1.0416,.2726-.2685,.6225-.4394,1.0497-.5004l2.608-.3865c.9398-.1343,2.0465,.2929,2.8765,1.1311,.8381,.8422,1.2694,1.9489,1.1229,2.8968l-.4028,2.608c-.1261,.8381-.7039,1.4159-1.5379,1.5502-.0041,0-.0122,0-.0203,.0041l-2.6121,.3784c-.118,.0204-.2319,.0285-.354,.0285-.773,0-1.6193-.3499-2.311-.9561m16.9336-6.107c.3377-.057,.6673-.1627,.9724-.3174,.6307-.3173,1.1555-.8463,1.5054-1.542l1.1881-2.3557c.061-.1221,.1099-.2522,.1587-.3865l2.433,4.8132c.533,1.0578,.5981,2.2459,.1668,3.1044l-1.188,2.3557c-.3865,.7649-1.1229,1.1351-1.9651,.9887l-2.5999-.4394c-.9399-.1627-1.8594-.9154-2.3964-1.9733l-2.4208-4.7929c.1221,.0326,.2441,.0692,.3702,.0895l2.5999,.4435c.2116,.0366,.4231,.0529,.6307,.0529,.1871,0,.3662-.0122,.5452-.0407m34.1643,5.6351l-1.1758-2.3639c-.4272-.8544-.354-2.0424,.1912-3.0962l2.4493-4.7766c.0447,.118,.0854,.24,.1424,.3499l1.1718,2.3639c.3458,.7039,.8788,1.2368,1.5095,1.5583,.6306,.3255,1.3589,.4394,2.1319,.3092l2.5999-.4191c.1424-.0244,.2807-.061,.4109-.1017l-2.4656,4.7969c-.5411,1.0538-1.4647,1.8065-2.4086,1.9611l-2.608,.4231-.0122,.0041c-.1099,.0163-.2197,.0244-.3255,.0244-.6957,0-1.2857-.3703-1.6112-1.0334m-20.9087-9.9478c.6957-.1099,1.3589-.4476,1.9082-1.0009l1.8553-1.8716c.0936-.0977,.1831-.2116,.2726-.3174l.8219,5.3258c.179,1.1718-.1261,2.3232-.7974,3.0027l-1.8553,1.8756c-.3011,.3011-.651,.4841-1.0253,.5452-.3703,.057-.7731-.0122-1.1474-.2075l-2.3354-1.2247c-.8503-.4476-1.4932-1.4484-1.6722-2.6202l-.8218-5.3055c.1058,.0732,.2116,.1424,.3174,.1993l2.3354,1.2247c.537,.2807,1.0904,.415,1.6397,.415,.1668,0,.3377-.0122,.5045-.0407m10.672,6.9939l-1.839-1.8797c-.6713-.6876-.9683-1.839-.7812-3.0108l.8544-5.2933c.0773,.0936,.1546,.1912,.2441,.2848l1.8431,1.8838c.5493,.5655,1.2125,.9073,1.9204,1.0172,.6998,.1139,1.4281-.0041,2.1238-.3621l2.3435-1.2124c.1261-.061,.2401-.1383,.354-.2116l-.8585,5.3177c-.1871,1.1758-.834,2.1727-1.6885,2.6121l-2.3435,1.2084c-.1993,.1017-.4028,.1668-.6022,.1993-.0895,.0163-.1831,.0244-.2726,.0244-.472,0-.9277-.1953-1.2979-.5778m14.4477-5.2811l-1.1718-2.3598c-.3906-.7852-.3581-1.8472,.061-2.8236l.1302-.2604c.5452-1.0538,1.4688-1.8065,2.4127-1.957l2.5999-.4272c.4231-.0692,.8137-.0081,1.1514,.1627,.3296,.1709,.6103,.4557,.7934,.8341l1.1718,2.3679c.4272,.8503,.358,2.0343-.179,3.084-.5452,1.0537-1.4688,1.8065-2.4127,1.961l-2.6039,.4231c-.0041,0-.0081,0-.0122,.0041-.1099,.0163-.2197,.0244-.3255,.0244-.6998,0-1.2898-.3743-1.6153-1.0334m-39.2866,1.0131l-2.5999-.4394c-.8625-.1464-1.7047-.7934-2.2459-1.7088l-.1342-.2604c-.533-1.0578-.5981-2.25-.1668-3.1044l1.1881-2.3557c.1912-.3824,.4679-.6591,.8015-.8341,.3377-.1668,.7283-.2197,1.1474-.1505l2.5999,.4435c.9398,.1587,1.8593,.9073,2.3883,1.9611,.5411,1.0578,.6021,2.2459,.1709,3.1003l-1.188,2.3557c-.2807,.5615-.7527,.9114-1.3183,1.0009-.0936,.0163-.1953,.0203-.297,.0203-.1099,0-.2278-.0081-.3458-.0285m-14.6796-10.5622c2.4819,2.2459,5.8019,3.2508,8.9469,2.6405l-.8544,1.6966c-.6551,1.2938-.5859,3.0311,.1627,4.5284,.0448,.0895,.0977,.1709,.1465,.2522l4.0401,7.9989c.0326,.057,.0692,.1139,.1017,.1709-.0366-.0366-.0692-.0773-.1058-.118l-6.5098-6.5505c-1.184-1.1921-2.8155-1.7983-4.2558-1.5908l-1.9245,.2807c1.542-2.8033,1.6071-6.2657,.2522-9.309m65.0777,2.6853c2.018-.3173,3.9547-1.2491,5.5496-2.6853-1.363,3.0555-1.2938,6.526,.2563,9.3294l-1.8757-.2889c-1.4362-.2238-3.0637,.3702-4.2598,1.5501-.0692,.0692-.1302,.1465-.1912,.2156l-6.3593,6.3186c-.0488,.0407-.0854,.1017-.1342,.1505,.0244-.0488,.0529-.0936,.0814-.1383l4.2151-8.2145c.769-1.4973,.8463-3.2346,.1993-4.5406l-.8625-1.7454c.6022,.118,1.2125,.1749,1.8187,.1749,.5249,0,1.0456-.0407,1.5624-.1261m-24.0985,3.0149l-1.839-1.8879c-.6144-.6225-.9114-1.6397-.8137-2.7015l.0488-.2848c.1831-1.1718,.8341-2.1727,1.6844-2.6121l2.3435-1.2084c.3784-.1953,.769-.2604,1.1392-.1994,.3702,.057,.7242,.2441,1.0212,.5493l1.839,1.8838c.6713,.6836,.9684,1.8268,.7852,2.9905-.1912,1.1718-.8381,2.1727-1.6885,2.6121l-2.3476,1.2084c-.1994,.1017-.3987,.1668-.6022,.2034-.0895,.0122-.1831,.0203-.2726,.0203-.472,0-.9236-.1953-1.2979-.5737m-13.5322,.3458l-2.3395-1.2206c-.7731-.4068-1.3712-1.2816-1.6071-2.3191l-.0448-.2889c-.1831-1.1718,.1261-2.3232,.8015-3.0027l1.8553-1.8716c.297-.3051,.651-.4883,1.0212-.5452,.3703-.057,.7609,.0081,1.1352,.2075l2.3395,1.2247c.8422,.4435,1.481,1.4362,1.6681,2.6039,.179,1.1717-.1302,2.3232-.8015,3.0067l-1.8553,1.8675c-.297,.3051-.655,.4883-1.0212,.5452-.0895,.0163-.179,.0203-.2644,.0203-.2929,0-.5981-.0732-.887-.2278m63.2549-3.0433c-.0041-.061-.0041-.1261-.0041-.1912v-.0936c.0041-.0692,.0041-.1383,.0081-.2197,.0611-2.4697,1.2328-4.7196,3.2183-6.164,4.5894-3.3403,8.4831,1.2531,9.5654,2.7423,1.3467,1.8512,2.0709,3.735,2.0791,5.4397,.0122,1.8187-.7974,3.3403-2.4005,4.508-2.0302,1.4769-4.6667,1.8878-7.0428,1.1107-.0081,0-.0244-.0041-.0407-.0122l-.3255-.1099c-2.6324-.8463-5.4601-.651-8.0315,.5167,1.9041-2.0872,2.966-4.7196,2.9741-7.527m-123.2142,6.0216c-4.5935-3.3363-1.4281-8.4546-.3458-9.9478,1.3426-1.8553,2.905-3.1207,4.5284-3.6618,1.7332-.5737,3.4217-.2726,5.0329,.8951,2.0262,1.4688,3.2346,3.8489,3.2305,6.3511v.0407l-.0041,.3458c.0081,2.7667,1.066,5.395,2.9701,7.4822-2.5673-1.1677-5.3991-1.363-8.0722-.5004-.061,.0204-.1221,.0366-.1831,.0611l-.0854,.0244c-.0651,.0203-.1343,.0366-.2116,.057-.3459,.1099-.7039,.1871-1.0497,.2441-.415,.0651-.83,.0936-1.2409,.0936-1.6234,0-3.2142-.5086-4.5691-1.485m16.9865,.7079c-1.8268-1.8268-2.8359-4.1988-2.844-6.6481v-.0407h.0041l.0041-.3418v-.0041c.0733-1.8187,1.1311-3.2346,2.8236-4.923,1.7088-1.7129,3.1369-2.787,5.037-2.8481h.2848c2.4818,.0163,4.8417,1.0253,6.6563,2.8399,3.5682,3.5845,3.7919,9.187,.5004,12.4825-1.5583,1.5542-3.6251,2.3232-5.7571,2.3232-2.372,0-4.8173-.9561-6.7091-2.8399m89.2005,.5045c-3.2915-3.2956-3.0555-8.8859,.5126-12.4703,1.8309-1.8227,4.2029-2.8318,6.6522-2.844h.0407v.0041l.3377,.0041h.0081c1.8187,.0733,3.2346,1.1311,4.923,2.8236,1.7088,1.7088,2.7829,3.1369,2.844,5.037v.1505c0,.0448,0,.0895,.0041,.1383-.0203,2.4778-1.0253,4.8376-2.844,6.6522-1.5135,1.5054-3.381,2.4208-5.2892,2.7178-.472,.0733-.9439,.1139-1.4159,.1139-2.136,0-4.2151-.773-5.7734-2.3273m-50.4021,1.4037l-4.1663-8.239c-.7608-1.5054-2.1197-2.5877-3.556-2.8318l-1.9204-.3255c2.3354-2.193,3.4706-5.4601,3.1166-8.776,1.6681,2.8968,4.5162,4.8823,7.6978,5.2729l-1.3386,1.3467c-1.0212,1.0334-1.5013,2.7016-1.245,4.3575,.0163,.1017,.0407,.1912,.0651,.2889l1.3671,8.8493c.0082,.0732,.0326,.1342,.0407,.1993-.0203-.0447-.0407-.0936-.061-.1424m24.0252-.0163l1.4769-9.1178c.2685-1.66-.1953-3.3363-1.2124-4.3819l-1.363-1.3874c.1058-.0122,.1993-.0285,.3011-.0407,3.0515-.4841,5.7693-2.433,7.3764-5.2282-.3499,3.3241,.7893,6.6034,3.1288,8.7882l-1.8716,.3092c-1.4362,.2319-2.8033,1.2979-3.5763,2.7911-.0407,.0855-.0733,.179-.1139,.2645l-4.0971,7.9704c-.0285,.061-.0488,.1221-.0773,.1871,.0081-.057,.0244-.1058,.0285-.1546m-12.0146-1.896l-1.4159-9.1219c-.2563-1.6682-1.2165-3.1166-2.5063-3.796l-1.721-.8992c2.8928-1.363,4.98-4.1256,5.6757-7.3846,.6876,3.2712,2.783,6.0419,5.6879,7.3968l-1.6885,.8707c-1.2898,.6632-2.2581,2.0994-2.5307,3.7554-.0203,.0976-.0244,.1953-.0325,.2889l-1.4322,8.8452c-.0122,.0692-.0122,.1343-.0203,.2034-.0041-.0529-.0081-.1058-.0163-.1587m-36.3044-13.8008c-1.1758-2.3029-1.3996-4.8701-.655-7.2055,.0041-.0122,.0122-.0285,.0163-.0407h.0041l.1058-.3133,.0041-.0122c.6266-1.7047,2.075-2.7219,4.2069-3.8123,2.1523-1.0985,3.8408-1.6763,5.6676-1.1433,.0814,.0244,.179,.0529,.2767,.0814,2.3476,.7852,4.2842,2.4737,5.4479,4.7603,2.2866,4.5121,.7731,9.9071-3.3851,12.0309-1.1351,.5737-2.3517,.8503-3.5641,.8503-3.2264,0-6.4528-1.9245-8.125-5.1956m63.4014-12.5558c.0041,0,.0081,0,.0122-.0041,1.7495-.4923,3.4258,.0773,5.5537,1.1677,2.1564,1.0985,3.617,2.1238,4.2639,3.9141,.0122,.0407,.0326,.0895,.0448,.1342v.0041c.0163,.0448,.0285,.0855,.0448,.1302,.7486,2.3639,.5208,4.923-.6469,7.2096-2.3028,4.4999-7.5636,6.4447-11.7176,4.329-4.1419-2.1157-5.6513-7.5025-3.3566-12.0146,1.1677-2.2988,3.1125-3.9913,5.4438-4.7603l.0407-.0082,.0041,.0041,.3133-.1058h0Zm11.5142,4.7522c-.0203-.0651-.0407-.1261-.0651-.1831l-.0244-.0895c-.0163-.0692-.0325-.1302-.057-.2116-.712-2.3679-.2889-4.8701,1.1555-6.8597,3.3281-4.5976,8.4505-1.4281,9.9397-.3458,1.8594,1.3426,3.1247,2.909,3.6618,4.5324,.5737,1.7292,.2766,3.4217-.891,5.0288-1.4688,2.0262-3.853,3.2346-6.3511,3.2346-.0122-.0041-.0285-.0041-.0447-.0041l-.3459-.0041c-2.7667,.0081-5.3909,1.07-7.4822,2.9742,1.1677-2.5714,1.363-5.3991,.5045-8.0722m-84.6885,5.0939c-2.4696-.061-4.7196-1.2328-6.164-3.2224-3.3444-4.5853,1.2491-8.479,2.7423-9.5613,1.8471-1.3467,3.7309-2.0709,5.4357-2.0831,1.8268-.0081,3.3403,.8015,4.5121,2.4045,1.481,2.0262,1.8838,4.6627,1.1148,7.0428-.0041,.0122-.0081,.0244-.0163,.0366l-.1139,.3296c-.8422,2.6324-.651,5.4601,.5167,8.0315-2.0831-1.9041-4.7155-2.966-7.527-2.9742-.057,.0041-.1221,.0041-.1871,.0041h-.0895c-.0732-.0041-.1424-.0041-.2238-.0081m27.8294-5.9402c-.4068-2.5551,.1709-5.0695,1.6071-7.055,.0081-.0081,.0163-.0203,.0244-.0326h.0041l.1993-.2685s0-.0041,.0081-.0082c1.1229-1.4281,2.8155-1.9529,5.1753-2.3273,2.3883-.3743,4.1744-.4028,5.7449,.6632,.0692,.0529,.1546,.1058,.236,.1709,1.9936,1.4688,3.3118,3.6699,3.7106,6.2087,.7852,4.9963-2.3232,9.6548-6.9329,10.3913-.4069,.0651-.8137,.0977-1.2125,.0977-4.1256,0-7.8362-3.2915-8.5644-7.8402m23.8625-9.073c.0041-.0041,.0081-.0041,.0081-.0081,1.5135-1.0131,3.2874-.9805,5.6432-.6103,2.3883,.3743,4.0971,.9032,5.2648,2.4046,.0488,.0692,.1058,.1505,.1709,.2278,1.4403,2.018,2.014,4.5202,1.6071,7.055-.7974,4.9963-5.1916,8.4668-9.8054,7.7426-4.5935-.7324-7.6856-5.3909-6.9045-10.3872,.4028-2.547,1.7292-4.7643,3.7065-6.2087,.0122-.0081,.0203-.0203,.0325-.0285v.0041l.2767-.1912h0Zm12.4174,.952c-.0366-.0448-.0773-.0977-.1139-.1546l-.0529-.0692c-.0407-.061-.0773-.118-.1221-.1871-1.4078-2.0343-1.778-4.5406-1.0212-6.876,1.7495-5.4031,7.6002-3.971,9.3497-3.4054,2.1767,.6998,3.8652,1.7983,4.8823,3.1776,1.0741,1.4688,1.3183,3.1695,.7039,5.0614-.7731,2.3842-2.6609,4.268-5.041,5.037-.0122,.0041-.0244,.0081-.0407,.0122l-.3296,.1058c-2.6242,.8585-4.8051,2.6812-6.1965,5.1387,.3174-2.8114-.3743-5.5618-2.018-7.8402m-44.2544,2.6853c-.061-.0163-.1261-.0366-.1912-.057l-.0814-.0285c-.0692-.0285-.1343-.0488-.2116-.0773-2.3273-.8178-4.1053-2.6283-4.8661-4.9678-1.7617-5.3909,3.8164-7.6775,5.5659-8.2471,2.1767-.712,4.1907-.8137,5.81-.297,1.7414,.5533,2.9335,1.7902,3.5478,3.674,.7771,2.3842,.358,5.0207-1.1107,7.0428-.0122,.0122-.0203,.0204-.0285,.0326l-.2116,.2767c-1.6112,2.2459-2.3029,4.9922-1.9855,7.8036-1.3996-2.4575-3.5722-4.2802-6.2372-5.1549m21.9136-4.8417c-.0529-.0366-.1058-.0773-.1586-.1139l-.0733-.057c-.057-.0448-.1099-.0855-.1709-.1342-1.9692-1.5013-3.0921-3.7716-3.0962-6.2291-.0082-5.6757,5.9972-6.1233,7.8402-6.1273,2.2866-.0041,4.2354,.5208,5.6228,1.5135,1.481,1.066,2.2336,2.6121,2.2336,4.5935,.0041,2.5103-1.2124,4.8864-3.2346,6.3511-.0122,.0081-.0244,.0163-.0326,.0204l-.2848,.2075c-2.2377,1.6275-3.735,4.032-4.3046,6.7987-.5696-2.7667-2.075-5.1712-4.3412-6.8231m4.3372-14.3623c-.8056,0-1.5664,.057-2.2866,.1668l-.1343,.0244c-4.451,.7283-7.1242,3.5153-7.116,7.6409,.0041,1.8838,.5493,3.6821,1.5502,5.2079-1.2043-.0936-2.4168,.0529-3.5397,.2319-1.1107,.1749-2.2906,.4028-3.4014,.8625,.4801-1.7739,.4516-3.674-.1302-5.456-.7812-2.4045-2.3883-4.0523-4.6505-4.7725-1.9651-.6225-4.3331-.5208-6.8556,.3011-5.5984,1.8268-8.1494,5.81-6.6563,10.3953,.5859,1.7983,1.6682,3.3363,3.0881,4.4795-1.1758,.2807-2.2825,.7934-3.2956,1.3101-1.0009,.5086-2.0547,1.0904-2.9701,1.8756-.0854-1.839-.7039-3.6333-1.8065-5.1549-1.4891-2.0425-3.5275-3.1125-5.8954-3.1003-2.0628,.0163-4.2843,.8463-6.4284,2.4086-4.7603,3.4665-5.9565,8.0437-3.1206,11.9374,1.1148,1.5298,2.6161,2.6609,4.3209,3.3037-1.0334,.6347-1.9163,1.4647-2.726,2.2703-.7974,.7934-1.6193,1.6722-2.2459,2.6975-.655-1.721-1.7942-3.2346-3.3159-4.3372-2.0424-1.485-4.3127-1.8716-6.5586-1.127-1.9611,.651-3.8164,2.1279-5.3746,4.2761-3.4543,4.7684-3.1776,9.4921,.7283,12.3157,1.5298,1.1107,3.3037,1.721,5.1265,1.8065-.7852,.9236-1.3752,1.9895-1.896,2.9986-.5086,1.005-1.0172,2.0953-1.2979,3.2631-1.1555-1.4322-2.7056-2.5226-4.4958-3.1003-2.4005-.7812-4.683-.4476-6.5871,.9521-1.66,1.2246-2.9701,3.202-3.7879,5.7246-1.8146,5.6066-.0936,10.0129,4.4999,11.4979,1.7983,.5818,3.674,.6144,5.4357,.1302-.4638,1.1189-.6957,2.3151-.8748,3.438-.179,1.1107-.3255,2.3069-.2319,3.5031-1.5379-1.005-3.3566-1.5624-5.2282-1.5624-2.5307,.0041-4.5935,1.0212-5.9727,2.9457-1.2043,1.6804-1.839,3.9628-1.8349,6.6156,.0081,5.8954,3.0067,9.545,7.828,9.5409,1.8878,0,3.6862-.5533,5.2119-1.5501-.0976,1.2043,.0529,2.4127,.2278,3.5356,.179,1.1148,.4069,2.2907,.8666,3.4054-1.7739-.4842-3.678-.4516-5.456,.1302-2.4046,.7812-4.0564,2.3883-4.7725,4.6504-.6225,1.9651-.5249,4.329,.3011,6.8516,1.8268,5.6025,5.81,8.1536,10.3953,6.6604,1.7943-.5899,3.3322-1.6681,4.4755-3.0922,.2807,1.1799,.7974,2.2825,1.3142,3.2956,.5086,1.0049,1.0944,2.0546,1.8716,2.9701-1.8349,.0895-3.6333,.7039-5.1509,1.8105-2.0424,1.4891-3.1166,3.5234-3.1003,5.8914,.0163,2.0668,.8463,4.2883,2.4046,6.4366,3.4705,4.7562,8.0477,5.9524,11.9414,3.1125,1.5339-1.1107,2.6609-2.6161,3.3037-4.3209,.6347,1.0334,1.4647,1.9245,2.2662,2.726,.7974,.7974,1.6763,1.6193,2.7016,2.2499-1.7169,.651-3.2386,1.7902-4.3372,3.3119-1.485,2.0465-1.8756,4.3168-1.127,6.5627,.6469,1.9611,2.1279,3.8164,4.2721,5.3706,4.7725,3.4583,9.4921,3.1817,12.3239-.7242,1.1067-1.5298,1.721-3.3037,1.8024-5.1305,.9195,.7893,1.9855,1.3792,2.9986,1.9,1.005,.5045,2.0953,1.0172,3.2631,1.2938-1.4322,1.1596-2.5266,2.7097-3.1003,4.4918-.7812,2.4086-.4516,4.6911,.9561,6.5952,1.2206,1.66,3.1979,2.9701,5.7246,3.7879,5.6025,1.8146,10.0048,.0895,11.4979-4.4999,.5777-1.7943,.6062-3.678,.1261-5.4357,1.1189,.4638,2.3191,.6957,3.438,.8748,1.1148,.175,2.3069,.3255,3.5031,.2319-1.005,1.5379-1.5664,3.3525-1.5624,5.2282,.0041,2.5266,1.0212,4.5935,2.9457,5.9727,1.6722,1.2002,3.9506,1.8349,6.5912,1.8349h.0244c5.8914-.0081,9.5491-3.0067,9.5409-7.828-.0041-1.8919-.5493-3.6862-1.5542-5.2119,1.2084,.0936,2.4167-.0529,3.5397-.2319,1.1107-.179,2.2947-.4028,3.4054-.8625-.4842,1.7739-.4516,3.674,.1302,5.456,.7812,2.4005,2.3842,4.0483,4.6464,4.7684,1.9651,.6266,4.3331,.5248,6.8597-.297,5.6025-1.8268,8.1495-5.81,6.6522-10.3953-.5859-1.7983-1.6681-3.3363-3.0881-4.4795,1.1799-.2767,2.2825-.7934,3.2915-1.3101,1.009-.5126,2.0628-1.0944,2.9741-1.8756,.0936,1.839,.708,3.6374,1.8146,5.1509,1.481,2.0465,3.5194,3.1166,5.8914,3.1044,2.0628-.0163,4.2843-.8463,6.4284-2.4086,4.7603-3.4665,5.9565-8.0477,3.1166-11.9374-1.1148-1.5339-2.6161-2.6649-4.3168-3.3037,1.0253-.6347,1.9204-1.4647,2.7219-2.2703,.7975-.7934,1.6193-1.6763,2.2459-2.7016,.6551,1.721,1.7943,3.2386,3.3159,4.3412,2.0465,1.481,4.3168,1.8716,6.5586,1.127,1.9651-.651,3.8205-2.1279,5.3787-4.2761,3.4543-4.7684,3.1776-9.4921-.7283-12.3198-1.5298-1.1066-3.3078-1.721-5.1265-1.8024,.7852-.9236,1.3712-1.9896,1.8919-2.9986,.5086-1.0049,1.0212-2.0953,1.3019-3.263,1.1555,1.4362,2.7056,2.5225,4.4917,3.1044,2.4005,.7771,4.683,.4475,6.5912-.9602,1.66-1.2247,2.9661-3.1979,3.7879-5.7246,1.8146-5.6025,.0936-10.0088-4.4999-11.4938-1.7983-.5818-3.6781-.6144-5.4357-.1343,.4639-1.1188,.6958-2.3151,.8748-3.4339,.1749-1.1107,.3255-2.3069,.2278-3.5072,1.542,1.009,3.3566,1.5705,5.2322,1.5664,2.5266-.0041,4.5935-1.0212,5.9728-2.9497,1.2043-1.6763,1.835-3.9588,1.8309-6.6115,0-.8096-.0529-1.5705-.1627-2.2906l-.0244-.1343c-.7324-4.4511-3.5153-7.1242-7.6409-7.1201-1.8878,0-3.6821,.5533-5.2078,1.5583,.0936-1.2084-.057-2.4168-.2319-3.5397-.1749-1.1107-.4028-2.2988-.8666-3.4054,1.778,.4841,3.674,.4516,5.4601-.1302,2.4046-.7812,4.0524-2.3924,4.7684-4.6464,.6266-1.9692,.5249-4.3371-.297-6.8597-1.8268-5.6025-5.8141-8.1494-10.3953-6.6563-1.7983,.59-3.3363,1.6682-4.4795,3.0922-.2807-1.1799-.7934-2.2825-1.3101-3.2956-.5126-1.005-1.0945-2.0587-1.8716-2.9742,1.8349-.0895,3.6333-.7039,5.1509-1.8105,2.0384-1.485,3.1125-3.5194,3.0962-5.8914-.0122-2.0628-.8422-4.2883-2.4046-6.4284-3.4705-4.7603-8.0437-5.9565-11.9414-3.1166-1.5257,1.1148-2.6568,2.6161-3.3037,4.3209-.6347-1.0334-1.4606-1.9245-2.2662-2.726-.7934-.7974-1.6763-1.6193-2.7016-2.25,1.721-.651,3.2387-1.7902,4.3412-3.3159,1.485-2.0424,1.8716-4.3127,1.127-6.5586-.651-1.957-2.1279-3.8163-4.2761-5.3746-4.7725-3.4543-9.488-3.1817-12.3157,.7242-1.1148,1.5339-1.721,3.3119-1.8064,5.1305-.9236-.7812-1.9896-1.3752-3.0027-1.8919-1.0009-.5127-2.0913-1.0212-3.259-1.302,1.4322-1.1555,2.5266-2.7056,3.1003-4.4917,.7771-2.4046,.4475-4.6871-.9561-6.5912-1.2206-1.66-3.1979-2.9701-5.7246-3.7879-5.6025-1.8146-10.0088-.0895-11.4938,4.4999-.5818,1.7983-.6103,3.674-.1302,5.4357-1.1189-.4638-2.3191-.6998-3.438-.8788-1.1148-.1709-2.3069-.3214-3.5072-.2238,1.005-1.542,1.5664-3.3566,1.5664-5.2363-.0041-2.5266-1.0253-4.5894-2.9497-5.9687-1.6763-1.2043-3.9506-1.8349-6.5993-1.8349h-.0164Z"/></clipPath><radialGradient id="radial-gradient" cx="641.724" cy="-863.6933" fx="641.724" fy="-863.6933" r="4.0686" gradientTransform="translate(-13299.1626 18153.6328) scale(20.9173)" gradientUnits="userSpaceOnUse"><stop offset="0" stop-color="#ffe500"/><stop offset=".094" stop-color="#fee100"/><stop offset=".1874" stop-color="#fdd500"/><stop offset=".2804" stop-color="#fcc100"/><stop offset=".3" stop-color="#fcbc00"/><stop offset=".4241" stop-color="#d89813"/><stop offset=".5717" stop-color="#b37328"/><stop offset=".65" stop-color="#a66530"/><stop offset=".8534" stop-color="#5e340f"/><stop offset=".96" stop-color="#3e1e00"/><stop offset="1" stop-color="#3e1e00"/></radialGradient></defs><g><polygon class="cls-3" points="233.9818 14.6635 256.5871 14.6635 256.5871 19.3465 239.6575 19.3465 239.6575 28.0493 254.9352 28.0493 255.6431 32.7323 239.6575 32.7323 239.6575 42.143 257.0631 42.143 257.0631 46.8219 233.9818 46.8219 233.9818 14.6635"/><polygon class="cls-3" points="272.9515 34.2906 264.1063 46.8219 257.865 46.8219 269.7373 30.1772 258.8578 14.9972 265.0054 14.2851 273.4275 26.1086 281.3247 14.6635 287.5212 14.6635 276.7353 30.1283 288.75 46.4476 282.5535 47.2003 272.9515 34.2906"/><path class="cls-3" d="M316.7893,25.3042c0,6.3389-4.4429,10.6883-12.389,10.6883h-8.0884v10.8307h-5.6717V14.6607h13.7601c7.946,0,12.389,4.3534,12.389,10.6435m-5.8141,0c0-3.9262-2.8358-5.9605-6.8109-5.9605h-7.8524v11.9699h7.8524c3.9751,0,6.8109-2.0831,6.8109-6.0093"/><path class="cls-3" d="M318.3057,30.7432c0-9.1747,6.2413-16.5512,17.1655-16.5512,10.8795,0,17.1207,7.3764,17.1207,16.5512,0,9.2236-6.2413,16.5552-17.1207,16.5552-10.9243,0-17.1655-7.3317-17.1655-16.5552m5.7693,0c0,6.998,4.211,11.8723,11.3515,11.8723,7.1893,0,11.3515-4.8742,11.3515-11.8723s-4.1622-11.8723-11.3515-11.8723c-7.1405,0-11.3515,4.8742-11.3515,11.8723"/><path class="cls-3" d="M233.9826,90.152h10.969c10.2163,0,16.4616,6.6197,16.4616,16.0792s-6.2453,16.0792-16.4616,16.0792h-10.969v-32.1584h0Zm25.5388,16.0792c0-8.7475-5.7246-14.285-14.6145-14.285h-9.0323v28.5699h9.0323c8.89,0,14.6145-5.4886,14.6145-14.285"/><path class="cls-3" d="M268.2209,89.9144v20.5262c0,5.8629,3.8774,10.5459,11.3515,10.5459,7.47,0,11.3515-4.683,11.3515-10.5459v-20.0543l1.8878-.472v20.575c0,6.5261-4.1581,12.2954-13.2393,12.2954-9.4148,0-13.2434-6.2413-13.2434-12.2954v-20.1031l1.8919-.472h0Z"/><path class="cls-3" d="M322.7966,98.4255c0,3.7391-2.0343,6.4325-5.1102,7.3805,4.0198,.7568,6.0541,3.5926,6.0541,7.8484,0,5.9605-3.735,8.658-10.6394,8.658h-13.4793v-32.1625h12.1042c6.9085,0,11.0707,2.3679,11.0707,8.2756m-1.8919,.0488c0-5.9117-4.5406-6.5261-9.6467-6.5261h-9.7443v12.9586h9.7443c5.1061,0,9.6467-.472,9.6467-6.4325m-19.3911,22.0397h11.1114c5.1549,0,9.2236-.8992,9.2236-6.8597s-4.0686-6.9492-9.2236-6.9492h-11.1114v13.8089h0Z"/><path class="cls-3" d="M350.1293,113.7988h-18.8215l-3.6902,8.5115h-1.9855l14.0937-32.1584,1.8919-.476,14.2809,32.3985-1.8919,.472-3.8774-8.7475h0Zm-.7568-1.7984l-8.7028-19.7206-8.5603,19.7206h17.2632Z"/><polygon class="cls-3" points="360.1055 122.3108 360.1055 90.3843 361.9974 89.9164 361.9974 121.1472 361.9974 122.3108 360.1055 122.3108"/><path class="cls-3" d="M235.8745,127.6578v20.5262c0,5.8629,3.8774,10.5459,11.3515,10.5459,7.47,0,11.3515-4.683,11.3515-10.5459v-20.0543l1.8919-.472v20.575c0,6.5261-4.1622,12.2954-13.2434,12.2954-9.4148,0-13.2434-6.2413-13.2434-12.2954v-20.1031l1.8919-.472h0Z"/><path class="cls-3" d="M287.8007,151.5435h-18.8214l-3.6902,8.5116h-1.9855l14.0937-32.1584,1.8919-.4761,14.2809,32.3985-1.8919,.472-3.8774-8.7475h0Zm-.7568-1.7983l-8.7028-19.7206-8.5604,19.7206h17.2632Z"/><polygon class="cls-3" points="297.7766 127.8946 319.5316 127.8946 319.5316 129.6929 299.6685 129.6929 299.6685 142.6515 318.1116 142.6515 318.5876 144.4458 299.6685 144.4458 299.6685 158.2587 320.0076 158.2587 320.0076 160.053 297.7766 160.053 297.7766 127.8946"/><path class="cls-3" d="M244.7319,51.9354c6.2901,0,11.7746,2.787,11.7746,9.2236,0,10.2082-17.0231,11.9618-17.0231,18.7238h16.9296l.7079,4.6789h-23.8788v-2.9294c0-12.1977,17.4951-12.4337,17.4951-20.1926,0-3.6862-3.1166-5.0573-6.6237-5.0573-3.259,0-6.1436,1.3711-9.2195,3.1654l-.8463-4.4918c3.4054-1.8919,6.8068-3.1206,10.6842-3.1206"/><path class="cls-3" d="M258.8696,68.4865c0-9.1747,4.683-16.5552,14.285-16.5552s14.3256,7.3805,14.3256,16.5552c0,9.2236-4.7277,16.5552-14.3256,16.5552s-14.285-7.3317-14.285-16.5552m5.8181,0c0,7.234,2.6487,12.1082,8.5116,12.1082s8.5156-4.8742,8.5156-12.1082-2.6527-12.1082-8.5156-12.1082-8.5116,4.8742-8.5116,12.1082"/><path class="cls-3" d="M300.7711,51.9354c6.2901,0,11.7705,2.787,11.7705,9.2236,0,10.2082-17.019,11.9618-17.019,18.7238h16.9296l.7079,4.6789h-23.8828v-2.9294c0-12.1977,17.4991-12.4337,17.4991-20.1926,0-3.6862-3.1206-5.0573-6.6237-5.0573-3.259,0-6.1436,1.3711-9.2195,3.1654l-.8463-4.4918c3.4014-1.8919,6.8068-3.1206,10.6842-3.1206"/><path class="cls-3" d="M314.908,68.4865c0-9.1747,4.683-16.5552,14.2849-16.5552,9.5938,0,14.3257,7.3805,14.3257,16.5552,0,9.2236-4.7318,16.5552-14.3257,16.5552-9.6019,0-14.2849-7.3317-14.2849-16.5552m5.8181,0c0,7.234,2.6487,12.1082,8.5115,12.1082s8.5116-4.8742,8.5116-12.1082-2.6487-12.1082-8.5116-12.1082-8.5115,4.8742-8.5115,12.1082"/></g><g class="cls-2"><rect class="cls-4" x="25.6108" y="-10.8575" width="196.7195" height="196.7161" transform="translate(-12.1594 20.4656) rotate(-8.9979)"/></g><polygon class="cls-3" points="192.5013 15.4455 189.9951 15.4455 189.9951 14.6074 196.0085 14.6074 195.8702 15.4455 193.4981 15.4455 193.4981 21.8292 192.5013 21.8292 192.5013 15.4455"/><polygon class="cls-3" points="200.4266 20.0972 197.9081 16.3052 197.9081 21.8264 197.009 21.8264 197.009 14.6045 197.9854 14.6045 200.7765 18.8562 203.5798 14.6045 204.5481 14.6045 204.5481 21.7531 203.5594 21.9037 203.5594 16.3052 201.0328 20.0972 200.4266 20.0972"/></svg>