<?xml version="1.0" encoding="UTF-8"?><svg id="Layer_1" xmlns="http://www.w3.org/2000/svg" xmlns:xlink="http://www.w3.org/1999/xlink" viewBox="0 0 400 175"><defs><style>.cls-1{fill:none;}.cls-2{fill:url(#linear-gradient);}.cls-3{clip-path:url(#clippath);}.cls-4{fill:#010101;}.cls-5{fill:#fff;}.cls-6{clip-path:url(#clippath-1);}.cls-7{clip-path:url(#clippath-2);}</style><clipPath id="clippath"><rect class="cls-1" x="42.938" y="2.0035" width="314.124" height="170.993"/></clipPath><clipPath id="clippath-1"><path class="cls-1" d="M134.3204,56.3509c.8692-2.9519,3.3836-12.8394,1.2513-21.9318-2.0784-.5557-4.8192-1.6884-8.1473-3.3687-1.2545,6.1282-1.0627,15.4702,6.896,25.3005m-14.4903,3.2672c1.387-1.8534,4.7567-6.6278,7.3539-12.5926-2.0073-5.4518-2.3979-11.0677-1.1583-16.6916-.4419-.2297-.9019-.4804-1.3101-.7042-4.0418,5.9866-8.1526,16.0344-4.8855,29.9883m-14.142,1.5361c1.9405-1.5863,6.7464-5.7147,11.4369-11.2809-.0294-6.351,1.4639-12.529,4.3207-17.8676,.5696-1.0643,1.1995-2.1152,1.8775-3.1293-.1026-.0572-.2095-.1175-.3158-.1779l-.2132-.1202c-6.5519,5.6399-14.82,15.865-17.1062,32.5759m-9.413-.7785c1.5312-.9548,5.3391-3.4402,9.4344-6.9548,2.9167-10.8268,8.2905-18.1609,12.2859-22.4079,1.0723-1.1386,2.1718-2.2007,3.3612-3.2458-1.8513-1.0605-3.7448-2.1788-5.6292-3.3222-7.2844,6.2207-16.5575,17.4967-19.4522,35.9306m-9.6107-1.4068c1.6189-1.0103,5.649-3.6363,10.0141-7.3021,3.3232-11.3621,8.9931-19.1632,13.1653-23.7073,1.4079-1.5377,2.9204-3.008,4.4928-4.371-1.9256-1.1835-3.9997-2.4892-6.1721-3.8768-7.7493,6.966-17.7569,19.4223-21.5002,39.2571m-11.8531-9.4702c3.1341-1.847,10.964-6.7384,18.545-13.613,2.4743-4.4276,5.3738-8.5181,8.6143-12.1576,1.5355-1.722,3.1603-3.3644,4.8326-4.8855-1.3346-.8623-2.7489-1.7776-4.2-2.727-8.6084,5.2798-20.3985,15.3532-27.7919,33.3832m-10.4228-10.2567c3.2431-1.0921,11.3941-4.0574,19.8316-8.8376,3.6593-4.5815,7.7958-8.6298,12.3024-12.031,1.4971-1.1284,3.055-2.2039,4.6424-3.1988-1.3122-.8575-2.5801-1.6926-3.7886-2.4876-9.1662,3.4483-22.3101,10.8513-32.9878,26.555m27.4152-30.0027c-.1293,.0256-.2565,.0502-.3889,.0801-9.974,2.2376-24.9281,7.6355-39.5852,20.6517,2.0148-.2981,5.9439-.9323,10.6077-1.9785,4.387-.9841,8.6933-2.1575,12.8025-3.4878,4.2791-3.8404,11.3226-9.1769,20.5785-12.8426-1.5232-1.0034-2.7275-1.7909-3.7784-2.4727l-.2362,.0497h0Zm-14.1008-4.1995c-3.0326,.3291-6.0978,.8383-9.109,1.5142-7.2732,1.6317-14.4118,4.2604-21.2149,7.8112,3.491,.4734,12.3879,1.4874,22.6537,1.2181,6.5375-3.3916,13.3341-5.9332,20.2125-7.5505l-.4894-.3163-3.063-1.8646c-.5103-.2853-.849-.4563-1.0066-.5028-1.2021-.3676-2.6116-.5754-4.1888-.6203-1.4127,.0839-2.6554,.187-3.7945,.3109"/></clipPath><linearGradient id="linear-gradient" x1="-215.5159" y1="-688.4961" x2="-214.9817" y2="-688.4961" gradientTransform="translate(-121511.7071 -37984.8185) rotate(-90) scale(176.623 -176.623)" gradientUnits="userSpaceOnUse"><stop offset="0" stop-color="#8d4292"/><stop offset=".0234" stop-color="#9b3c8f"/><stop offset=".0678" stop-color="#c02e8a"/><stop offset=".1032" stop-color="#e32285"/><stop offset=".1482" stop-color="#e63d63"/><stop offset=".201" stop-color="#ea5941"/><stop offset=".245" stop-color="#ed692d"/><stop offset=".2743" stop-color="#ee7026"/><stop offset=".3684" stop-color="#f69d19"/><stop offset=".4528" stop-color="#feca0d"/><stop offset=".5189" stop-color="#c3c122"/><stop offset=".5906" stop-color="#89b838"/><stop offset=".6438" stop-color="#65b345"/><stop offset=".6721" stop-color="#58b14b"/><stop offset=".685" stop-color="#52b05c"/><stop offset=".724" stop-color="#43af8c"/><stop offset=".761" stop-color="#38aeb2"/><stop offset=".795" stop-color="#2faecd"/><stop offset=".8251" stop-color="#2aaede"/><stop offset=".848" stop-color="#29aee4"/><stop offset=".9293" stop-color="#1b97d4"/><stop offset="1" stop-color="#1288ca"/></linearGradient><clipPath id="clippath-2"><rect class="cls-1" x="42.938" y="2.0035" width="314.124" height="170.993"/></clipPath></defs><g class="cls-3"><path class="cls-5" d="M183.6309,26.6846c-.015-.1288-.0144-.2543-.0363-.3852-.0599-.3948-.1507-.8003-.2965-1.2091-.8057-2.236-2.8435-4.0135-6.055-5.2857-.1063-.0427-.1956-.1229-.2506-.2249-1.0584-2.0378-3.895-3.2458-7.9833-3.4002-.5701-.0219-1.1615-.0235-1.7722-.007-.2709,.007-.5583,.0326-.834,.0481-.3467,.0182-.6876,.0283-1.0419,.0604-.3932,.0342-.7998,.0876-1.2032,.1357-.258,.0289-.5113,.0497-.7742,.0876-.4969,.0684-1.0066,.1576-1.5158,.2469-.1892,.0331-.366,.0577-.5551,.0919-.5872,.1111-1.1877,.2399-1.7936,.3783-.1261,.0283-.2431,.0475-.3654,.0764-.6839,.1587-1.3774,.3376-2.0816,.5295-.054,.0161-.1053,.0273-.1592,.0428-.7507,.2078-1.5163,.4333-2.2937,.6812-.007,.0032-.0134,.0043-.0241,.007-7.0969,2.2558-15.1795,6.1357-23.4818,11.7585,.5498,.2527,1.0825,.4873,1.5991,.7021,1.5986,.6663,3.1977,1.9886,4.3763,2.2328,.1512,1.7129,.8928,4.745,1.0445,6.4584,.2527,2.8659-.1127,5.6858-.3676,8.5459-.1806,2.0276-.2837,4.06-.1143,6.0914,.211,2.5309,.7929,5.0159,1.4826,7.4543,.1886,.6684,.3868,1.3336,.5914,1.9966,.1085,.3521,.2191,.7031,.3307,1.0536,.0641,.2025,.4312,.9291,.3596,1.1108,3.3719-8.5106,13.1188-28.237,31.167-39.1203,.576-.1165,1.3026-.5038,1.7188-.4595,.0112,.0016,.0257,.0016,.0374,.0048,3.1822,.3414,5.8045,.8816,7.7674,1.4036,1.1294,.2976,1.8112,1.0712,2.2322,1.8177l.0021-.0054c.0711-.2436,.1341-.5204,.1902-.8105,.0128-.071,.0257-.1432,.0369-.2196,.0395-.2372,.062-.4899,.0823-.7496,.0086-.1208,.0155-.2346,.0198-.3585,.0043-.2517-.015-.5134-.039-.7806"/></g><g class="cls-6"><rect class="cls-2" x="54.6601" y="-17.5163" width="75.763" height="100.9158" transform="translate(39.1152 115.3716) rotate(-76.645)"/></g><g class="cls-7"><g><path class="cls-4" d="M167.6148,20.3779c-.0454,.1475-.0021,.3083,.1111,.4151,.5829,.5584,3.5546,3.3259,4.924,3.0187,.133-.0299,.2533-.0834,.3569-.163,1.1108-.8383,1.5612-2.4657,1.5815-2.5347,.0497-.1939-.0417-.3948-.2228-.4835-2.6479-1.2791-6.2789-.5749-6.4333-.5439-.1742,.0368-.2757,.1421-.3174,.2912"/><path class="cls-4" d="M185.859,24.2081c-.9985-2.7905-3.3088-4.9875-6.8607-6.5305-2.7863-4.0782-9.9259-5.1708-19.6163-2.9968-8.1313,1.8241-17.1505,5.7318-26.1041,11.3145l-4.1386,2.9722c-9.1576-4.5558-22.0798-13.0633-30.6508-18.7053-7.2107-4.7445-10.7343-7.0429-12.0337-7.4367-1.5574-.4739-3.3996-.7742-5.0827-.8217l-.4739,.0256c-.3307,.0166-.6609,.0353-.982,.0609-2.2472,.0732-3.9943,.4002-4.3117,.4632-2.6602,.3478-5.1628,.7881-7.6499,1.3459-8.2093,1.8417-16.2518,4.9229-23.9039,9.1624-.7175,.3948-1.1129,1.1995-.9911,2.0079,.0021,.0171,.0032,.0385,.007,.055l.0059,.0208c.1501,.8019,.7849,1.4303,1.5927,1.5708,.3318,.0582,7.9181,1.3544,18.1384,1.621-5.1783,3.2565-10.091,7.0424-14.6207,11.2681-.6069,.5615-.7912,1.4548-.428,2.2926,.366,.7469,1.1594,1.1888,1.9875,1.1001,.5776-.0652,5.8547-.6786,13.2909-2.3466,1.8518-.4157,3.7726-.888,5.7318-1.4057-2.8344,3.1485-5.4572,6.5904-7.808,10.2422-.3564,.5535-.4611,1.2524-.2159,1.8636,.3708,.9227,1.3357,1.3977,2.2557,1.1914l.1165-.0294c.7304-.2126,7.1215-2.1056,15.2356-5.9338-2.6933,4.3325-5.003,9.0187-6.8752,13.9465-.2896,.7635-.0721,1.637,.538,2.173,.6021,.5305,1.5142,.6411,2.2237,.2634,.2746-.1475,6.521-3.4846,13.9838-9.1801-2.0575,5.1665-3.5802,10.6675-4.5329,16.371-.1261,.7528,.2014,1.5206,.8346,1.9523,.6192,.4226,1.4639,.4536,2.1222,.0556,2.5635-1.5521,5.0757-3.2997,7.4752-5.2012-.3051,1.5339-.5653,3.0871-.7731,4.6312-.1015,.7421,.2217,1.4655,.8415,1.8844,.1667,.1149,.3521,.1988,.5557,.2511l1.0707-.2116,1.3966-.8062,2.2761-1.5772c.031-.0203,.0646-.0454,.0962-.0662,1.0547-.7031,2.3012-1.5772,3.6603-2.5982,.1801-.1368,.358-.2677,.5482-.4108-.2703,1.5045-.5076,3.0497-.6823,4.6632-.0657,.6337,.2479,1.2486,.7993,1.5665,.3569,.2041,.7704,.2612,1.1551,.1752,.2148-.0481,.4194-.1405,.6-.2757,.4605-.3376,5.4059-4.0354,10.8561-9.9323,.2501,2.3599,.6983,4.8518,1.3977,7.4746,.156,.5808,.6203,1.0258,1.2075,1.1551,.2335,.0529,.4728,.0513,.7015,0,.3366-.0753,.6492-.2623,.8778-.5348,.078-.0908,7.7803-10.9993,7.4159-12.0946,.7394,2.2221,2.4155,4.5217,4.3795,6.9794l-.0465-.0411c.1058,.1218,.2041,.2441,.3083,.366,.3756,.4669,.7597,.9398,1.1492,1.4185,1.6531,2.1436,2.9717,4.3283,3.9174,6.5103l.989,2.688,.2383,.7774c.0182,.062,.0395,.1229,.0652,.1865,.1266,.2875,.3467,.5316,.6214,.685,.0048,.0043,.0123,.008,.0171,.0107l.0054,.0016,.007,.0037c.2025,.1074,.4301,.1672,.6577,.1715,.14,.0027,.2827-.0155,.4269-.0545,.3061-.0871,.5776-.2741,.7667-.5279,.0064-.0086,.0139-.0161,.0187-.0246,.055-.078,.1053-.1624,.1464-.2548,.0283-.0647,.0518-.1299,.07-.1913,.2148-.701,3.0428-10.4517,10.2396-20.9856,3.8703-4.9341,8.0591-9.6219,11.649-13.1958,2.5325-2.1921,5.3274-4.2438,8.4016-6.063,2.5357,.3387,6.5867,.9553,8.3509,1.4217,.5434,.1426,.8249,1.013,.8869,1.3213,.1266,.8693,.8004,1.5596,1.6659,1.7161,.272,.0481,.5461,.0417,.8153-.0187,.5685-.1277,1.0616-.4958,1.3534-1.0157,.2148-.397,2.0474-3.9975,.6395-7.9304M47.3795,14.365c6.803-3.5514,13.9411-6.1801,21.2143-7.8112,3.0112-.6759,6.0775-1.185,9.109-1.5141,1.1391-.1229,2.3824-.2265,3.7945-.311,1.5772,.0449,2.9872,.2532,4.1888,.6203,.1576,.0465,.4964,.2174,1.0077,.5038l3.0626,1.8636,.4894,.3163c-6.8789,1.6178-13.675,4.1589-20.213,7.551-10.2652,.2687-19.1621-.7459-22.6531-1.2187m15.0577,13.6274c-4.6632,1.0461-8.5929,1.6808-10.6077,1.9795,14.657-13.0173,29.6111-18.4152,39.5846-20.6522,.1336-.0305,.2602-.055,.3901-.0807l.2361-.0492c1.0504,.6812,2.2547,1.4687,3.7779,2.4727-9.2559,3.6652-16.2989,9.0022-20.5785,12.8426-4.1097,1.3293-8.4155,2.5031-12.8025,3.4873m1.9512,11.2494c10.6771-15.7037,23.8216-23.1067,32.9873-26.5545,1.2085,.7945,2.4769,1.6301,3.7886,2.4876-1.5868,.9943-3.1448,2.0703-4.6419,3.1993-4.5067,3.4007-8.6436,7.449-12.3024,12.03-8.4374,4.7802-16.5884,7.745-19.8316,8.8376m10.4228,10.2572c7.3934-18.0311,19.1835-28.1034,27.7919-33.3837,1.4506,.95,2.8659,1.8646,4.2,2.7265-1.6729,1.5222-3.2976,3.164-4.8321,4.886-3.2404,3.639-6.141,7.7295-8.6142,12.1582-7.581,6.8741-15.4104,11.7655-18.5456,13.613m11.8526,9.4702c3.7437-19.8353,13.7503-32.2911,21.5007-39.2571,2.1724,1.3875,4.2465,2.6928,6.1726,3.8762-1.5724,1.3635-3.086,2.8333-4.4933,4.3715-4.1722,4.5441-9.8426,12.3457-13.1648,23.7067-4.3656,3.6663-8.3952,6.2917-10.0152,7.3026m9.6118,1.4073c2.8942-18.4355,12.1673-29.7105,19.4517-35.9317,1.8849,1.1439,3.7774,2.2611,5.6298,3.3222-1.1899,1.045-2.2894,2.1072-3.3612,3.2458-3.9959,4.247-9.3698,11.5817-12.2864,22.4079-4.0958,3.5145-7.9026,6-9.4339,6.9558m20.8494-10.5024c-4.6905,5.5656-9.4964,9.694-11.4374,11.2798,2.2867-16.7103,10.5548-26.9354,17.1067-32.5753l.2132,.1202c.1068,.0598,.2132,.1202,.3158,.1779-.6775,1.0146-1.3079,2.0639-1.8775,3.1293-2.8563,5.3386-4.3507,11.5165-4.3207,17.8681m2.7046,9.7432c-3.2661-13.9539,.8441-24.0011,4.8866-29.9873,.4071,.2233,.8682,.4744,1.3095,.7042-1.239,5.6239-.8485,11.2392,1.1583,16.6905-2.5977,5.9658-5.9669,10.7396-7.3544,12.5926m14.4914-3.2666c-7.9592-9.8298-8.1516-19.1717-6.8971-25.301,3.3291,1.6803,6.07,2.813,8.1478,3.3692,2.1334,9.0919-.382,18.9799-1.2508,21.9318m6.0946,9.6123c.0721-.1816-.2949-.9088-.3596-1.1108-.1117-.3505-.2223-.702-.3307-1.0536-.2041-.6636-.4023-1.3288-.5909-1.9971-.6897-2.4385-1.2721-4.9234-1.4826-7.4538-.1694-2.0319-.0663-4.0643,.1138-6.0914,.2554-2.8606,.6208-5.68,.3676-8.5464-.1277-1.4431-.6727-3.8191-.9323-5.5571,13.2209-6.1587,27.8245-6.7961,33.1155-6.5231-17.2382,11.0233-26.6084,30.0236-29.9007,38.3333m43.2348-38.1394c-.0203,.2602-.0427,.5124-.0823,.7496-.0112,.0764-.0246,.1485-.0369,.2196-.0566,.2901-.1191,.5669-.1923,.8163-.4215-.7469-1.1033-1.5206-2.2328-1.8176-1.9629-.5226-4.5847-1.0627-7.7674-1.4041-.0112-.0032-.0257-.0032-.0369-.0048-.0609-.0064-.1234-.0198-.1849-.0299-1.4687-.7475-7.7028-.631-12.9099-.0684-6.0876,.6572-15.1325,2.2878-23.765,6.3136-.9024-.678-2.174-.9312-3.7299-1.5794-.5161-.2148-1.0488-.4493-1.5991-.702,8.3022-5.6228,16.3854-9.5028,23.4823-11.7585,.0107-.0022,.0166-.0037,.0235-.007,.7779-.2479,1.543-.4734,2.2942-.6812,.054-.0155,.1048-.0267,.1587-.0428,.7047-.1918,1.3982-.3708,2.0816-.5295,.1223-.0289,.2399-.0481,.3654-.0769,.6064-.1379,1.207-.2666,1.7936-.3772,.1892-.0347,.366-.0588,.5557-.0924,.5092-.0892,1.0183-.1784,1.5158-.2468,.2629-.038,.5156-.0588,.7736-.0876,.4039-.0476,.8105-.1015,1.2032-.1357,.3548-.0315,.6956-.0417,1.0424-.0604,.2752-.0155,.5632-.0406,.8335-.0475,.6112-.0171,1.2021-.0161,1.7728,.0069,4.0884,.1539,6.9243,1.3624,7.9828,3.4002,.0556,.1021,.1448,.1822,.2506,.2244,3.2121,1.2721,5.2499,3.0497,6.0556,5.2856,.1459,.4093,.2367,.8148,.296,1.2091,.0224,.1309,.0219,.2565,.0368,.3852,.024,.2672,.0433,.5289,.039,.7806-.0043,.1239-.0112,.2383-.0198,.3585"/><path class="cls-4" d="M147.8252,172.9964c-1.3544,0-2.7056-.2201-4.0146-.6539-1.3106-.4397-2.5694-1.0515-3.7443-1.8192l-.1539-.0994,.7672-1.3026,.1699,.1068c1.09,.6871,2.2333,1.2561,3.3981,1.6873,1.1626,.4344,2.4251,.6556,3.7571,.6556,.8757,0,1.721-.1309,2.5079-.3873,.7667-.2495,1.4564-.6251,2.0527-1.1156,.584-.4798,1.059-1.0643,1.4052-1.7354,.3452-.6604,.5198-1.4153,.5198-2.2419,0-.927-.1747-1.7092-.5166-2.3332-.3494-.6385-.8158-1.199-1.3886-1.6638-.5877-.4862-1.2598-.9131-1.9918-1.2737-.7502-.366-1.5227-.7363-2.3124-1.0921-.8885-.406-1.7551-.8292-2.594-1.2588-.8527-.4445-1.6055-.9526-2.2322-1.519-.6433-.5824-1.1626-1.262-1.5489-2.01-.3932-.7683-.5931-1.6899-.5931-2.7468,0-.9863,.1977-1.9042,.5909-2.7259,.3884-.8185,.9425-1.5403,1.6483-2.1452,.6924-.5989,1.535-1.0723,2.501-1.4046,.9676-.3243,2.0452-.4889,3.2073-.4889,1.2177,0,2.3567,.1726,3.3842,.5124,1.0215,.3377,1.9357,.7747,2.7201,1.3133l.1533,.1021-.8143,1.3031-.1673-.1181c-.6657-.46-1.4719-.8607-2.3984-1.1979-.9136-.3243-1.9309-.4894-3.0241-.4894-.9008,0-1.7487,.1362-2.5186,.4028-.7587,.2618-1.4287,.6278-1.9918,1.0964-.5626,.4707-.9857,1.0098-1.294,1.6397-.3061,.6305-.4616,1.324-.4616,2.0575,0,.9195,.1795,1.7118,.5305,2.3487,.3596,.6449,.826,1.2048,1.387,1.6648,.5727,.4659,1.2443,.8859,1.9939,1.2518,.7645,.366,1.5382,.7336,2.3316,1.0921,.9093,.4066,1.7749,.8265,2.5945,1.2566,.8276,.4424,1.5724,.9617,2.2119,1.5425,.6465,.5829,1.1674,1.2684,1.5484,2.0308,.3841,.764,.5765,1.6729,.5765,2.7061,0,1.1065-.2233,2.1083-.6646,2.9808-.443,.872-1.0477,1.6189-1.7936,2.2178-.7592,.6032-1.6355,1.0659-2.61,1.3801-.9874,.312-2.0404,.4734-3.1288,.4734"/><polygon class="cls-4" points="178.2666 172.566 178.2666 159.6752 162.5313 159.6752 162.5313 172.566 160.9595 172.566 160.9595 145.8581 162.5313 145.8581 162.5313 158.2461 178.2666 158.2461 178.2666 145.8581 179.8389 145.8581 179.8389 172.566 178.2666 172.566"/><path class="cls-4" d="M197.75,172.8527c-1.8572,0-3.6112-.3494-5.2136-1.0403-1.6023-.6914-2.9995-1.6499-4.153-2.8557-1.1663-1.2171-2.0928-2.6698-2.7526-4.324-.6657-1.6536-1.0018-3.4713-1.0018-5.4043,0-1.932,.336-3.7539,1.0018-5.4187,.6598-1.6702,1.5863-3.1368,2.7526-4.3576,1.1589-1.2214,2.5576-2.1922,4.153-2.8798,1.6055-.6882,3.3596-1.036,5.2136-1.036,1.8513,0,3.607,.3478,5.2125,1.036,1.5954,.693,2.9952,1.6584,4.1573,2.8798,1.1589,1.2187,2.0848,2.6832,2.7484,4.3576,.6641,1.6557,1.0028,3.4787,1.0028,5.4187,0,1.9437-.3387,3.7614-1.005,5.407-.6614,1.6557-1.5874,3.1085-2.7462,4.3213-1.1594,1.2059-2.5587,2.1644-4.1573,2.8557-1.6023,.6908-3.3564,1.0403-5.2125,1.0403m0-25.8882c-1.6691,0-3.2185,.3163-4.6104,.9307-1.3988,.6256-2.6217,1.4992-3.6326,2.595-1.0173,1.0958-1.8273,2.407-2.4037,3.8874-.576,1.4778-.8661,3.1042-.8661,4.8508,0,1.7225,.2901,3.3478,.8661,4.8363,.5765,1.4938,1.3849,2.7911,2.4027,3.8688,1.0151,1.0696,2.2403,1.9341,3.6358,2.5566,1.3897,.6203,2.9412,.9329,4.6082,.9329,1.668,0,3.2169-.3126,4.6066-.9329,1.3886-.6182,2.6127-1.4778,3.6369-2.5566,1.0162-1.0776,1.8256-2.3792,2.4021-3.8688,.5733-1.4843,.8661-3.1117,.8661-4.8363,0-1.7466-.2912-3.3767-.8661-4.8508-.5765-1.4778-1.3859-2.7858-2.4054-3.8874-1.0157-1.0985-2.2387-1.972-3.6336-2.595-1.3859-.6166-2.9386-.9307-4.6066-.9307"/><polygon class="cls-4" points="230.2519 149.1356 221.6579 172.9454 220.9387 172.829 214.3548 145.8583 215.8273 145.8583 221.5644 169.159 229.9377 145.8214 230.5714 145.8214 238.9805 169.159 244.6829 145.8583 246.1581 145.8583 239.4982 172.829 238.7806 172.9454 230.2519 149.1356"/><path class="cls-4" d="M256.3682,172.9964c-1.3523,0-2.7024-.2201-4.013-.6539-1.3095-.4397-2.5688-1.0515-3.7448-1.8192l-.1549-.0994,.7704-1.3026,.1704,.1068c1.075,.6834,2.2151,1.2492,3.3927,1.6873,1.1642,.4344,2.4304,.6556,3.7587,.6556,.873,0,1.7199-.1309,2.509-.3873,.7646-.2495,1.4554-.6251,2.0538-1.1156,.5829-.4798,1.0568-1.0643,1.4068-1.7354,.3419-.6631,.5161-1.4191,.5161-2.2419,0-.9233-.1726-1.7054-.5161-2.3332-.3499-.6385-.8158-1.199-1.3891-1.6638-.5909-.4862-1.2604-.9152-1.9918-1.2737-.7496-.366-1.5222-.7363-2.3081-1.0921-.8928-.406-1.7589-.8292-2.5945-1.2588-.8506-.4403-1.6028-.9505-2.2349-1.519-.6428-.5824-1.1621-1.262-1.55-2.01-.3932-.764-.5931-1.6878-.5931-2.7468,0-.9943,.1988-1.9095,.5909-2.7259,.3874-.8158,.9398-1.5382,1.6445-2.1452,.6999-.6011,1.5457-1.0744,2.5085-1.4046,.9628-.3243,2.0426-.4889,3.2046-.4889,1.2155,0,2.3541,.1726,3.3841,.5124,1.0221,.3377,1.9379,.78,2.72,1.3133l.1539,.1021-.8175,1.3031-.1645-.1181c-.6695-.46-1.4768-.8607-2.4005-1.1979-.9099-.3243-1.9261-.4894-3.0192-.4894-.9056,0-1.7546,.1362-2.5213,.4028-.7566,.2591-1.4255,.6278-1.9918,1.0964-.554,.4654-.99,1.02-1.2935,1.6397-.3099,.6384-.4697,1.3277-.4697,2.0575,0,.9152,.1827,1.7054,.537,2.3487,.3564,.6449,.8239,1.2048,1.3886,1.6648,.5749,.4696,1.2459,.8896,1.9929,1.2518,.7657,.366,1.5414,.7336,2.3279,1.0921,.9147,.4066,1.7824,.8265,2.595,1.2566,.8314,.4424,1.5745,.9617,2.2114,1.5425,.6502,.5861,1.1733,1.2684,1.5521,2.0308,.3841,.764,.5776,1.6729,.5776,2.7061,0,1.1103-.2238,2.1104-.6652,2.9808-.452,.8826-1.0541,1.6296-1.7936,2.2178-.7603,.6032-1.6392,1.0659-2.6153,1.3801-.982,.312-2.034,.4734-3.1245,.4734"/><polygon class="cls-4" points="357.0621 114.6378 357.0621 111.6116 341.4604 111.6116 341.4604 137.9123 357.0621 137.9123 357.0621 134.8834 344.7746 134.8834 344.7746 126.0843 355.8327 126.0843 355.8327 123.0522 344.7746 123.0522 344.7746 114.6378 357.0621 114.6378"/><path class="cls-4" d="M335.8849,119.6362c-.6439-1.5639-1.6035-2.9711-2.8552-4.1877-1.2524-1.2134-2.8328-2.197-4.6974-2.9241-1.8572-.7223-4.0435-1.0883-6.4782-1.0883-1.3128,0-2.5341,.039-3.6278,.1202-1.0921,.0839-2.1451,.1859-3.1262,.3008l-.2211,.0262v25.7969l.2211,.0235c.9906,.1149,2.0923,.2143,3.2666,.303,1.1669,.0839,2.422,.1229,3.7336,.1229,2.4379,0,4.605-.3788,6.4488-1.1327,1.8423-.7448,3.397-1.7626,4.6264-3.0102,1.2256-1.2534,2.1559-2.7152,2.7655-4.3475,.6059-1.6296,.9125-3.343,.9125-5.1035,0-1.6921-.3265-3.3377-.9687-4.8994m-13.4341,15.5691c-1.0162,0-1.8961-.0208-2.6095-.0524-.616-.031-1.1685-.094-1.6504-.1886v-20.3947c.4317-.0786,.9735-.1336,1.6184-.1726,.7549-.0497,1.5302-.0732,2.291-.0732,1.838,0,3.4755,.2613,4.8641,.7742,1.3742,.5204,2.5507,1.2321,3.4825,2.1291,.934,.8997,1.6499,1.9854,2.1265,3.2255,.4798,1.2449,.7191,2.6207,.7191,4.083,0,1.4885-.2159,2.9006-.6529,4.1957-.4327,1.2871-1.0995,2.4246-1.9715,3.3794-.8762,.9548-2.0057,1.7161-3.3649,2.2654-1.355,.5493-2.9877,.8292-4.8524,.8292"/><rect class="cls-4" x="305.455" y="111.6114" width="3.3104" height="26.3012"/><polygon class="cls-4" points="298.5173 111.6111 293.5923 129.9894 286.1289 111.3995 285.4413 111.3995 278.0184 130.0834 273.0539 111.6111 269.6884 111.6111 276.9306 138.3157 277.8485 138.4305 285.7186 118.4093 293.727 138.4305 294.6464 138.3157 301.8849 111.6111 298.5173 111.6111"/><path class="cls-4" d="M266.6523,119.6362c-.6459-1.5639-1.6071-2.9711-2.8579-4.1877-1.2492-1.2134-2.828-2.197-4.6969-2.9241-1.8646-.7223-4.0429-1.0883-6.4803-1.0883-1.3095,0-2.5325,.039-3.6289,.1202-1.0883,.0839-2.1425,.1859-3.1207,.3008l-.2239,.0262v25.7969l.2239,.0235c.9889,.1149,2.088,.2143,3.2623,.303,1.1712,.0839,2.4251,.1229,3.7346,.1229,2.4396,0,4.6082-.3788,6.4499-1.1327,1.8417-.7448,3.3975-1.7626,4.6259-3.0102,1.2299-1.2534,2.159-2.7152,2.767-4.3475,.6048-1.6296,.9115-3.343,.9115-5.1035,0-1.6921-.3291-3.3377-.9665-4.8994m-13.4335,15.5691c-1.021,0-1.9005-.0208-2.6132-.0524-.6144-.031-1.1663-.094-1.6499-.1886v-20.3947c.4328-.0786,.9735-.1336,1.6173-.1726,.7571-.0497,1.5297-.0732,2.2915-.0732,1.8396,0,3.4745,.2613,4.8615,.7742,1.3779,.5204,2.555,1.2321,3.4873,2.1291,.9344,.8997,1.6488,1.9854,2.1248,3.2255,.4782,1.2449,.7213,2.6207,.7213,4.083,0,1.4885-.218,2.9006-.6534,4.1957-.4323,1.2871-1.0979,2.4246-1.9726,3.3794-.8768,.9548-2.0063,1.7161-3.3612,2.2654-1.3592,.5493-2.9952,.8292-4.8534,.8292"/><polygon class="cls-4" points="229.6026 134.8835 229.6026 111.6111 226.2912 111.6111 226.2912 137.9129 241.8933 137.9129 241.8933 134.8835 229.6026 134.8835"/><path class="cls-4" d="M215.5023,127.0285c1.7188-.6123,3.0588-1.5537,3.9938-2.8066,.9911-1.3266,1.4923-2.9381,1.4923-4.792,0-1.1327-.2132-2.2023-.6401-3.1785-.421-.9836-1.0616-1.8416-1.9117-2.5581-.8463-.709-1.9149-1.2711-3.1838-1.6664-1.263-.3922-2.7553-.5909-4.4415-.5909-1.0787,0-2.1147,.0395-3.0818,.1202-.966,.0834-1.941,.1859-2.8969,.3008l-.218,.0262v26.0293h3.3121v-10.1594c.359,.0208,.7635,.0289,1.2064,.039,.553,.0107,1.0451,.0182,1.4693,.0182,.3099,0,.6059-.0075,.8896-.0182,.2378-.0101,.4734-.0182,.7095-.0417l6.8586,10.1621h4.0221l-7.5799-10.8839Zm1.5591-9.4376c.2693,.6251,.4039,1.3026,.4039,2.0116,0,1.6109-.5236,2.914-1.5585,3.8661-1.0376,.9655-2.7532,1.4543-5.0954,1.4543-.4851,0-1.0215-.0208-1.6045-.0524-.4846-.0315-.9131-.0657-1.2801-.0994v-10.0756c.4125-.0866,.8939-.1496,1.4377-.1811,.6385-.031,1.2679-.047,1.8711-.047,1.0221,0,1.9379,.1336,2.7174,.4055,.7747,.2692,1.4265,.6352,1.9405,1.0985,.5129,.4525,.9045,.997,1.1679,1.6194"/><path class="cls-4" d="M199.3952,119.3196c-.6812-1.6552-1.6242-3.0999-2.7996-4.2925-1.1808-1.1872-2.5763-2.1345-4.1471-2.8167-1.5718-.678-3.265-1.0232-5.0271-1.0232-1.7631,0-3.4669,.3452-5.0618,1.0232-1.5922,.6774-3.015,1.6263-4.2176,2.8167-1.2011,1.1904-2.1719,2.634-2.8867,4.2898-.7111,1.651-1.0739,3.4899-1.0739,5.4647,0,1.9485,.3435,3.7742,1.0199,5.4299,.6823,1.651,1.6215,3.0999,2.8007,4.3005,1.1791,1.2059,2.5747,2.1532,4.1471,2.8199,1.5751,.6673,3.2656,1.0066,5.0255,1.0066s3.4616-.3393,5.0607-1.0066c1.5959-.6668,3.0118-1.6141,4.2177-2.8167,1.2016-1.2038,2.1713-2.6506,2.884-4.3005,.7149-1.6557,1.0761-3.4846,1.0761-5.4331,0-1.9726-.3425-3.8116-1.0178-5.462m-12.0802,16.0216c-1.3891,0-2.6875-.2693-3.8602-.8057-1.1728-.5311-2.1922-1.2791-3.0342-2.2259-.8431-.9494-1.5094-2.0719-1.9758-3.3532-.4681-1.2823-.7063-2.6842-.7063-4.1749s.2383-2.8959,.7063-4.1776c.4664-1.2764,1.1327-2.4064,1.9758-3.3505,.842-.9419,1.8614-1.6953,3.0342-2.229,1.1727-.5332,2.4711-.8057,3.8602-.8057,1.3881,0,2.6789,.2725,3.841,.8057,1.1599,.5338,2.1745,1.2871,3.0144,2.2264,.8447,.9468,1.5088,2.0768,1.9785,3.3532,.4686,1.2817,.7063,2.6864,.7063,4.1776s-.2378,2.8926-.7063,4.1749c-.4696,1.2785-1.1337,2.4037-1.9785,3.3532-.8399,.9467-1.8545,1.6948-3.0144,2.2285-1.1589,.5338-2.4497,.803-3.841,.803"/><polygon class="cls-4" points="168.7452 111.6111 163.8185 129.9894 156.3573 111.3995 155.6696 111.3995 148.2393 130.0834 143.2812 111.6111 139.912 111.6111 147.1542 138.3157 148.0759 138.4305 155.9443 118.4093 163.9521 138.4305 164.8695 138.3157 172.1096 111.6111 168.7452 111.6111"/><polygon class="cls-4" points="156.528 103.6794 156.528 93.115 146.3948 93.115 146.3948 103.6794 140.2863 103.6794 140.2863 77.3408 146.3948 77.3408 146.3948 87.6535 156.528 87.6535 156.528 77.3408 162.6365 77.3408 162.6365 103.6794 156.528 103.6794"/><path class="cls-4" d="M191.4548,104.6855l-3.0903-2.8028c-1.0782,.6951-2.2456,1.2401-3.5038,1.6354-1.2577,.3948-2.5929,.5925-4.0061,.5925-2.0367,0-3.8752-.3478-5.516-1.0419-1.6413-.6946-3.0422-1.6467-4.2043-2.8568-1.1621-1.2091-2.0602-2.641-2.6949-4.294-.6348-1.6531-.9521-3.4499-.9521-5.3899s.3291-3.7427,.9884-5.408c.6582-1.6648,1.5868-3.102,2.7847-4.3117,1.1973-1.2096,2.6287-2.1617,4.2935-2.8568,1.6648-.6946,3.5156-1.0419,5.5518-1.0419s3.8811,.3473,5.5341,1.0419c1.6525,.6951,3.0593,1.6472,4.2219,2.8568,1.1615,1.2096,2.0538,2.6469,2.6768,4.3117,.6224,1.6654,.9344,3.4675,.9344,5.408,0,1.3651-.1977,2.6832-.593,3.9526-.3954,1.27-.9403,2.4433-1.6349,3.5215,0-.0235,.1555,.0957,.467,.3596,.3115,.2634,.647,.5508,1.0061,.8618,.4312,.3596,.9104,.779,1.4377,1.2577l-3.701,4.2043h0Zm-3.4857-14.1575c0-1.1973-.1678-2.2937-.5033-3.288-.3355-.9938-.8084-1.8502-1.4191-2.5688-.6112-.7186-1.3475-1.2818-2.2098-1.6894-.8623-.4066-1.8091-.6107-2.8392-.6107s-1.9758,.2041-2.8381,.6107c-.8629,.4077-1.5991,.9708-2.2098,1.6894-.6112,.7186-1.0846,1.5751-1.4196,2.5688-.3355,.9943-.5027,2.0906-.5027,3.288,0,1.1738,.1672,2.2579,.5027,3.2517,.335,.9943,.8084,1.8572,1.4196,2.5875,.6107,.7309,1.3469,1.2999,2.2098,1.707,.8623,.4077,1.808,.6101,2.8381,.6101s2.0244-.2271,2.9829-.6823l-3.881-3.3056,3.701-4.2401,3.6652,3.3414c.3355-1.0536,.5033-2.1436,.5033-3.2698"/></g></g></svg>