<?xml version="1.0" encoding="UTF-8"?><svg id="Layer_1" xmlns="http://www.w3.org/2000/svg" viewBox="0 0 400 175"><defs><style>.cls-1{fill:#00387f;}.cls-2{fill:#b09d60;}</style></defs><g id="_层_2"><path class="cls-1" d="M213.8455,117.0352c-15.9508,0-25.6829-13.3654-25.6829-26.621,0-12.1303,8.7192-27.051,26.0361-27.051,9.6116,0,21.277,6.5685,21.277,23.0443h-36.6697v3.1195c0,11.252,6.1069,21.0406,18.1072,21.0406,7.9195,0,15.9414-6.3396,18.0979-11.5722-.3348,9.1297-9.0442,18.0399-21.1655,18.0399m-14.5934-34.7538h25.8128c0-10.7947-6.0047-14.9112-12.2324-14.9112-8.2636,0-12.6695,7.236-13.5804,14.9112"/><path class="cls-1" d="M336.8773,110.3252v-1.7658h-.0094v-30.1706c0-13.1457-11.2101-15.0301-17.7819-15.0301-9.156,0-13.6922,2.8998-17.8749,5.571l.223,13.8046c2.7145-8.0227,6.6835-15.1401,16.3039-15.1401,7.1204,0,9.7231,5.004,9.7231,9.6881,0,.5489,0,4.2262-.4462,4.6746-3.5045,3.6684-17.0849,5.2326-23.0803,8.9103-5.8839,3.449-7.5944,8.3522-7.5944,12.5787,0,4.7846,3.5138,13.594,13.5898,13.594,7.6035,0,13.4689-3.9886,17.0477-7.5381,.0371-.0089,.0371-.0274,.0556-.0365v.8601c0,2.4425-1.2362,4.7019-3.058,5.7083,0,0,4.2571-.7228,7.8358-.7228,3.56,0,8.2265,.7228,8.2265,.7228-1.8033-1.0065-3.1604-3.2658-3.1604-5.7083m-22.3087,.4754c-5.3356,0-8.5983-3.3482-8.5983-9.2486,0-5.6718,4.0622-8.3522,9.3884-10.3556,5.3075-1.665,8.4866-2.4517,12.1025-4.2265v18.0399c-3.1697,3.2203-7.3527,5.7907-12.8925,5.7907"/><path class="cls-1" d="M254.6986,110.3232v-39.4192c0-4.0983,1.1338-6.6964,2.8256-7.5836,0,0-4.183-.3568-7.7431,2.8175-3.56-3.1743-7.7521-2.8175-7.7521-2.8175,.0185,.0089,.0465,.0181,.0556,.0274-.0371,0-.0556,.0092-.0556,.0092,1.7009,.8872,2.8256,3.4853,2.8256,7.5744v39.3918c0,2.4428-1.2456,4.7022-3.0489,5.7176,0,0,4.2573-.7225,7.8267-.7225s8.2355,.7225,8.2355,.7225c-1.8123-1.0154-3.1694-3.2748-3.1694-5.7176"/><path class="cls-2" d="M253.3971,46.7171c-1.3574,1.1527-2.5099,2.3147-3.1513,3.5405-3.0024-9.5233-20.9887-14.8934-12.0282-25.3494-18.3955,17.3629,8.9237,21.6903,12.0282,36.8669,.2695-3.8881,2.4447-6.6967,5.131-9.3036,.3254-2.2415-.5855-4.0528-1.9797-5.7544"/><path class="cls-2" d="M266.1226,31.8285c-2.3238-9.4865-19.9479-17.6466-15.0121-22.5043-12.2234,7.3003,3.0489,16.5673,10.0204,24.1328,2.2773,3.0098,1.0876,5.5163-1.2269,7.8491-4.9824-9.267-21.0262-16.0916-14.4728-23.2818-12.2699,10.575-.2976,17.1251,7.1388,24.5535,.9015,.9148,1.7474,1.8387,2.4725,2.7809,1.2549,1.6558,2.1565,3.3666,2.4075,5.2145,.1302,1.1162,.0371,2.2962-.3719,3.5221-.2789,.7775-.6508,1.5827-1.1713,2.406,3.6996-3.4397,5.2518-6.5959,5.4008-9.5049,3.6531-3.6776,6.395-8.032,4.8151-15.1678"/><path class="cls-1" d="M88.5042,110.3232v-1.7655h-.0281v-37.0956c0-4.638,.2323-7.346,2.9467-8.1051-.8088,0-5.0845,.3199-7.8733,.8507-2.77-.5307-6.8228-.8507-7.6313-.8507,2.7235,.7591,2.9465,3.4671,2.9465,8.1051v33.3175c-3.2812,3.1287-6.4509,5.681-11.991,5.681-6.4509,0-11.6654-4.8943-11.6654-14.3626v-24.6359c0-4.638,.2414-7.346,2.9465-8.1051-.8088,0-5.0845,.3199-7.8639,.8507-2.7791-.5307-7.0642-.8507-7.8636-.8507,2.7141,.7591,2.9371,3.4671,2.9371,8.1051v11.3801h.0094v13.2557c0,16.5858,10.5131,20.9401,17.1964,20.9401,7.7893,0,12.8088-3.8786,16.2015-7.4647v.7499c0,2.4428-1.3571,4.7022-3.1694,5.7176,0,0,4.2477-.7225,7.8265-.7225s8.2448,.7225,8.2448,.7225c-1.8123-1.0154-3.1694-3.2748-3.1694-5.7176"/><path class="cls-1" d="M180.2468,110.3232v-31.7072c0-10.4748-9.0539-15.2591-16.7411-15.2591-7.2503,0-14.3705,5.2234-17.884,9.7975-2.2588-6.3488-9.0536-9.7975-15.3931-9.7975-7.6872,0-13.7943,5.571-16.5085,7.6844l-.1115,.1005c0-4.4459,.2882-7.044,2.928-7.7849-.7994,0-5.0845,.3199-7.8639,.8507-2.7794-.5307-6.8228-.8507-7.6316-.8507,2.7145,.7591,2.9467,3.4671,2.9467,8.1051v38.8611c0,2.4428-1.3571,4.7022-3.1791,5.7176,0,0,4.2573-.7225,7.8267-.7225,3.5788,0,8.2448,.7225,8.2448,.7225-1.8033-1.0154-3.1604-3.2748-3.1604-5.7176v-34.9364c2.138-2.5618,6.2186-5.681,11.424-5.681,9.0536,0,11.7678,5.4613,11.7678,11.8009v28.8166c0,2.4428-1.2362,4.7022-3.0582,5.7176,0,0,4.2573-.7225,7.8267-.7225s8.2448,.7225,8.2448,.7225c-1.8217-1.0154-3.1697-3.2748-3.1697-5.7176v-31.9361c0-.5578,0-1.1069-.2323-1.6648,2.835-3.8973,7.7059-7.0166,12.2327-7.0166,8.7005,0,11.8792,5.681,11.8792,12.2493v28.3682c0,2.4428-1.487,4.7022-3.2812,5.7176,0,0,4.2479-.7225,7.8174-.7225s8.2358,.7225,8.2358,.7225c-1.8033-1.0154-3.1604-3.2748-3.1604-5.7176"/><path class="cls-1" d="M290.9094,63.3603c-3.9691,0-9.8439,5.791-12.2234,9.7978,0,0-.0746,.1005-.2233,.2744v-1.9668c0-4.638,.2233-7.346,2.9374-8.1054-.7994,0-5.0845,.3202-7.8639,.8509-2.7794-.5307-6.8229-.8509-7.6313-.8509,2.7235,.7593,2.9465,3.4674,2.9465,8.1054v37.0956h-.0094v1.7655c0,2.4425-1.2362,4.7022-3.058,5.7087,0,0,4.2664-.7228,7.8265-.7228,3.5788,0,8.2542,.7228,8.2542,.7228-1.8217-1.0065-3.1788-3.2661-3.1788-5.7087v-33.043c2.1471-2.6804,5.5492-6.0193,9.853-6.0193,2.928,0,4.9731,1.3356,6.6645,3.449v-10.4564c-1.3571-.5673-1.5801-.8968-4.2942-.8968"/><path class="cls-1" d="M394.4487,110.3232v-31.4877c0-10.255-8.1521-15.4785-16.9734-15.4785-7.4733,0-14.5937,5.7907-17.0846,7.9038v-22.8519c0-4.6383,.2323-7.346,2.9465-8.1054-.8088,0-5.0938,.3202-7.873,.8599-2.7701-.5397-7.0461-.8599-7.8546-.8599,2.7141,.7593,2.9371,3.4671,2.9371,8.1054v61.9143c0,2.4428-1.2456,4.7022-3.0489,5.7176,0,0,4.2573-.7225,7.8268-.7225,3.56,0,8.2355,.7225,8.2355,.7225-1.8124-1.0154-3.1695-3.2748-3.1695-5.7176v-34.6072c2.1565-2.8909,7.241-5.7815,12.3349-5.7815,9.2766,0,12.1025,6.0102,12.1025,12.5787v27.8101c0,2.4428-1.4689,4.7022-3.2812,5.7176,0,0,4.2571-.7225,7.8358-.7225,3.5694,0,8.2355,.7225,8.2355,.7225-1.8033-1.0154-3.1695-3.2748-3.1695-5.7176"/><path class="cls-1" d="M27.6839,41.1606c-2.7794-.5397-7.6409-.8507-8.4497-.8507,2.7235,.7593,2.9467,3.4579,2.9467,8.1054v55.2545c0,29.0636-16.2946,34.4152-19.799,36.4096,27.3841-4.1167,30.6653-31.6251,30.6653-37.4066V48.4154c0-4.6475,.223-7.346,2.9371-8.1054-.7994,0-5.5214,.311-8.3005,.8507"/><path class="cls-1" d="M52.6392,165.3728c.4924-.2744,.7994-.6952,.7994-1.3629v-9.2305h-9.5464v9.2305c0,.6678,.2789,1.0885,.7994,1.3629h-5.5495c.4928-.2744,.7994-.6952,.7994-1.3629v-17.8113c0-.6954-.3066-1.1162-.7994-1.354h5.5495c-.5205,.2378-.7994,.6586-.7994,1.354v7.099h9.5464v-7.099c0-.6954-.3069-1.1162-.7994-1.354h5.5491c-.5205,.2378-.8553,.6586-.8553,1.354v17.8113c0,.6678,.3348,1.0885,.8553,1.3629h-5.5491Z"/><path class="cls-1" d="M77.3302,146.0796c-4.0528,0-7.1201,3.1745-7.1479,8.5169-.0281,6.4311,3.6809,9.3586,7.2132,9.3586,4.0153,0,6.9621-3.1377,6.9899-8.6085,.0371-5.8273-2.9746-9.267-7.0552-9.267m-.2136,19.5953c-6.163-.0913-11.3218-4.5556-11.201-10.7489,.093-5.2235,4.3317-10.5022,11.6935-10.4198,5.2425,.0642,11.1917,3.8058,11.1079,10.6577-.1302,7.0716-6.0512,10.5753-11.6004,10.5111"/><path class="cls-1" d="M109.017,146.5625s-2.7887-.2102-5.0289-.2102v17.665c0,.6586,.3348,1.0793,.79,1.354h-5.4842c.4928-.2747,.7994-.6954,.7994-1.354v-17.665c-2.2773,0-4.9171,.2102-4.9171,.2102-.7344,.0276-1.2549,.6954-1.5338,1.2077v-2.9275h16.8154v2.9275c-.2789-.5123-.7066-1.1801-1.4408-1.2077"/><path class="cls-1" d="M130.4882,165.3728h-13.1901c.5205-.3018,.9202-.6309,.9202-1.3629v-17.8113c0-.6954-.4278-1.1162-.9202-1.354h12.3348l.0837,2.653c-.5764-.7867-1.2272-1.0246-2.3891-1.0888-.9202-.0547-5.2144-.0547-5.2144-.0547v6.9435h4.6289c.4369,0,.9574-.485,1.106-.8509v3.2019c-.1486-.4207-.6692-.8691-1.106-.8691h-4.6289v8.8737c.6133,.0916,2.4818,.1829,3.9875,.1463,2.6676-.0913,3.8948,0,5.0286-1.9026l-.6411,3.476h0Z"/><path class="cls-1" d="M150.8552,165.3728h-12.9113c.5205-.2744,.855-.6952,.855-1.3629v-17.8113c0-.6954-.3344-1.1162-.855-1.354h5.5492c-.4924,.2378-.7994,.6586-.7994,1.354v17.4545c.6136,.0274,2.0266,.1829,3.402,.1463,3.4114-.0913,4.4803-.1463,5.438-1.9026l-.6785,3.476h0Z"/><path class="cls-1" d="M164.0387,165.6749c-2.7887,0-4.815-.933-5.8932-1.4453l-.1489-5.1045c.5858,2.1405,2.4262,4.9764,5.6144,4.9764,3.0395,0,3.9598-2.1405,3.9598-3.6226,0-2.8906-2.677-3.2566-5.4655-4.7661-2.8259-1.5095-4.0528-3.1743-4.0528-5.4613,0-4.1076,3.9039-5.7452,6.6926-5.7452,1.041,0,3.0674,.2105,4.6289,1.1162l.158,4.4735c-.4275-1.6011-2.1842-4.0163-5.1217-4.0163-2.3332,0-3.2534,1.6011-3.2534,2.9001,0,1.8387,1.3199,2.5064,4.2017,3.8331,2.8534,1.299,5.828,2.3236,5.828,6.5225,0,3.7692-3.3743,6.3396-7.1479,6.3396"/><path class="cls-1" d="M196.9181,145.933c-.9202,0-2.0821,.6862-2.0821,2.1957,0,1.2717,.9202,2.4152,2.5096,4.1715,1.106-.7867,1.9707-1.8387,1.9707-3.4121,0-.9972-.6508-2.9551-2.3981-2.9551m-1.5897,9.6239c-.7716,.5123-2.0263,1.7293-2.0263,3.6595,0,3.6773,4.3223,5.9462,7.176,2.6254l-5.1497-6.2849h0Zm7.8826,9.8159c-.4278-.6309-1.6547-2.1131-1.6547-2.1131-5.131,4.7388-11.7865,1.7474-11.7865-2.9914,0-2.8633,1.9707-4.7114,4.4247-5.9739-1.1063-1.3629-2.77-3.2658-2.77-5.1961,0-2.6254,2.0912-4.5922,5.5585-4.5922,3.8295,0,5.4936,2.0581,5.4936,4.1076,0,2.5064-2.3981,3.9244-4.0528,4.949l4.2664,5.4066c.6695-1.2074,1.8127-5.2237-.7713-5.7907h3.5972c.2976,2.3236-.316,4.4644-1.664,7.1537,1.5991,1.9029,3.3186,4.5559,4.6942,5.0406h-5.3352Z"/><path class="cls-1" d="M232.5635,146.2956c-.9202,0-1.7755,.0547-1.7755,.0547v7.8857s.8553,.055,1.3758,.055c2.0915,0,4.2945-1.1435,4.2945-4.1988,0-1.3814-.8553-3.7965-3.8948-3.7965m8.9609,19.1377c-1.1713,.0276-2.1752-.6952-2.7329-1.4179-1.3758-1.9026-2.7329-4.1073-3.8298-5.7997-.7994-1.2077-1.5057-2.5068-2.8256-2.5068-.3719,0-1.348,.0639-1.348,.0639v8.2425c0,.6681,.3348,1.0888,.8553,1.354h-5.5492c.4924-.2652,.7994-.6859,.7994-1.354v-17.8113c0-.6952-.3069-1.1251-.7994-1.3629h6.6274c6.3488,0,7.7896,3.0461,7.7896,5.0771,0,3.2566-3.0024,4.8851-5.1869,5.0406,2.0915,.2105,3.0117,1.6011,3.4673,2.2597,0,0,3.7087,5.7083,4.7591,6.9435,.6136,.6952,1.9613,1.2074,1.9613,1.2074l-3.9875,.0639h0Z"/><path class="cls-1" d="M263.1165,165.3728h-13.1901c.5205-.3018,.9202-.6309,.9202-1.3629v-17.8113c0-.6954-.4278-1.1162-.9202-1.354h12.3348l.0837,2.653c-.5764-.7867-1.2178-1.0246-2.3891-1.0888-.9202-.0547-5.2144-.0547-5.2144-.0547v6.9435h4.6289c.4275,0,.9574-.485,1.106-.8509v3.2019c-.1486-.4207-.6785-.8691-1.106-.8691h-4.6289v8.8737c.6133,.0916,2.4818,.1829,3.9875,.1463,2.6676-.0913,3.8948,0,5.0286-1.9026l-.6411,3.476h0Z"/><path class="cls-1" d="M276.1773,165.6749c-2.7887,0-4.8151-.933-5.8932-1.4453l-.1489-5.1045c.5858,2.1405,2.4262,4.9764,5.6144,4.9764,3.0305,0,3.9507-2.1405,3.9507-3.6226,0-2.8906-2.6679-3.2566-5.4564-4.7661-2.8259-1.5095-4.0528-3.1743-4.0528-5.4613,0-4.1076,3.9039-5.7452,6.6926-5.7452,1.041,0,3.0674,.2105,4.6289,1.1162l.158,4.4735c-.4275-1.6011-2.1749-4.0163-5.1217-4.0163-2.3332,0-3.2534,1.6011-3.2534,2.9001,0,1.8387,1.3199,2.5064,4.2017,3.8331,2.8534,1.299,5.828,2.3236,5.828,6.5225,0,3.7692-3.3743,6.3396-7.1479,6.3396"/><path class="cls-1" d="M301.8497,146.0796c-4.0528,0-7.1201,3.1745-7.1479,8.5169-.0281,6.4311,3.6809,9.3586,7.2132,9.3586,4.0153,0,6.9621-3.1377,6.9899-8.6085,.0278-5.8273-2.9746-9.267-7.0552-9.267m-.2136,19.5953c-6.163-.0913-11.3218-4.5556-11.201-10.7489,.093-5.2235,4.3317-10.5022,11.6935-10.4198,5.2425,.0642,11.1916,3.8058,11.0986,10.6577-.1209,7.0716-6.0419,10.5753-11.5911,10.5111"/><path class="cls-1" d="M327.4918,146.2956c-.9202,0-1.7755,.0547-1.7755,.0547v7.8857s.8553,.055,1.3758,.055c2.0915,0,4.2945-1.1435,4.2945-4.1988,0-1.3814-.8553-3.7965-3.8948-3.7965m8.9609,19.1377c-1.1619,.0276-2.1752-.6952-2.7329-1.4179-1.3758-1.9026-2.7329-4.1073-3.8298-5.7997-.7994-1.2077-1.5057-2.5068-2.8256-2.5068-.3719,0-1.348,.0639-1.348,.0639v8.2425c0,.6681,.3348,1.0888,.8553,1.354h-5.5492c.4924-.2652,.7994-.6859,.7994-1.354v-17.8113c0-.6952-.3069-1.1251-.7994-1.3629h6.6274c6.3489,0,7.7896,3.0461,7.7896,5.0771,0,3.2566-3.0024,4.8851-5.1869,5.0406,2.0915,.2105,3.0117,1.6011,3.4673,2.2597,0,0,3.7087,5.7083,4.7592,6.9435,.6135,.6952,1.9613,1.2074,1.9613,1.2074l-3.9875,.0639h-.0002Z"/><path class="cls-1" d="M357.4629,146.5625s-2.7887-.2102-5.0289-.2102v17.665c0,.6586,.3348,1.0793,.79,1.354h-5.4842c.4928-.2747,.7994-.6954,.7994-1.354v-17.665c-2.2773,0-4.9171,.2102-4.9171,.2102-.7344,.0276-1.2549,.6954-1.5338,1.2077v-2.9275h16.8154v2.9275c-.2789-.5123-.7066-1.1801-1.4408-1.2077"/><path class="cls-1" d="M371.1707,165.6749c-2.7887,0-4.8151-.933-5.8932-1.4453l-.1489-5.1045c.5858,2.1405,2.4262,4.9764,5.6144,4.9764,3.0395,0,3.9598-2.1405,3.9598-3.6226,0-2.8906-2.6676-3.2566-5.4655-4.7661-2.826-1.5095-4.0434-3.1743-4.0434-5.4613,0-4.1076,3.8945-5.7452,6.6833-5.7452,1.041,0,3.0673,.2105,4.6289,1.1162l.158,4.4735c-.4275-1.6011-2.1749-4.0163-5.1216-4.0163-2.3332,0-3.2534,1.6011-3.2534,2.9001,0,1.8387,1.3199,2.5064,4.2017,3.8331,2.8535,1.299,5.828,2.3236,5.828,6.5225,0,3.7692-3.3743,6.3396-7.1479,6.3396"/></g></svg>