<?xml version="1.0" encoding="UTF-8"?><svg id="Layer_1" xmlns="http://www.w3.org/2000/svg" viewBox="0 0 400 175"><defs><style>.cls-1{fill:#be9f56;}.cls-2{fill:#3e3200;}</style></defs><polygon class="cls-2" points="119.2561 120.8979 112.7156 106.0289 108.7465 106.0289 108.7465 125.8771 111.9804 125.8771 111.9804 112.4761 117.8763 125.8771 120.4929 125.8771 126.2777 112.5148 126.2777 125.8771 129.5138 125.8771 129.5138 106.0289 125.674 106.0289 119.2561 120.8979"/><polygon class="cls-2" points="142.388 106.0294 133.9639 125.8778 137.6495 125.8778 144.0083 110.3549 146.7135 116.9295 143.3434 116.9295 142.3108 119.9704 147.9662 119.9704 150.3991 125.8778 154.257 125.8778 145.7875 106.0294 142.388 106.0294"/><path class="cls-2" d="M160.7419,119.9331c0,1.9857-1.0825,2.9071-3.4087,2.9071h-.5333v3.0389h.5333c5.7053,0,6.9013-3.234,6.9013-5.946v-13.9046h-3.4926v13.9046h0Z"/><rect class="cls-2" x="171.3621" y="106.0293" width="3.4972" height="19.8482"/><path class="cls-2" d="M189.2425,122.8413h-3.8648v-13.7776h3.8648c4.2824,0,6.3634,2.0878,6.3634,6.3793,0,4.9792-2.081,7.3983-6.3634,7.3983m0-16.8119h-7.3643v19.8484h7.3643c6.5449,0,9.8606-3.5108,9.8606-10.4348,0-6.2477-3.3156-9.4135-9.8606-9.4135"/><polygon class="cls-2" points="220.8293 106.0294 212.4007 125.8778 216.084 125.8778 222.4452 110.3549 225.1526 116.9295 221.7802 116.9295 220.7499 119.9704 226.4053 119.9704 228.8358 125.8778 232.6961 125.8778 224.2266 106.0294 220.8293 106.0294"/><polygon class="cls-2" points="240.6379 106.0294 237.143 106.0294 237.143 125.8778 250.4644 125.8778 250.4644 122.8413 240.6379 122.8413 240.6379 106.0294"/><polygon class="cls-2" points="265.3128 125.8779 268.8076 125.8779 268.8076 117.3451 278.1962 117.3451 278.1962 114.3017 268.8076 114.3017 268.8076 109.0662 278.6592 109.0662 278.6592 106.0297 265.3128 106.0297 265.3128 125.8779"/><path class="cls-2" d="M296.7769,118.0945c0,3.327-1.5409,4.8771-4.852,4.8771s-4.8543-1.5501-4.8543-4.8771v-12.0641h-3.4972v12.0641c0,5.2515,2.8096,7.9158,8.3515,7.9158s8.3514-2.6643,8.3514-7.9158v-12.0641h-3.4994v12.0641Z"/><polygon class="cls-2" points="305.1943 109.0663 311.1016 109.0663 311.1016 125.8782 314.6033 125.8782 314.6033 109.0663 320.5129 109.0663 320.5129 106.03 305.1943 106.03 305.1943 109.0663"/><polygon class="cls-2" points="323.9896 109.0663 329.8969 109.0663 329.8969 125.8782 333.3941 125.8782 333.3941 109.0663 339.3059 109.0663 339.3059 106.03 323.9896 106.03 323.9896 109.0663"/><polygon class="cls-2" points="348.9625 106.0294 340.5384 125.8778 344.2239 125.8778 350.5783 110.3549 353.288 116.9295 349.9179 116.9295 348.883 119.9704 354.5407 119.9704 356.9735 125.8778 360.8292 125.8778 352.3597 106.0294 348.9625 106.0294"/><rect class="cls-2" x="365.6715" y="106.0293" width="3.4949" height="19.8482"/><polygon class="cls-2" points="386.6983 120.8979 380.1555 106.0289 376.1909 106.0289 376.1909 125.8771 379.4248 125.8771 379.4248 112.4761 385.3162 125.8771 387.9396 125.8771 393.7244 112.5148 393.7244 125.8771 396.9583 125.8771 396.9583 106.0289 393.1184 106.0289 386.6983 120.8979"/><rect class="cls-2" x="147.2087" y="95.2767" width="3.4972" height="3.9828"/><rect class="cls-2" x="153.318" y="95.2767" width="3.5017" height="3.9828"/><rect class="cls-2" x="228.4129" y="65.9945" width="3.4949" height="3.9942"/><path class="cls-2" d="M126.4674,88.6792c-2.3307,0-3.7195-1.8041-3.7195-4.8293,0-3.2793,1.4048-5.1584,3.8512-5.1584,2.2739,0,3.5743,1.7453,3.5743,4.7862,0,4.6614-2.1151,5.2015-3.706,5.2015m72.0107-1.6634c0,.5197-.0181,1.0643-.059,1.6295h-15.7384c1.7747-5.3944,6.4905-9.9877,10.378-9.9877,3.3406,0,5.4193,3.1998,5.4193,8.3582m31.6265-10.7366c1.3389,0,2.4033,.4199,3.1749,1.2481,.733,.7739,1.0916,1.7316,1.0916,2.9298,0,1.1301-.3745,2.2399-1.1166,3.2997-.7534,1.1008-1.7747,1.9313-3.1114,2.5327-1.4093-.6264-2.4532-1.4682-3.193-2.569-.7194-1.0257-1.0643-2.106-1.0643-3.2997,0-2.4759,1.6952-4.1417,4.2188-4.1417m39.5014,9.2274v-16.7028h-3.4767v15.6317c0,1.4979-.1475,2.519-.4493,3.0569-.3903,.7762-1.1823,1.153-2.4237,1.153l-27.1263-.0387c-.7943,0-1.55-.118-2.2603-.3517,1.1892-.7262,2.1423-1.6839,2.8527-2.8505,.8715-1.4093,1.314-2.957,1.314-4.6024,0-2.0832-.6717-3.8716-1.9993-5.3126-1.4547-1.5705-3.4472-2.3693-5.9322-2.3693-2.4532,0-4.4367,.7943-5.9005,2.3647-1.3412,1.4252-2.022,3.2157-2.022,5.3172,0,1.6454,.4403,3.1932,1.3117,4.5978,.7103,1.1711,1.6657,2.1288,2.8458,2.8551-.7103,.2337-1.4638,.3517-2.2581,.3517h-22.0791c.0113-.3586,.0113-.7035,.0113-1.0416,0-8.0815-2.957-12.1778-8.7895-12.1778-4.0282,0-8.1041,2.9049-10.673,7.4392l.4788-13.9887h-3.6197v19.8051l-23.0073-.0341c.2678-.8532,.3994-1.8767,.3994-3.1067v-10.0785h-3.4631v9.0119c0,1.4797-.152,2.519-.4471,3.0887-.3926,.7512-1.1892,1.1212-2.4351,1.1212l-10.5732-.0387c-3.1795,0-5.349-1.9335-5.6667-5.0472-.5152-5.1698-3.2793-8.1359-7.5798-8.1359h-10.0308c-5.2174,0-7.8612,3.3792-7.8612,10.0423v12.1708h3.4677v-12.0324c0-4.3959,1.6408-7.0215,4.3936-7.0215h3.5811c-.96,1.4048-1.4456,3.1159-1.4456,5.0994,0,5.0358,3.0319,8.2878,7.725,8.2878,2.8299,0,4.9473-1.112,6.3067-3.3134,1.3435,2.2694,3.8217,3.4201,7.3846,3.4201h81.9009c1.9834,0,3.3133-.068,4.0691-.2087,1.255-.2428,2.603-.7671,4.0146-1.5681,1.4297,.8146,2.7278,1.3275,3.9669,1.5681,.758,.1407,2.0765,.2087,4.0396,.2087h25.8849c2.5418,0,5.5714-1.1393,5.5714-6.57"/><rect class="cls-2" x="275.426" y="68.8041" width="3.4654" height="23.2706"/><path class="cls-2" d="M340.2232,88.0829c0-7.4187-4.6455-12.2071-11.8305-12.2071-3.8716,0-6.8673,1.289-8.9006,3.8375l-.2996,.3722,.3404,.3359c1.1097,1.103,1.7429,1.7521,2.0561,2.1038l.4834,.5401,.3722-.6172c1.2777-2.1128,3.2385-3.1386,5.989-3.1386,5.0835,0,7.8839,3.0523,7.8839,8.5942,0,.2225-.0113,.4561-.0295,.7058h-31.9306c-.5129-8.7758-4.5116-13.2217-11.894-13.2217h-.5333v3.3361l1.4184-.0023c2.7074,.1634,4.6432,1.2483,5.9119,3.3202,.9962,1.6295,1.5319,3.8377,1.5931,6.5678h-13.4985v3.4676h52.8683v-3.9942h0Z"/><rect class="cls-2" x="327.2526" y="95.2404" width="3.5221" height="3.9874"/><path class="cls-2" d="M389.3437,91.8342c-1.3027,0-2.2671-.4765-2.9503-1.4501-.5969-.8851-.8987-2.0538-.8987-3.4721,0-1.5569,.295-2.762,.9055-3.6902,.6945-1.0621,1.702-1.5818,3.0818-1.5818,1.2686,0,2.1968,.4744,2.83,1.4343,.5401,.8578,.8147,2.0107,.8147,3.4201,0,3.5925-1.2391,5.3398-3.7831,5.3398m-40.2321,.2428h34.0298c1.3934,1.9835,3.479,2.9912,6.2023,2.9912,2.3489,0,4.2483-.8397,5.644-2.4897,1.3095-1.5295,1.9699-3.4926,1.9699-5.8436,0-2.4079-.64-4.3845-1.9131-5.8779-1.3685-1.6-3.277-2.4101-5.6667-2.4101s-4.3096,.7966-5.7099,2.3739c-1.3843,1.5841-2.0878,3.5833-2.0878,5.9504,0,.6331,.0567,1.2504,.1702,1.8359-11.9099,0-31.5199-.0068-32.0464-.0295-.7852-.1157-1.3004-.3835-1.5841-.8283-.3926-.5969-.5923-1.6431-.5923-3.1091v-15.8404h-3.538v17.2861c0,1.9811,.531,3.4676,1.6249,4.5275,.9599,.969,2.1378,1.4637,3.4972,1.4637"/><path class="cls-1" d="M42.4319,48.8258c-23.1912,0-39.3902,15.6317-39.3902,36.3583v40.9902h13.4576s-.0113-22.5512-.0113-41.0197c0-19.2787,14.6218-33.0291,29.2959-36.0134,.5946-.1248,1.2958-.3154,.5991-.3154h-3.951Zm2.5826,1.795c-1.7384,.5833-3.4586,1.3005-5.9345,2.8459-10.3372,6.4225-14.9713,18.2347-15.4388,29.6658-.0272,.6491-.0409,1.2958-.0409,1.9449l.0022-.0046c-.0022,.0636-.0091,.3949-.0091,.4992v40.6022h13.4463v-40.6022c0-2.5621,1.1619-4.8496,2.9843-6.3679l5.3036,6.3679,5.2991-6.3657c1.8246,1.516,2.9865,3.8036,2.9865,6.3657v40.6022h13.444v-40.6022c0-12.0028-9.729-21.7319-21.7297-21.7319-2.839,0-5.551,.5446-8.0337,1.5342v-.0023c2.7551-3.2361,6.9149-4.8383,11.4605-4.9336h.0136c1.4206-.0341,2.8776,.0817,4.3414,.3427,11.8986,1.9494,20.9649,11.9234,21.0102,23.9536,.0204,.4584,.0318,.9214,.0318,1.3911v40.046h13.4327s.0204-40.0778,.0204-40.3819c0-17.4927-10.5097-31.5176-28.4267-35.6933-.6513-.1475-1.6907-.3563-2.6166-.4812-1.3253-.1747-2.6824-.3222-4.0895-.3222-2.9071,0-5.0222,.5152-7.4573,1.3275"/></svg>