<?xml version="1.0" encoding="UTF-8"?><svg id="Layer_1" xmlns="http://www.w3.org/2000/svg" viewBox="0 0 400 175"><path id="XMLID_1__1525346549174" d="M79.4549,64.9298h-9.2391v45.1405h9.2391v-45.1405Zm-22.7414,0h-9.2391v45.1405h9.2391v-45.1405Zm-22.7414,0h-9.2391v45.1405h9.2391v-45.1405Zm-15.3016-17.9487H85.5174v-9.2391H18.6705v9.2391Zm-7.0955,73.9424V54.0765H2.3359V120.9235H11.575ZM92.6129,54.0765V120.9235h9.2391V54.0765h-9.2391Zm-7.0955,73.9424H18.6705v9.2391H85.5174v-9.2391Zm75.871-17.9507h8.6599v-45.1305h-11.0622l-12.7699,34.0703-12.5788-34.0703h-11.2513v45.1325h8.4708v-30.5952l11.5677,30.5952h7.4577l11.5041-30.7306v30.7306l.002-.002Zm17.5148,0h33.2384v-8.027h-23.8281v-11.1259h21.8119v-8.0887h-21.8119v-9.8561h23.3246v-8.0329h-32.7428l.0079,45.1305Zm69.2134,0h10.3656l-9.671-19.0255c2.2986-1.0608,4.2334-2.7757,5.5629-4.93,1.2081-2.2727,1.7963-4.8237,1.7057-7.396,.0012-1.7519-.2888-3.492-.8578-5.149-.5836-1.686-1.5839-3.1969-2.9079-4.3926-1.6084-1.3982-3.4928-2.4425-5.5311-3.0651-2.8059-.8485-5.7295-1.2428-8.6599-1.1683h-17.5148v45.1285h9.2908v-16.9416h9.7983l8.419,16.9396Zm-18.2114-24.7775v-12.5788h7.9613c1.4064-.0322,2.8111,.1162,4.1797,.4419,.9635,.2315,1.8679,.662,2.6551,1.2639,.6453,.5091,1.1373,1.187,1.4211,1.9585,.279,.7912,.4178,1.6251,.41,2.464,.0139,.9108-.1148,1.8182-.3821,2.6889-.2532,.7808-.7117,1.4794-1.3275,2.0222-.7221,.6168-1.5759,1.0598-2.4959,1.2957-1.2696,.3234-2.5773,.4721-3.8871,.4419h-8.5325l-.002,.002Zm67.3186,24.7795h10.0511l-17.889-45.1325h-9.5535l-17.881,45.1325h9.7347l3.7936-10.3656h17.889l3.8552,10.3656h0Zm-12.8316-34.8923l6.2576,16.7505h-12.3898l6.1322-16.7505h0Zm61.5009,34.8923h10.0511l-17.889-45.1325h-9.5535l-17.8791,45.1325h9.7347l3.7936-10.3656h17.889l3.8533,10.3656h0Zm-12.8316-34.8923l6.2576,16.7505h-12.3898l6.1322-16.7505h0Zm63.8415-.6329c-.4267-1.3281-1.0292-2.5932-1.7913-3.7617-.9092-1.3737-2.0799-2.5552-3.4453-3.4771-1.6866-1.1303-3.5432-1.9836-5.4993-2.5277-5.1012-1.2961-10.444-1.307-15.5504-.0318-2.1016,.5489-4.0839,1.4808-5.8476,2.7486-1.5736,1.1438-2.8611,2.6364-3.7617,4.3608-.9,1.7708-1.3558,3.734-1.3276,5.7202-.2285,3.4031,1.1944,6.708,3.8234,8.8808,3.3764,2.3277,7.2714,3.7928,11.3448,4.2672l6.3212,1.1385c1.9256,.2002,3.7498,.9613,5.2465,2.1894,.9235,.8839,1.4479,2.1052,1.4529,3.3835,.0476,1.6713-.7181,3.2619-2.054,4.2672-2.0554,1.2559-4.4589,1.8209-6.8586,1.6122-2.5605,.0115-5.0936-.5274-7.4279-1.5803-2.5637-1.2436-4.7549-3.1403-6.3531-5.4993l-6.572,6.1919c2.1101,2.8396,4.9043,5.099,8.1225,6.5681,3.7472,1.5765,7.7889,2.3307,11.8524,2.2112,2.8336,.0516,5.6583-.3324,8.3753-1.1385,2.1659-.6445,4.1845-1.7075,5.9411-3.1288,1.5327-1.2651,2.7542-2.8653,3.5706-4.6773,.8087-1.8422,1.2159-3.8357,1.1942-5.8476,.0912-3.1511-1.1751-6.1897-3.4771-8.3434-3.1925-2.5783-7.0499-4.2-11.1259-4.6773l-6.9382-1.2678c-1.929-.2034-3.7818-.8646-5.4037-1.9286-1.0485-.9579-1.5962-2.346-1.4848-3.7617-.0157-1.4507,.7591-2.7952,2.0222-3.5089,.8648-.4994,1.8064-.8519,2.7864-1.0429,1.3942-.2767,2.8141-.4034,4.2354-.3782,2.3281-.1234,4.6426,.4251,6.6676,1.5803,1.776,1.2436,3.1493,2.9793,3.9508,4.9937l8.011-3.5348h0Z" vector-effect="non-scaling-stroke"/></svg>