<?xml version="1.0" encoding="UTF-8"?><svg id="Layer_1" xmlns="http://www.w3.org/2000/svg" viewBox="0 0 400 175"><defs><style>.cls-1{fill:#055093;}</style></defs><path class="cls-1" d="M142.2981,159.5561l4.4776-11.5717,4.4366,11.5685-8.9142,.0032h0Zm8.0515-16.2863c-.3286-.8026-.8089-1.4283-1.4725-1.7696-.6105-.2918-1.2794-.4409-1.956-.4361-.9511,0-1.8802,.1896-2.5912,.4392-.1635,.0719-.2926,.2044-.3602,.3697l-11.6602,29.1252c-.1344,.3278,.0224,.7025,.3502,.8369,.0794,.0326,.1644,.0488,.2502,.0479h4.2659c.2654,0,.4993-.158,.6004-.4108l2.9545-7.4891h12.0963l3.0588,7.4985c.0981,.2406,.3311,.3989,.5909,.4013h4.3702c.2171,.0018,.42-.108,.5372-.2907,.1156-.1769,.1346-.4001,.0506-.5941l-11.0851-27.7285v.0002Zm118.7095,24.0187h-11.5496v-9.0627h10.2445c.1724,.003,.3383-.0657,.4582-.1896,.1247-.1235,.1942-.2922,.1928-.4677v-3.3811c.0009-.1717-.0688-.3362-.1928-.455-.1209-.1224-.2861-.1907-.4582-.1896h-10.2477v-7.7513h10.8765c1.2008,0,2.1519-.2117,2.7713-.8848,.5356-.5816,.8235-1.3489,.8026-2.1393v-.4582c0-.7457-.3476-1.1155-.7363-1.1155h-18.5394c-.1679,.0056-.3277,.0731-.4487,.1896-.1209,.1219-.189,.2865-.1896,.4582v29.3969c0,.1738,.0632,.3286,.1896,.4645,.12,.1168,.2812,.1816,.4487,.1801h19.3104c.1665,.001,.3265-.0637,.4455-.1801,.1227-.1233,.191-.2905,.1896-.4645v-.929c.0374-.8062-.2707-1.59-.8469-2.1551-.6541-.6383-1.5894-.8658-2.7239-.8658m-25.9589,0h-11.5496v-9.0627h10.254c.1696,.003,.3326-.0658,.4487-.1896,.1279-.1214,.198-.2915,.1928-.4677v-3.3811c0-.1706-.0632-.3476-.1928-.455-.1178-.1212-.2797-.1896-.4487-.1896h-10.254v-7.7513h10.8702c1.2008,0,2.1488-.2117,2.7744-.8848,.5403-.5787,.8289-1.348,.8026-2.1393v-.4582c0-.7363-.3571-1.1155-.7489-1.1155h-18.5236c-.1697,.0055-.3316,.0729-.455,.1896-.1212,.122-.1903,.2863-.1928,.4582v29.3969c.004,.1735,.0728,.3392,.1928,.4645,.1225,.1169,.2857,.1816,.455,.1801h19.3104c.1657,.0019,.3251-.063,.4424-.1801,.1188-.1267,.1893-.2911,.1991-.4645v-.929c.0201-.8056-.2905-1.5844-.8595-2.1551-.651-.6383-1.58-.8658-2.7176-.8658m-116.3237-25.6051c-.3345-.2342-.7111-.4015-1.1091-.4929-.3497-.0849-.7083-.1273-1.0681-.1264-1.0712,0-1.798,.0284-1.798,.79v21.4876l-14.3777-20.5554c-.3328-.54-.7928-.9902-1.3398-1.3114-.5593-.3034-1.2008-.4108-1.9718-.4108-1.0301,0-1.8106,.1738-2.0571,.2496-.2731,.0866-.4569,.3424-.4519,.6288v29.2927c0,.177,.0632,.3318,.177,.4677,.1227,.1186,.2876,.1834,.4582,.1801h3.893c.1682,.0006,.3302-.0639,.4519-.1801,.1152-.1279,.1813-.2925,.1864-.4645v-20.7956l15.1551,21.1779c.126,.1659,.3226,.263,.5309,.2623h3.8867c.1708-.0005,.3354-.0647,.4614-.1801,.1097-.1309,.174-.2939,.1833-.4645v-26.7552c0-.6541-.1011-1.2229-.3381-1.719-.1937-.4296-.4939-.8027-.8721-1.0839m63.2304,28.9482l-12.9558-15.174,12.0109-12.2732c.1393-.1367,.2061-.3311,.1801-.5245-.0171-.2015-.1268-.3837-.297-.4929-.6255-.3285-1.2777-.6033-1.9497-.8216-.3772-.1254-.7717-.1915-1.1692-.1959-.5751,0-1.1249,.1264-1.6116,.3855-.493,.2433-.9796,.6383-1.5263,1.1565l-11.2462,11.5022v-9.6821c0-.6952-.1043-1.2956-.3476-1.8201-.2085-.4543-.5307-.8472-.9353-1.1407-.353-.2487-.7496-.4288-1.1692-.5309-.3662-.0822-.7402-.1246-1.1155-.1264-1.1439,0-1.9023,.0348-1.9023,.8374v29.5107c-.0071,.349,.27,.6377,.6189,.6448,.0107,.0002,.0214,.0002,.032-.0002h4.1711c.1697,.0035,.3337-.0614,.455-.1801,.117-.1273,.1853-.2918,.1928-.4645v-14.1976l11.4042,13.3507c.5182,.613,1.0933,1.0681,1.7064,1.3904,.6478,.316,1.4283,.4582,2.332,.4582,1.1218,0,2.4426-.4045,2.8566-.5688,.204-.0722,.3551-.2461,.3982-.4582,.054-.2048,.0044-.4231-.1327-.5846m30.2691-26.1201c0-.6952-.1043-1.2956-.3476-1.8201-.206-.4541-.5261-.8471-.929-1.1407-.3562-.2472-.7546-.4271-1.1755-.5309-.3663-.0818-.7402-.1241-1.1155-.1264-1.1344,0-1.896,.0348-1.896,.8374v11.8909h-13.9859v-9.1101c0-.6952-.0948-1.2956-.3413-1.8201-.2092-.4503-.5261-.8421-.9227-1.1407-.359-.2482-.7607-.4282-1.185-.5309-.363-.0823-.7338-.1247-1.106-.1264-1.1376,0-1.9023,.0348-1.9023,.8374v29.5107c0,.1738,.0632,.3286,.1896,.4645,.119,.1145,.2773,.1789,.4424,.1801h4.1869c.166,.0034,.326-.0618,.4424-.1801,.1211-.1249,.191-.2906,.1959-.4645v-12.9716h13.9859v12.9716c0,.1738,.0664,.3286,.177,.4645,.1264,.1201,.3002,.1801,.4614,.1801h4.1806c.1667,.0024,.3273-.0625,.4455-.1801,.1265-.1215,.1983-.2891,.1991-.4645v-26.7299h0v-.0002Zm76.3285,23.6047c-.6573-.6288-1.5737-.8722-2.6796-.8722h-10.491v-22.7705c0-.6952-.1011-1.2956-.3539-1.8138-.2007-.4599-.523-.8565-.9322-1.1471-.3502-.2509-.7464-.4302-1.166-.5277-.3683-.0826-.7443-.1261-1.1218-.1296-1.1344,0-1.9023,.0316-1.9023,.8374v29.5455c0,.177,.0853,.3476,.1959,.4677,.1248,.1173,.2901,.1819,.4614,.1801h18.1444c.1704,.0019,.3347-.0627,.4582-.1801,.1148-.1279,.1798-.2927,.1833-.4645v-1.0112c.0333-.7837-.2542-1.5471-.7963-2.114m-100.8556-91.8215c.0126,.0063,.0126,.019,.0221,.019,.0158,0,.0158-.0095,.0253-.0158m21.7467-35.8811c-7.5301-2.1804-8.9584,2.7649-9.9917,6.3768,0,0-.0063,.0126,0,.0158,0,.0063,.0063,.0095,.0158,.0095,8.712-.0095,3.6655-6.2883,9.9665-6.3673h.0095c.0095,0,.0095-.0126,.0095-.019,.0095-.0126,0-.0158-.0095-.0158m-11.9857-23.4878c0-.0158-.0158-.0158-.0284-.0063-.0095,0-.019,.0158-.0095,.0253v.0126c5.3751,13.0442-13.7615,18.3055-25.7377,23.4562h-.0095c-16.4538,6.1998-29.5012,21.3517-30.6198,39.6035-.3804,10.5633,2.8644,20.9388,9.1954,29.4033,.0095,.0095,.0158,.0095,.0284,.0063s.019-.0221,.0126-.0379c-4.738-7.3199-7.1068-15.9214-6.7844-24.6349,.6794-19.5316,12.0647-32.8476,34.8542-40.9086,16.0746-5.6847,23.6111-8.9047,23.8828-16.3337,.1454-4.3102-4.0795-9.7168-4.7842-10.5858m3.8551,90.0394l-.0095-.0158c-.0095-.0032-.0221,0-.0316,.0063v.0095c-3.4064,5.5267-11.9762,7.1636-17.8916,3.4033h-.0316c-.0032,.0095-.0095,.0253-.0032,.0316,5.1918,11.0124,18.8269,4.2185,17.9674-3.4349"/><path class="cls-1" d="M196.9557,7.6704c-.0095-.0095-.019-.0095-.0284,0-.0087,.0058-.0111,.0176-.0053,.0263l.0053,.0053c9.7927,12.0078-17.288,26.7963-26.0095,33.8114-.0095,.0095-.0095,.0253-.0095,.0316,.0095,.0158,.0316,.0158,.0411,.0158,1.0839-.4803,9.8053-5.1254,17.8031-8.5634,4.4713-1.896,13.9859-6.876,14.0965-14.7443,.7078-5.2581-4.8632-9.799-5.8933-10.5826"/><path class="cls-1" d="M188.566,2.7661c-.0095-.0126-.019-.0032-.019,.0032-.0095,.0032-.0095,.0126,0,.0253,8.1874,11.4706-5.65,24.3189-8.0231,26.4424,0,0-.0253,.0253,0,.0474,.0063,.0158,.0284,.0158,.0379,0,1.1376-.7805,2.2499-1.5863,3.3401-2.37,15.0413-10.965,12.8641-20.508,4.6641-24.1483m41.016,54.9008c-7.5207-2.1804-8.9584,2.7713-9.9886,6.3736v.019c0,.0095,.0095,.0126,.019,.0126,8.7088-.0126,3.6561-6.2851,9.9696-6.3704v.0032c.0095,0,.0158-.0032,.0158-.0158,0-.0063-.0063-.0221-.0158-.0221"/><path class="cls-1" d="M238.6005,99.2391c-.0063-.0095-.0253,0-.0253,.0032-8.5729,13.4614-24.2557,22.7611-44.1223,21.219-17.5914-1.3493-33.2426-16.0241-32.8381-34.5066,.2844-13.1928,5.3782-19.342,8.7657-22.1196-1.6621,3.2516-8.674,20.9346,3.1884,33.7292,8.2506,8.8952,21.8415,8.0484,28.3573,3.1726h.0063c3.0146,1.0207,6.045,1.6368,9.562,1.7696,13.9417,.4803,25.2922-7.4195,25.6587-17.6388,.4076-11.7803-11.2841-19.6548-25.3364-20.1478-2.4608-.0899-4.9243,.0785-7.35,.5024,4.8916-11.0156,15.0824-11.8782,18.0654-11.6602,10.1971,.7299,14.5263,7.3974,15.7871,9.8653v.0095c.0095,.0158,.019,.019,.0316,.0158,.019-.0095,.019-.0253,.019-.0348-3.1315-7.8493-10.886-13.5625-20.1446-13.8879-12.3459-.4266-22.6947,8.8794-23.1055,20.7924-.0758,2.0698,.158,4.0763,.6478,5.9881,0,.0158,.0095,.019,.0158,.0221,.019,0,.0253-.0063,.0253-.019,.3338-.5138,.6945-1.0095,1.0807-1.4852,3.1947-3.7287,8.516-5.887,14.4662-5.6816,9.4387,.3318,17.4524,6.7718,17.1711,14.719-.2749,7.9504-8.7372,14.1155-18.1728,13.7805-11.5622-.4013-22.1038-11.3663-21.712-22.6726,.0968-2.7119,.6724-5.3852,1.7-7.8967,.0095-.0095,0-.0158-.0063-.0253-.0095,0-.019,0-.0253,.0095-3.4601,3.4823-5.5773,7.8209-5.7385,12.586-.2433,6.8476,4.8537,15.095,13.1738,19.3357-7.1067,3.0083-25.2764-3.0019-24.6096-22.0785,.474-13.5404,8.6898-26.3128,20.1604-28.9451,.0095,0,.0158-.0158,.0158-.0253s-.019-.0221-.0253-.0158c-23.7154,4.0352-37.5843,19.0165-38.3048,39.335-.7426,21.3833,17.2059,40.0617,38.9874,40.8264,26.7521,.9259,40.185-17.3038,44.6405-28.8092h.0095v-.0032c0-.0158,0-.0253-.019-.0316"/></svg>