<?xml version="1.0" encoding="UTF-8"?><svg id="Layer_1" xmlns="http://www.w3.org/2000/svg" viewBox="0 0 211 216"><defs><style>.cls-1{fill:#690fad;}</style></defs><path class="cls-1" d="M144.5618,178.6011h-5.2084v-10.086H71.644v10.086h-5.2084c-2.6042,0-5.2084,2.5215-5.2084,5.043s2.6042,5.043,5.2084,5.043h78.1262c2.6042,0,5.2084-2.5215,5.2084-5.043-1.3021-3.7822-2.6042-5.043-5.2084-5.043Z"/><path class="cls-1" d="M106.8008,66.3961l-1.3021-1.2607v1.2607c-1.3021,2.5215-3.9063,2.5215-3.9063,2.5215h-1.3021l1.3021,1.2607c1.3021,1.2607,1.3021,2.5215,1.3021,3.7822v1.2607l1.3021-1.2607c1.3021-1.2607,2.6042-1.2607,3.9063,0l1.3021,1.2607v-1.2607c0-1.2607,0-2.5215,1.3021-3.7822l1.3021-1.2607h-1.3021c-2.6042-1.2607-3.9063-1.2607-3.9063-2.5215Z"/><path class="cls-1" d="M182.3241,37.3989h-24.7399v-5.043c0-2.5215-2.6042-5.043-5.2084-5.043H56.0201c-2.6042,0-5.2084,2.5215-5.2084,5.043v5.043H28.6759c-2.6042,0-5.2084,2.5215-5.2084,5.043v11.3467c0,26.4756,22.1357,46.6475,48.1778,47.9083,5.2084,7.5645,11.7189,12.6074,19.5315,16.3897-1.3021,21.4326-13.021,36.5616-16.9273,40.3438h62.5009c-3.9063-3.7822-15.6252-18.9112-16.9273-40.3438,7.8126-2.5215,14.3231-8.8252,19.5316-16.3897,26.0421-1.2607,48.1778-22.6934,48.1778-47.9083v-11.3467c0-2.5215-2.6042-5.043-5.2084-5.043ZM32.5822,53.7886v-6.3037h20.8337c1.3021,17.6504,5.2084,32.7794,11.7189,45.3868-18.2294-3.7822-32.5526-20.1719-32.5526-39.0831Zm92.4493,15.1289l-6.5105,6.3037,1.3021,8.8252c0,1.2607,0,3.7822-1.3021,5.043-1.3021,1.2607-3.9063,1.2607-5.2084,0l-7.8126-5.043-7.8126,3.7822c-1.3021,1.2607-3.9063,1.2607-5.2084,0-1.3021-1.2607-2.6042-2.5215-1.3021-5.043l1.3021-8.8252-6.5105-6.3037c-1.3021-1.2607-1.3021-2.5215-1.3021-5.043,0-1.2607,2.6042-2.5215,3.9063-3.7822l9.1147-1.2607,3.9063-7.5645c1.3021-3.7822,6.5105-3.7822,9.1147,0l3.9063,7.5645,9.1147,1.2607c1.3021,0,3.9063,1.2607,3.9063,3.7822-1.3021,2.5215-1.3021,5.043-2.6042,6.3037Zm53.3862-15.1289c0,18.9112-14.3231,34.0401-32.5526,37.8223,6.5105-12.6074,10.4168-27.7364,11.7189-45.3868h19.5315v7.5645h1.3021Z"/></svg>