<?xml version="1.0" encoding="UTF-8"?><svg id="Layer_1" xmlns="http://www.w3.org/2000/svg" viewBox="0 0 2099.28 2099.4399"><defs><style>.cls-1{fill:#caa8f5;}</style></defs><g id="Layer_2"><g id="Layer_1-2"><path class="cls-1" d="M1049.64,0C469.94,0,0,469.94,0,1049.64s469.94,1049.7999,1049.64,1049.7999,1049.64-469.9399,1049.64-1049.8S1629.34,0,1049.64,0Zm0,1934.8c-488.93,0-885.16-396.23-885.16-885.1599S560.7101,164.4802,1049.64,164.4802s885.16,396.39,885.16,885.16-396.39,885.1599-885.16,885.1599Z"/><path class="cls-1" d="M1076.76,1831.05c-.62,.29-1.29,.37-1.92,.64-3.5278,1.5232-7.186,2.7247-10.9301,3.59-.8,.1801-1.59,.37-2.39,.53-4.4866,.859-9.0541,1.2211-13.62,1.08h-.27c-4.9327-.2095-9.8234-1.0016-14.5699-2.36l-.23-.08c-3.2936-.8323-6.5116-1.9396-9.62-3.3101l-603.37-348.54c-9.3408-5.2372-12.6674-17.0551-7.4302-26.3958,1.6902-3.0145,4.1553-5.5225,7.1402-7.2643l251.06-142.9399,4.88-2.8199c21.2425-11.8195,47.1169-11.6791,68.23,.37,.22,.0601,.3,.2,.52,.26l276.07,159.5c18.1804,11.2882,41.1964,11.2611,59.35-.0699l276.0699-159.5c.22-.0601,.3-.2,.52-.26,21.1104-12.059,46.9901-12.1992,68.23-.37l4.88,2.8101,251.0599,142.91c9.2491,5.3973,12.3716,17.2708,6.9742,26.5199-1.7418,2.9849-4.2499,5.45-7.2643,7.1401l-456.6799,263.79h0l-142.58,82.3199h0l-4.11,2.4498Z"/><path class="cls-1" d="M1752.88,659.9c-.0601-.68-.33-1.3-.41-2-.4395-3.8211-1.2294-7.5936-2.36-11.27-.23-.78-.46-1.56-.73-2.33-1.5024-4.3035-3.4744-8.4283-5.88-12.3l-.14-.23c-2.6409-4.1672-5.7697-8.0044-9.3199-11.43l-.1899-.17c-2.3673-2.436-4.9365-4.6673-7.6801-6.67l-603.52-348.2801c-9.198-5.4732-21.0914-2.4537-26.5647,6.7443-1.771,2.9762-2.712,6.3725-2.7253,9.8357l1.77,288.88v5.63c.3802,24.3104,13.4421,46.653,34.4399,58.91,.16,.16,.3199,.16,.48,.32l276.17,159.33c18.8683,10.0958,30.3528,30.0434,29.61,51.43l-.1,318.83c.0601,.22,0,.36,0,.58,.1227,24.3118,12.9404,46.792,33.8,59.28l4.88,2.8101,249.29,146c9.3005,5.3082,21.1434,2.0719,26.4517-7.2286,1.7113-2.9984,2.5911-6.3993,2.5483-9.8513l.12-527.39h0v-169.4301h.0599Z"/><path class="cls-1" d="M346.36,659.9c.06-.68,.34-1.3,.41-2,.4443-3.8203,1.2342-7.5924,2.36-11.27,.24-.78,.47-1.56,.73-2.33,1.5108-4.3,3.4822-8.424,5.88-12.3l.14-.23c2.6478-4.165,5.7796-8.0017,9.33-11.43,.05-.06,.13-.11,.18-.17,2.3708-2.4361,4.9432-4.6674,7.69-6.67L976.59,265.22c9.2141-5.4678,21.1161-2.4307,26.5839,6.7834,1.7601,2.9661,2.6976,6.3477,2.7161,9.7966l-1.78,288.88v5.63c-.3802,24.3104-13.4422,46.653-34.44,58.91-.16,.16-.32,.16-.48,.32l-276.19,159.33c-18.8615,10.1029-30.3432,30.0458-29.61,51.43l.11,318.83c-.06,.22,0,.36,0,.58-.1193,24.3179-12.942,46.8041-33.81,59.29l-4.88,2.8101-249.3,146c-9.3006,5.3082-21.1434,2.0719-26.4517-7.2286-1.7113-2.9984-2.591-6.3993-2.5483-9.8513l-.11-527.39h0v-169.4401h-.04Z"/></g></g></svg>