<?xml version="1.0" encoding="utf-8"?>
<!-- Generator: Adobe Illustrator 26.3.0, SVG Export Plug-In . SVG Version: 6.00 Build 0)  -->
<svg version="1.1" id="Layer_1" xmlns="http://www.w3.org/2000/svg" xmlns:xlink="http://www.w3.org/1999/xlink" x="0px" y="0px"
	 viewBox="0 0 1000 220.62" style="enable-background:new 0 0 1000 220.62;" xml:space="preserve">
<style type="text/css">
	.st0{fill:#F2F5EA;}
	.st1{fill:#06070E;}
	.st2{fill:#FFFFF9;}
	.st3{fill:#FFFFFA;}
	.st4{fill:#690FAD;}
	.st5{font-family:'Gotham-Bold';}
	.st6{font-size:92.1912px;}
	.st7{font-size:92.183px;}
	.st8{font-family:'Gotham-Light';}
	.st9{font-size:35.4622px;}
	.st10{fill:#FFFFF9;stroke:#070707;stroke-width:0.25;stroke-miterlimit:10;}
</style>
<g>
	<g>
		<text transform="matrix(1 0 0 1 203.6184 141.9227)" class="st4 st5 st6">CORE</text>
	</g>
	<text transform="matrix(1 0 0 1 455.4612 141.9227)" class="st1 st5 st7">DIRECTION</text>
	<text transform="matrix(1 0 0 1 206.8 182.6097)" class="st1 st8 st9">inspiring movement</text>
	<g>
		<path class="st4" d="M110.5,25.52c46.06-0.15,84.53,38.62,84.09,85.28c-0.37,46.36-39.14,84.46-85.58,83.94
			c-46.29-0.52-83.71-38.4-83.64-85.35C25.45,62.95,63.55,25.44,110.5,25.52z M110.06,181.79c39.22,0,71.59-32.3,71.59-71.51
			c0-39.74-32.22-72.03-71.88-71.96c-39.22,0-71.59,32.37-71.59,71.51C38.25,149.56,70.4,181.86,110.06,181.79z"/>
		<path class="st4" d="M53.65,107.15c0-8.93,0.07-17.86-0.07-26.79c0-2.53,0.74-4.09,2.98-5.43c15.63-8.93,31.1-17.93,46.73-26.86
			c3.42-1.93,3.94-1.64,3.94,2.38c0.07,6.47-0.15,12.87,0.07,19.35c0.15,3.87-1.12,6.18-4.54,8.04C95.77,81.55,89,85.79,82.08,89.59
			c-2.31,1.27-3.13,2.83-3.13,5.36c0.07,8.41-0.07,16.89,0.07,25.3c0.07,2.83-1.04,4.54-3.5,5.88c-5.88,3.13-11.68,6.55-17.49,9.9
			c-4.24,2.46-4.46,2.31-4.46-2.75C53.65,124.49,53.65,115.86,53.65,107.15z"/>
		<path class="st4" d="M166.24,107.07c0,9.08,0,18.08,0,27.16c0,3.8-0.45,4.02-3.8,2.16c-6.03-3.42-11.98-6.99-18.08-10.34
			c-2.6-1.41-3.72-3.2-3.65-6.25c0.15-8.33,0-16.59,0.07-24.93c0-2.53-0.82-4.09-3.05-5.36c-7.14-3.94-14.14-8.19-21.28-12.13
			c-2.83-1.56-4.02-3.57-3.94-6.85c0.22-6.4,0.07-12.87,0.07-19.35c0-4.99,0.37-5.21,4.61-2.83c13.39,7.74,26.86,15.4,40.18,23.22
			c10.79,6.33,8.63,2.75,8.78,15.33C166.31,93.68,166.24,100.38,166.24,107.07z"/>
		<path class="st4" d="M110.13,174.42c-1.12-0.52-2.01-0.89-2.83-1.41c-15.78-9-31.55-18.16-47.4-27.16
			c-2.6-1.49-3.05-2.46-0.07-4.09c6.62-3.65,13.17-7.44,19.65-11.31c2.08-1.27,3.72-0.6,5.51,0.45c7.14,4.17,14.44,8.19,21.51,12.5
			c2.46,1.49,4.32,1.56,6.77,0.07c6.99-4.24,14.14-8.19,21.21-12.35c2.53-1.49,4.61-1.64,7.14-0.07c5.8,3.57,11.76,6.92,17.64,10.34
			c3.94,2.31,3.94,2.6,0.15,4.76c-13.69,7.89-27.46,15.78-41.22,23.74C115.49,171.37,112.81,172.93,110.13,174.42z"/>
	</g>
</g>
</svg>
