<svg id="Layer_1" data-name="Layer 1" xmlns="http://www.w3.org/2000/svg" viewBox="0 0 400 88"><defs><style>.cls-1{fill:#fff;}.cls-2{fill:#fff;}</style></defs><title>Horizental Logo Colored</title><g id="Layer_1-2" data-name="Layer 1-2"><path class="cls-1" d="M100.12,55a12.64,12.64,0,0,1-5.4,2.51,17.94,17.94,0,0,1-3.58.33,13.91,13.91,0,0,1-5.55-1.09,13.42,13.42,0,0,1-7.35-7.42,14.48,14.48,0,0,1-1-5.48V43.8a14.1,14.1,0,0,1,4-9.93,13.57,13.57,0,0,1,4.46-3,14.72,14.72,0,0,1,5.75-1.11,18.46,18.46,0,0,1,3.48.31,15.18,15.18,0,0,1,2.86.86,12.24,12.24,0,0,1,2.37,1.32,16.59,16.59,0,0,1,2,1.71l-3.81,4.39A14.62,14.62,0,0,0,95,36.07a8.18,8.18,0,0,0-3.71-.82,7.62,7.62,0,0,0-3.16.66,7.46,7.46,0,0,0-2.51,1.83A8.48,8.48,0,0,0,84,40.44a9.19,9.19,0,0,0-.59,3.28v.08A9.36,9.36,0,0,0,84,47.11a8.39,8.39,0,0,0,1.62,2.71,7.47,7.47,0,0,0,5.69,2.53,8.28,8.28,0,0,0,3.94-.86,15.31,15.31,0,0,0,3.21-2.33l3.8,3.85A19.74,19.74,0,0,1,100.12,55Z"/><path class="cls-1" d="M131.28,49.26a13.92,13.92,0,0,1-7.59,7.5,15.71,15.71,0,0,1-11.6,0,14.47,14.47,0,0,1-4.57-3,13.34,13.34,0,0,1-3-4.43,13.84,13.84,0,0,1-1.07-5.46V43.8a13.93,13.93,0,0,1,8.68-13,15.71,15.71,0,0,1,11.6,0,14.47,14.47,0,0,1,4.57,3,13.49,13.49,0,0,1,3,4.43,14,14,0,0,1,1.07,5.46v.08A13.86,13.86,0,0,1,131.28,49.26Zm-5.17-5.46a8.85,8.85,0,0,0-.6-3.3,8.13,8.13,0,0,0-4.33-4.57,8,8,0,0,0-3.3-.68,8.25,8.25,0,0,0-3.33.66A7.75,7.75,0,0,0,112,37.74a8.48,8.48,0,0,0-1.67,2.7,8.78,8.78,0,0,0-.6,3.28v.08a8.85,8.85,0,0,0,.6,3.3,8.27,8.27,0,0,0,10.94,4.59,7.46,7.46,0,0,0,2.58-1.83,8.48,8.48,0,0,0,1.67-2.7,8.75,8.75,0,0,0,.6-3.28Z"/><path class="cls-1" d="M151.8,57.4,146,48.7h-4.7v8.7h-6V30.2h12.43q4.86,0,7.56,2.37a8.33,8.33,0,0,1,2.7,6.61v.07a8.58,8.58,0,0,1-1.61,5.39,9.43,9.43,0,0,1-4.21,3l6.64,9.71Zm.12-17.91a3.48,3.48,0,0,0-1.25-2.92,5.47,5.47,0,0,0-3.45-1h-5.94v7.81h6.06a5,5,0,0,0,3.4-1,3.58,3.58,0,0,0,1.19-2.8Z"/><path class="cls-1" d="M161,57.4V30.2h20.48v5.32H166.88V41H179.7v5.33H166.88v5.71h14.76V57.4Z"/><path class="cls-2" d="M208.56,49.16a12.74,12.74,0,0,1-3,4.32A14.25,14.25,0,0,1,201,56.36a16,16,0,0,1-5.85,1H184.55V30.2h10.61a16.21,16.21,0,0,1,5.85,1,13.66,13.66,0,0,1,4.58,2.86,12.79,12.79,0,0,1,3,4.29,13.6,13.6,0,0,1,1.05,5.34v.08A13.7,13.7,0,0,1,208.56,49.16Zm-5.2-5.36a8.86,8.86,0,0,0-.61-3.3,7.57,7.57,0,0,0-1.67-2.61,7.41,7.41,0,0,0-2.58-1.69,9.1,9.1,0,0,0-3.34-.6h-4.63V52h4.63a9.25,9.25,0,0,0,3.34-.58,7.31,7.31,0,0,0,2.59-1.67,8,8,0,0,0,1.67-2.57,8.66,8.66,0,0,0,.6-3.3Z"/><path class="cls-2" d="M214.43,57.4V30.2h6V57.4Z"/><path class="cls-2" d="M243,57.4l-5.83-8.7h-4.7v8.7h-6V30.2h12.43q4.86,0,7.56,2.37a8.34,8.34,0,0,1,2.7,6.61v.08a8.5,8.5,0,0,1-1.61,5.38,9.32,9.32,0,0,1-4.21,3L250,57.4Zm.12-17.91a3.48,3.48,0,0,0-1.25-2.92,5.53,5.53,0,0,0-3.45-1h-6v7.81h6.07a5,5,0,0,0,3.4-1,3.54,3.54,0,0,0,1.18-2.8Z"/><path class="cls-2" d="M253.75,57.4V30.2h20.48v5.33H259.66V41h12.82v5.33H259.66v5.71h14.76V57.4Z"/><path class="cls-2" d="M300.73,55a12.64,12.64,0,0,1-5.4,2.51,17.94,17.94,0,0,1-3.58.33,14.3,14.3,0,0,1-5.55-1.09,13.45,13.45,0,0,1-7.35-7.42,14.48,14.48,0,0,1-1.05-5.48V43.8a14.16,14.16,0,0,1,4-9.93,13.57,13.57,0,0,1,4.46-3,14.57,14.57,0,0,1,5.75-1.1,17.6,17.6,0,0,1,3.48.31,14.25,14.25,0,0,1,2.86.85,12.79,12.79,0,0,1,2.37,1.32,17.39,17.39,0,0,1,2,1.71l-3.81,4.39a14.56,14.56,0,0,0-3.24-2.25,8.24,8.24,0,0,0-3.71-.82,7.7,7.7,0,0,0-3.17.66,7.52,7.52,0,0,0-2.5,1.83,8.48,8.48,0,0,0-1.63,2.7,9.19,9.19,0,0,0-.59,3.28v.08a9.26,9.26,0,0,0,.59,3.3,8.56,8.56,0,0,0,1.61,2.73A7.49,7.49,0,0,0,292,52.35a8.36,8.36,0,0,0,3.94-.85,15.72,15.72,0,0,0,3.21-2.34L302.9,53A19.74,19.74,0,0,1,300.73,55Z"/><path class="cls-2" d="M319.22,35.72V57.4h-6V35.72H305V30.2H327.5v5.52Z"/><path class="cls-2" d="M331.58,57.4V30.2h6V57.4Z"/><path class="cls-2" d="M370.2,49.26a13.9,13.9,0,0,1-7.6,7.5,15.68,15.68,0,0,1-11.59,0,14.47,14.47,0,0,1-4.57-3,13.49,13.49,0,0,1-3-4.43,14,14,0,0,1-1.07-5.46V43.8a13.93,13.93,0,0,1,8.68-13,15.81,15.81,0,0,1,11.6,0,14.5,14.5,0,0,1,4.57,3,13.45,13.45,0,0,1,3,4.42,14,14,0,0,1,1.07,5.46v.08A13.83,13.83,0,0,1,370.2,49.26ZM365,43.8a8.85,8.85,0,0,0-.6-3.3,8.13,8.13,0,0,0-4.33-4.57,8,8,0,0,0-3.3-.68,8.25,8.25,0,0,0-3.33.66,7.75,7.75,0,0,0-2.56,1.83,8.48,8.48,0,0,0-1.67,2.7,8.78,8.78,0,0,0-.6,3.28v.08a8.94,8.94,0,0,0,.6,3.31,8.17,8.17,0,0,0,4.31,4.56,7.78,7.78,0,0,0,3.32.68,8,8,0,0,0,3.31-.66,7.57,7.57,0,0,0,2.58-1.82,8.59,8.59,0,0,0,1.67-2.7,8.8,8.8,0,0,0,.6-3.29Z"/><path class="cls-2" d="M394.91,57.4,381.74,40.11V57.4h-5.91V30.2h5.52L394.09,47V30.2H400V57.4Z"/><path class="cls-2" d="M77.88,64.94v-1h.91v1ZM78,74.55V66.93h.73v7.62Z"/><path class="cls-2" d="M89.24,74.55V70a2.77,2.77,0,0,0-.63-1.89,2.28,2.28,0,0,0-1.79-.71,2.88,2.88,0,0,0-1,.2,2.51,2.51,0,0,0-1.4,1.43,2.94,2.94,0,0,0-.2,1.1v4.41h-.73V66.93h.73v1.42a3.66,3.66,0,0,1,1-1.14,2.89,2.89,0,0,1,1.71-.46,3.35,3.35,0,0,1,1.29.23,2.68,2.68,0,0,1,1.56,1.65,3.82,3.82,0,0,1,.2,1.26v4.66Z"/><path class="cls-2" d="M99.35,73.4a2.12,2.12,0,0,1-.56.7,2.42,2.42,0,0,1-.84.44,3.26,3.26,0,0,1-1,.16,4.75,4.75,0,0,1-1.67-.31,4.91,4.91,0,0,1-1.45-.81l.43-.58a5.14,5.14,0,0,0,1.31.74A4.11,4.11,0,0,0,97,74a2.1,2.1,0,0,0,1.3-.39,1.22,1.22,0,0,0,.53-1.06v0a1,1,0,0,0-.16-.57,1.51,1.51,0,0,0-.45-.42,3.73,3.73,0,0,0-.64-.3L96.79,71l-.94-.28a3.54,3.54,0,0,1-.84-.38,2,2,0,0,1-.61-.58,1.47,1.47,0,0,1-.23-.85v0a1.92,1.92,0,0,1,.19-.85,2.06,2.06,0,0,1,.51-.66,2.24,2.24,0,0,1,.8-.44,3.14,3.14,0,0,1,1-.16,4.78,4.78,0,0,1,1.41.23,4.86,4.86,0,0,1,1.3.62l-.39.62a5.17,5.17,0,0,0-1.13-.56,4.16,4.16,0,0,0-1.22-.21,2,2,0,0,0-1.26.38,1.19,1.19,0,0,0-.47,1v0a.86.86,0,0,0,.18.54,1.64,1.64,0,0,0,.47.4,4.09,4.09,0,0,0,.68.29l.79.24c.31.09.61.19.91.3a3.06,3.06,0,0,1,.81.4,1.92,1.92,0,0,1,.58.59,1.56,1.56,0,0,1,.21.85v0A2,2,0,0,1,99.35,73.4Z"/><path class="cls-2" d="M111,72.41a3.93,3.93,0,0,1-.84,1.25,3.64,3.64,0,0,1-1.19.79,3.54,3.54,0,0,1-2.4.13,3.37,3.37,0,0,1-.86-.4,3.53,3.53,0,0,1-.69-.59,6.05,6.05,0,0,1-.55-.68v4h-.73v-10h.73v1.7a6.33,6.33,0,0,1,.56-.72,3.91,3.91,0,0,1,.69-.59,3.17,3.17,0,0,1,.85-.41,3.37,3.37,0,0,1,1-.16A3.51,3.51,0,0,1,109,67a3.57,3.57,0,0,1,1.18.78A3.92,3.92,0,0,1,111,69a4.17,4.17,0,0,1,.32,1.67v0A4.17,4.17,0,0,1,111,72.41Zm-.45-1.67a3.94,3.94,0,0,0-.24-1.36,3.2,3.2,0,0,0-.65-1,3,3,0,0,0-3.27-.65,3.07,3.07,0,0,0-1,.68,3.25,3.25,0,0,0-1,2.36v0a3.27,3.27,0,0,0,.26,1.34,3.18,3.18,0,0,0,1.69,1.69,3,3,0,0,0,2.34,0,2.66,2.66,0,0,0,1-.64,3,3,0,0,0,.64-1,3.71,3.71,0,0,0,.23-1.36Z"/><path class="cls-2" d="M115.47,64.94v-1h.91v1Zm.09,9.61V66.93h.73v7.62Z"/><path class="cls-2" d="M125.07,67.62a3.21,3.21,0,0,0-1.26.24,3,3,0,0,0-1,.74,3.48,3.48,0,0,0-.73,1.19,4.59,4.59,0,0,0-.27,1.64v3.12H121V66.93h.73V69.1a4.36,4.36,0,0,1,.57-.95,3.91,3.91,0,0,1,.78-.74,3.34,3.34,0,0,1,1-.46,3.56,3.56,0,0,1,1.08-.14v.81Z"/><path class="cls-2" d="M128.88,64.94v-1h.91v1Zm.09,9.61V66.93h.73v7.62Z"/><path class="cls-2" d="M140.24,74.55V70a2.77,2.77,0,0,0-.63-1.89,2.28,2.28,0,0,0-1.79-.71,2.88,2.88,0,0,0-1,.2,2.51,2.51,0,0,0-1.4,1.43,3.15,3.15,0,0,0-.2,1.1v4.41h-.73V66.93h.73v1.42a3.58,3.58,0,0,1,1.05-1.14,2.84,2.84,0,0,1,1.7-.46,3.35,3.35,0,0,1,1.29.23,2.68,2.68,0,0,1,1.56,1.65,3.82,3.82,0,0,1,.2,1.26v4.66Z"/><path class="cls-2" d="M152.26,74.91a3.06,3.06,0,0,1-.78,1.13,3.28,3.28,0,0,1-1.18.69,4.29,4.29,0,0,1-1.5.24,5.71,5.71,0,0,1-3.51-1.18l.44-.6a4.86,4.86,0,0,0,3.08,1.08,3.55,3.55,0,0,0,1.21-.18,2.49,2.49,0,0,0,1.56-1.48,3.3,3.3,0,0,0,.23-1.28V72.22a5.18,5.18,0,0,1-.57.67,4.2,4.2,0,0,1-.7.56,3.41,3.41,0,0,1-.87.39,3.35,3.35,0,0,1-1,.14,3.74,3.74,0,0,1-2.52-1,3.52,3.52,0,0,1-.83-1.12A3.45,3.45,0,0,1,145,70.4v0a3.51,3.51,0,0,1,.31-1.5,3.6,3.6,0,0,1,.83-1.14,3.79,3.79,0,0,1,4.45-.47,4.65,4.65,0,0,1,.7.54,5.57,5.57,0,0,1,.55.65V66.93h.74v6.44A4.05,4.05,0,0,1,152.26,74.91Zm-.41-4.56a2.47,2.47,0,0,0-.27-1.19,2.68,2.68,0,0,0-.71-.92,3.12,3.12,0,0,0-1-.59,3.6,3.6,0,0,0-1.17-.2,3.42,3.42,0,0,0-1.14.2,2.85,2.85,0,0,0-.94.58,2.6,2.6,0,0,0-.64.9,2.93,2.93,0,0,0-.23,1.21v0a2.87,2.87,0,0,0,.24,1.18,2.8,2.8,0,0,0,.65.92,3,3,0,0,0,2.06.81,3.32,3.32,0,0,0,1.17-.21,3,3,0,0,0,1-.59,2.9,2.9,0,0,0,.72-.91,2.73,2.73,0,0,0,.27-1.19Z"/><path class="cls-2" d="M174.3,74.55V70a2.83,2.83,0,0,0-.59-1.92,2.14,2.14,0,0,0-1.66-.68,2.39,2.39,0,0,0-.92.18,2.28,2.28,0,0,0-.77.52,2.7,2.7,0,0,0-.53.85,3.14,3.14,0,0,0-.19,1.14v4.44h-.73V70a2.77,2.77,0,0,0-.6-1.88,2.05,2.05,0,0,0-1.63-.68,2.28,2.28,0,0,0-1,.21,2.44,2.44,0,0,0-.77.58,2.76,2.76,0,0,0-.52.87,3,3,0,0,0-.19,1.08v4.39h-.73V66.93h.73v1.36a4.67,4.67,0,0,1,.41-.58,3.5,3.5,0,0,1,.53-.49,2.39,2.39,0,0,1,.7-.34,3.19,3.19,0,0,1,1.81,0,3,3,0,0,1,.72.36,2.76,2.76,0,0,1,.55.53,4.38,4.38,0,0,1,.4.62,4.21,4.21,0,0,1,.43-.61,3,3,0,0,1,.59-.53,3.08,3.08,0,0,1,.75-.37,3.2,3.2,0,0,1,1-.13,3,3,0,0,1,1.22.23,2.65,2.65,0,0,1,.93.65,2.79,2.79,0,0,1,.58,1,4.13,4.13,0,0,1,.21,1.31v4.62Z"/><path class="cls-2" d="M186.6,72.26a4,4,0,0,1-2.07,2.15,4,4,0,0,1-3.14,0,4.2,4.2,0,0,1-1.23-.86,3.73,3.73,0,0,1-.81-1.26,3.77,3.77,0,0,1-.29-1.52v0a4,4,0,0,1,1.11-2.8,3.91,3.91,0,0,1,1.25-.87,3.68,3.68,0,0,1,1.57-.32,3.64,3.64,0,0,1,1.56.32,4.07,4.07,0,0,1,1.23.86,4,4,0,0,1,.82,1.26,4.15,4.15,0,0,1,.29,1.52v0A4.15,4.15,0,0,1,186.6,72.26Zm-.49-1.52a3.56,3.56,0,0,0-.24-1.29,3.17,3.17,0,0,0-1.67-1.75,3.12,3.12,0,0,0-3.49.71,3.2,3.2,0,0,0-.65,1,3.6,3.6,0,0,0-.23,1.26v0a3.56,3.56,0,0,0,.24,1.29,3.24,3.24,0,0,0,.67,1A3.1,3.1,0,0,0,183,74a3.19,3.19,0,0,0,1.26-.26,3.13,3.13,0,0,0,1-.7,3.2,3.2,0,0,0,.65-1,3.6,3.6,0,0,0,.23-1.26Z"/><path class="cls-2" d="M193.82,74.61h-.62l-3.43-7.68h.86l2.88,6.8,2.92-6.8h.82Z"/><path class="cls-2" d="M201.22,72.3a3.32,3.32,0,0,0,.68.94,2.79,2.79,0,0,0,.92.59,3.3,3.3,0,0,0,2.61-.15,4.32,4.32,0,0,0,1.1-.85l.51.45a5.15,5.15,0,0,1-1.33,1,3.75,3.75,0,0,1-1.83.41,3.68,3.68,0,0,1-1.43-.28,3.64,3.64,0,0,1-1.2-.81,3.76,3.76,0,0,1-.82-1.26,4.27,4.27,0,0,1-.3-1.62v0a4.28,4.28,0,0,1,.28-1.54,3.91,3.91,0,0,1,.76-1.27,3.82,3.82,0,0,1,1.14-.85,3.25,3.25,0,0,1,1.44-.31,3.46,3.46,0,0,1,1.45.3,3.26,3.26,0,0,1,1.1.85,3.81,3.81,0,0,1,.7,1.26,5,5,0,0,1,.25,1.58v.16s0,.09,0,.14h-6.32A3.39,3.39,0,0,0,201.22,72.3Zm5.25-1.92a4.66,4.66,0,0,0-.23-1.11,3.12,3.12,0,0,0-.53-.94,2.43,2.43,0,0,0-.83-.66,2.73,2.73,0,0,0-2.22,0,2.49,2.49,0,0,0-.86.62,3.31,3.31,0,0,0-.61.94,3.4,3.4,0,0,0-.28,1.17Z"/><path class="cls-2" d="M222,74.55V70a2.84,2.84,0,0,0-.6-1.92,2.11,2.11,0,0,0-1.66-.68,2.47,2.47,0,0,0-.92.18,2.38,2.38,0,0,0-.77.52,2.86,2.86,0,0,0-.52.85,3.14,3.14,0,0,0-.19,1.14v4.44h-.74V70A2.77,2.77,0,0,0,216,68.1a2.06,2.06,0,0,0-1.63-.68,2.28,2.28,0,0,0-1,.21,2.48,2.48,0,0,0-.78.58,2.93,2.93,0,0,0-.51.87,3,3,0,0,0-.19,1.08v4.39h-.73V66.93H212v1.36a4.67,4.67,0,0,1,.41-.58,3.5,3.5,0,0,1,.53-.49,2.27,2.27,0,0,1,.7-.34,3.19,3.19,0,0,1,1.81,0,3.23,3.23,0,0,1,.72.36,2.47,2.47,0,0,1,.54.53,3.65,3.65,0,0,1,.4.62,4.21,4.21,0,0,1,.43-.61,2.95,2.95,0,0,1,1.35-.9,3.16,3.16,0,0,1,1-.13A3,3,0,0,1,221,67a2.65,2.65,0,0,1,.93.65,2.79,2.79,0,0,1,.58,1,4.13,4.13,0,0,1,.21,1.31v4.62Z"/><path class="cls-2" d="M227.88,72.3a3.11,3.11,0,0,0,.67.94,2.89,2.89,0,0,0,.92.59,3.14,3.14,0,0,0,1.09.2,3.09,3.09,0,0,0,1.52-.35,4.32,4.32,0,0,0,1.1-.85l.51.45a5,5,0,0,1-1.33,1,3.72,3.72,0,0,1-1.83.41,3.68,3.68,0,0,1-1.43-.28,3.64,3.64,0,0,1-1.2-.81,3.92,3.92,0,0,1-.82-1.26,4.47,4.47,0,0,1-.3-1.62v0a4.28,4.28,0,0,1,.28-1.54,3.91,3.91,0,0,1,.76-1.27,3.74,3.74,0,0,1,1.15-.85,3.21,3.21,0,0,1,1.43-.31,3.43,3.43,0,0,1,1.45.3,3.26,3.26,0,0,1,1.1.85,3.81,3.81,0,0,1,.7,1.26,5,5,0,0,1,.25,1.58v.16a.68.68,0,0,1,0,.14h-6.32A3.21,3.21,0,0,0,227.88,72.3Zm5.24-1.92a4.66,4.66,0,0,0-.23-1.11,3.12,3.12,0,0,0-.53-.94,2.43,2.43,0,0,0-.83-.66,2.73,2.73,0,0,0-2.22,0,2.49,2.49,0,0,0-.86.62,3.31,3.31,0,0,0-.61.94,3.64,3.64,0,0,0-.28,1.17Z"/><path class="cls-2" d="M243.69,74.55V70a2.77,2.77,0,0,0-.63-1.89,2.28,2.28,0,0,0-1.79-.71,2.88,2.88,0,0,0-1.05.2,2.51,2.51,0,0,0-1.4,1.43,3.15,3.15,0,0,0-.2,1.1v4.41h-.73V66.93h.73v1.42a3.58,3.58,0,0,1,1-1.14,2.84,2.84,0,0,1,1.7-.46,3.35,3.35,0,0,1,1.29.23,2.71,2.71,0,0,1,1.56,1.64,3.67,3.67,0,0,1,.2,1.27v4.66Z"/><path class="cls-2" d="M252.1,74.62a2.88,2.88,0,0,1-.65.07,3,3,0,0,1-.84-.12,1.75,1.75,0,0,1-1.13-1,2.34,2.34,0,0,1-.17-.94v-5h-1.1v-.67h1.1V64.5H250v2.43h2.68v.67H250v4.91a1.42,1.42,0,0,0,.43,1.15,1.8,1.8,0,0,0,1.1.32,2.48,2.48,0,0,0,.54-.06,3,3,0,0,0,.58-.19v.68A3.19,3.19,0,0,1,252.1,74.62Z"/><path class="cls-1" d="M35.88,8.34C55.3,8.27,71.51,24.62,71.33,44.28A35.67,35.67,0,1,1,35.88,8.34ZM35.69,74.2a30.23,30.23,0,1,0-.1-60.46h0a30.23,30.23,0,1,0,.12,60.46Z"/><path class="cls-1" d="M11.92,42.74c0-3.76,0-7.52,0-11.29a2.35,2.35,0,0,1,1.25-2.29c6.59-3.76,13.11-7.56,19.7-11.32,1.44-.82,1.66-.69,1.66,1,0,2.73-.06,5.43,0,8.16a3.24,3.24,0,0,1-1.91,3.39c-2.95,1.56-5.8,3.35-8.72,5a2.29,2.29,0,0,0-1.32,2.26c0,3.55,0,7.12,0,10.67a2.46,2.46,0,0,1-1.47,2.48c-2.48,1.31-4.92,2.76-7.37,4.17-1.79,1-1.88,1-1.88-1.16C11.92,50.05,11.92,46.41,11.92,42.74Z"/><path class="cls-1" d="M59.38,42.71V54.16c0,1.6-.19,1.7-1.6.91-2.54-1.44-5.05-3-7.63-4.36a2.6,2.6,0,0,1-1.53-2.63c.06-3.51,0-7,0-10.51a2.3,2.3,0,0,0-1.29-2.26c-3-1.66-6-3.45-9-5.11a2.87,2.87,0,0,1-1.66-2.88c.09-2.7,0-5.43,0-8.16,0-2.1.16-2.19,2-1.19,5.64,3.27,11.32,6.5,16.93,9.79,4.55,2.67,3.64,1.16,3.7,6.46C59.41,37.06,59.38,39.89,59.38,42.71Z"/><path class="cls-1" d="M35.73,71.1a8.84,8.84,0,0,1-1.19-.6c-6.65-3.79-13.3-7.65-20-11.44-1.1-.63-1.29-1,0-1.73q4.19-2.31,8.28-4.77a2,2,0,0,1,2.32.19c3,1.76,6.08,3.45,9.06,5.27a2.4,2.4,0,0,0,2.85,0c3-1.79,6-3.45,8.94-5.21a2.58,2.58,0,0,1,3,0c2.45,1.51,5,2.92,7.44,4.36,1.66,1,1.66,1.1.06,2l-17.38,10C38,69.81,36.86,70.47,35.73,71.1Z"/></g></svg>