<svg xmlns="http://www.w3.org/2000/svg" viewBox="0 0 2099.28 2099.44"><defs><style>.cls-1{fill:#690fad;}</style></defs><title>Icon Without BG</title><g id="Layer_2" data-name="Layer 2"><g id="Layer_1-2" data-name="Layer 1"><path class="cls-1" d="M1049.64,0C469.94,0,0,469.94,0,1049.64c0,579.86,469.94,1049.8,1049.64,1049.8s1049.64-469.94,1049.64-1049.8C2099.28,469.94,1629.34,0,1049.64,0Zm0,1934.8c-488.93,0-885.16-396.23-885.16-885.16,0-488.77,396.23-885.16,885.16-885.16,488.77,0,885.16,396.39,885.16,885.16C1934.8,1538.57,1538.41,1934.8,1049.64,1934.8Z"/><path class="cls-1" d="M1076.76,1831.05c-.62.29-1.29.37-1.92.64a63.83,63.83,0,0,1-10.93,3.59c-.8.18-1.59.37-2.39.53a62.21,62.21,0,0,1-13.62,1.08h-.27a62.61,62.61,0,0,1-14.57-2.36l-.23-.08a60.72,60.72,0,0,1-9.62-3.31L419.84,1482.6a19.39,19.39,0,0,1-.29-33.66L670.61,1306l4.88-2.82a69.49,69.49,0,0,1,68.23.37c.22.06.3.2.52.26l276.07,159.5a56.15,56.15,0,0,0,59.35-.07l276.07-159.5c.22-.06.3-.2.52-.26a69.44,69.44,0,0,1,68.23-.37l4.88,2.81,251.06,142.91a19.39,19.39,0,0,1-.29,33.66l-456.68,263.79,0,0-142.58,82.32h0Z"/><path class="cls-1" d="M1752.88,659.9c-.06-.68-.33-1.3-.41-2a62.72,62.72,0,0,0-2.36-11.27c-.23-.78-.46-1.56-.73-2.33A62.07,62.07,0,0,0,1743.5,632l-.14-.23a62,62,0,0,0-9.32-11.43l-.19-.17a60.21,60.21,0,0,0-7.68-6.67L1122.65,265.22a19.38,19.38,0,0,0-29.29,16.58l1.77,288.88v5.63a69.47,69.47,0,0,0,34.44,58.91c.16.16.32.16.48.32l276.17,159.33a56.12,56.12,0,0,1,29.61,51.43l-.1,318.83c.06.22,0,.36,0,.58a69.5,69.5,0,0,0,33.8,59.28l4.88,2.81,249.29,146a19.39,19.39,0,0,0,29-17.08l.12-527.39h0V659.9Z"/><path class="cls-1" d="M346.36,659.9c.06-.68.34-1.3.41-2a63.6,63.6,0,0,1,2.36-11.27c.24-.78.47-1.56.73-2.33A63.2,63.2,0,0,1,355.74,632l.14-.23a62.5,62.5,0,0,1,9.33-11.43c.05-.06.13-.11.18-.17a60.3,60.3,0,0,1,7.69-6.67L976.59,265.22a19.4,19.4,0,0,1,29.3,16.58l-1.78,288.88v5.63a69.47,69.47,0,0,1-34.44,58.91c-.16.16-.32.16-.48.32L693,794.87a56.16,56.16,0,0,0-29.61,51.43l.11,318.83c-.06.22,0,.36,0,.58A69.49,69.49,0,0,1,629.69,1225l-4.88,2.81-249.3,146a19.39,19.39,0,0,1-29-17.08l-.11-527.39h0V659.9Z"/></g></g></svg>