<?xml version="1.0" encoding="UTF-8"?><svg id="Layer_1" xmlns="http://www.w3.org/2000/svg" viewBox="0 0 211 216"><defs><style>.cls-1{fill:#690fad;stroke-width:2.4813px;}.cls-1,.cls-2{stroke:#690fad;}.cls-2{fill:none;stroke-width:13.2336px;}</style></defs><path class="cls-1" d="M106.8158,17.019h-.4913c-24.8863,.1973-48.6856,10.262-66.2106,28.0003-8.1761,8.1823-14.6495,17.9154-19.0435,28.6328-4.394,10.7174-6.6207,22.2052-6.5508,33.7945,.2922,51.147,40.0184,91.3606,90.4368,91.5343h.3317c12.1038,.0174,24.0909-2.3804,35.2634-7.0543,11.1725-4.6739,21.3086-11.5314,29.8178-20.173,8.2942-8.1841,14.8762-17.9497,19.3599-28.7227,4.4837-10.7721,6.7797-22.3358,6.7524-34.0112-.3457-50.8137-40.5097-92.0008-89.6659-92.0008Zm76.5828,90.8139c1.129,40.561-34.1212,77.1874-75.3479,78.2808-43.8302,1.2406-79.2795-32.9467-80.6077-77.7738-.5578-19.3202,6.9066-38.2137,21.0253-53.2272,14.1548-15.2276,33.7247-24.2312,54.4561-25.0536h2.3109c19.8851-.1294,39.0556,7.4396,53.5257,21.1336,7.6366,7.3346,13.7464,16.1179,17.9754,25.8407,4.229,9.7229,6.4944,20.192,6.6623,30.7995h0Z"/><path class="cls-2" d="M88.3445,74.8115c16.779,9.299,34.139,19.2684,51.6421,29.5765,2.215,1.3143,2.6426,2.6963,2.6451,3.4341,.0025,.7634-.4243,2.1802-2.6633,3.516-16.5321,9.8135-33.878,19.857-51.6,29.9038l-.0749,.0422-.0738,.0447c-.9683,.5831-2.0661,.9073-3.1902,.9462-.3853-.0033-.7651-.105-1.1038-.2969-.4891-.2845-1.6198-1.3804-1.6953-4.4399v-24.6037h.093v-14.1632h.0007l-.0013-.0918c-.0925-6.6623-.1313-13.4993-.0006-20.2063v-.0019c.0665-3.459,1.2429-4.3912,1.5435-4.5641,.3136-.1803,1.6004-.6999,4.4648,.8967h0l.014,.0078Z"/></svg>