<?xml version="1.0" encoding="UTF-8"?><svg id="Layer_1" xmlns="http://www.w3.org/2000/svg" viewBox="0 0 180.8699 180.678"><defs><style>.cls-1{fill:#690fad;}</style></defs><path class="cls-1" d="M.0082,106.6773c.7873-23.6194,11.8971-40.8528,32.8047-51.6127,3.0618-1.5746,3.9366-3.0618,2.7993-6.211-.6123-1.5747-.8748-3.4117-1.0497-5.0738-.3499-3.0618,.9622-5.2488,3.9365-6.2111,3.0618-.9622,5.2488,.6124,6.6485,3.1493,.7873,1.3997,1.3121,2.9743,1.4871,4.5489,.5249,4.199,2.8868,5.0738,6.6484,4.6364,9.8852-1.1372,19.158,1.0498,28.0809,5.1613,15.5709,7.2608,25.6319,19.3329,30.7049,35.6917,.788,2.624,.788,4.986-1.312,7.086-2.187,2.099-4.636,1.574-7.086,.699-4.024-1.574-7.96-2.799-12.509-1.662-4.812,1.225-8.5732,3.587-11.5475,7.436-3.3242,4.287-4.9863,4.724-9.9726,2.799-.8748-.349-1.7496-.699-2.6244-.962-3.0618-.787-3.9366,.088-3.1493,3.237,4.4615,16.796,8.9229,33.592,13.2969,50.475,.6998,2.625,1.837,2.887,4.2865,2.275,13.0344-3.412,25.9814-7.436,39.3654-9.71,14.872-2.45,29.568-2.8,43.827,3.149,4.812,2.012,9.273,4.811,13.56,7.786,2.886,2.012,3.411,4.811,1.662,7.785-1.75,3.15-4.637,3.499-7.611,1.925-4.199-2.1-7.873-5.074-12.247-6.824-12.685-4.986-25.631-4.461-38.753-2.187-17.584,3.062-34.467,9.011-51.8756,12.772-17.4084,3.762-34.9042,5.687-52.4875,1.4-4.0241-.962-7.8732-2.537-11.8097-4.024-4.0241-1.487-5.7737-4.549-4.6364-7.698,1.1372-3.324,4.5489-4.899,8.6604-3.062,11.6347,5.074,23.7944,6.036,36.2164,5.424,6.2985-.35,12.5096-1.575,18.6331-2.537,2.187-.35,2.8868-1.4,2.2745-3.674-4.6364-17.146-9.2728-34.38-13.8218-51.525-.6123-2.45-2.0995-2.625-3.1492-.788-4.4615,7.611-10.2351,6.736-17.4959,4.374-6.5609-2.187-12.5095,1.137-17.3209,6.036-.6123,.7-1.1372,1.487-1.6621,2.275-1.6621,2.187-3.6741,3.499-6.5609,2.799-2.6244-.612-3.8491-2.537-4.5489-5.074C.533,116.0373-.0793,111.4013,.0082,106.6773Zm41.5526-19.4203c-.0875,2.8863,.2624,5.8613,.6998,8.9233,.4374,3.061,1.3997,3.674,4.0241,1.924,5.1613-3.499,11.0224-4.724,17.1459-4.461,2.6244,.087,2.2745-.963,1.6621-2.537-3.4991-9.448-8.8354-17.5836-16.8835-23.9696-1.9245-1.5746-2.6243-.9623-3.3242,1.0498-2.012,6.1235-3.4992,12.3346-3.3242,19.0705Zm-9.0978-18.2832c-7.8732,4.2865-12.3346,10.41-15.9213,17.1459-3.0617,5.6866-4.9863,11.8096-4.8113,18.4586,.0875,2.012,.3499,3.236,2.7118,1.837,4.2865-2.45,8.8354-3.762,13.8218-3.412,2.012,.087,3.6741-.437,3.0617-2.887-2.4494-10.235-1.3996-20.2076,1.1373-31.1425Zm27.0311-7.0858c8.223,7.7856,13.4718,16.621,16.9709,26.5933,.5249,1.488,1.1373,1.925,2.5369,.963,5.3359-3.4121,11.1969-4.8117,17.4959-4.6368-4.636-12.3345-23.182-24.1442-37.0037-22.9195Z"/><path class="cls-1" d="M138.0508,60.8382c-10.41,.0874-18.108-7.5233-18.196-17.8458-.087-10.2351,8.136-18.4581,18.283-18.3707,9.623,.0875,17.934,8.398,17.934,18.0208,0,10.0601-7.961,18.1957-18.021,18.1957Zm-.262-11.6348c4.111,0,6.298-2.0995,6.386-6.0361,.087-4.199-2.187-6.5609-6.299-6.6484-4.199-.0875-6.473,2.2745-6.386,6.4735,.088,3.8491,2.449,6.211,6.299,6.211Z"/><path class="cls-1" d="M171.3808,48.6782c-.438-.0875-2.1-.0875-3.587-.5249-3.411-1.1372-4.899-5.1612-3.062-8.1355,2.1-3.4992,5.687-2.8868,9.011-2.8868,2.712,0,5.074,.6998,6.298,3.3242,2.275,4.4614-1.137,8.223-8.66,8.223Z"/><path class="cls-1" d="M143.7358,77.0227c-.087,1.4871-.087,2.7118-.262,3.849-.525,2.7994-2.275,4.549-5.162,4.7239-2.886,.175-4.811-1.3122-5.686-4.024-.962-2.7119-.787-5.5112-.175-8.2231,.7-2.7993,2.537-4.3739,5.424-4.3739s4.724,1.5746,5.424,4.3739c.35,1.2247,.35,2.6244,.437,3.6742Z"/><path class="cls-1" d="M102.8838,37.0429c2.449,0,4.199,0,5.861,.7873,2.012,.9623,3.149,2.6244,3.149,4.7239,0,2.2745-.875,4.2865-3.149,5.1613-3.324,1.3997-6.824,1.3997-10.148,.0875-2.362-.9623-3.499-2.9743-3.412-5.4237,.088-2.362,1.488-3.9366,3.675-4.8114,1.487-.6124,3.149-.4374,4.024-.5249Z"/><path class="cls-1" d="M160.1829,26.1085c-1.837-.0875-3.587-1.0497-4.724-2.8868-1.137-1.8371-1.312-3.8491,0-5.6861,1.487-2.187,3.412-4.1116,5.599-5.6862,2.536-1.8371,5.073-1.4871,7.26,.7873,2.012,2.0995,2.1,4.5489,.525,6.9984-2.099,3.2367-6.123,6.3859-8.66,6.4734Z"/><path class="cls-1" d="M160.1829,59.6132c3.586,0,9.972,6.4735,9.71,9.9727-.263,3.6741-4.287,6.386-7.523,4.8988-3.237-1.4871-5.774-4.024-7.261-7.2608-1.662-3.5866,1.137-7.6107,5.074-7.6107Z"/><path class="cls-1" d="M121.0799,20.336c.087,3.8491-3.937,6.8234-7.436,5.3362-3.237-1.3997-5.774-4.024-7.348-7.1733-1.662-3.4117,1.224-7.6107,5.073-7.6982,3.325,0,9.711,6.2111,9.711,9.5353Z"/><path class="cls-1" d="M143.6489,8.3499c0,1.7496,.087,3.4991-.7,5.0738-1.662,3.4991-6.474,4.2865-9.098,1.4871-2.624-2.7993-2.449-10.9349,.35-13.4718,2.712-2.5369,7.173-1.5746,8.748,1.7496,.787,1.7496,.7,3.4117,.7,5.1613Z"/><path class="cls-1" d="M111.6318,74.8337c-2.012-.0874-3.762-1.0497-4.899-2.8868-1.137-1.837-1.225-3.8491,0-5.6861,1.574-2.362,3.586-4.374,5.948-5.8611,1.837-1.2248,3.762-1.1373,5.687,0,1.837,1.1372,2.799,2.7993,2.799,4.9863-.175,3.3242-6.211,9.3603-9.535,9.4477Z"/></svg>